<svg id="Capa_1" data-name="Capa 1" xmlns="http://www.w3.org/2000/svg" viewBox="0 0 1080 1080"><defs><style>.cls-1{fill:#ae3dff;}</style></defs><path class="cls-1" d="M88.53,327.2c-1.22-84,64.91-155.31,142.87-154.1,15.47,0,31.85,4.25,49.75,12.44,17.9,8.5,33.06,22.14,46.11,41,13,19.11,20.32,44,22.14,74.93v36.4l-214.16.61c3.94,27.6,14.26,51.26,30.94,70.68s37.31,29.42,62.49,29.72q33.22-1.36,56.42-20.93a152.46,152.46,0,0,0,36.1-43.68l37.62,22.14C332.41,440,283.27,481,231.4,481,153.44,482.21,87.31,410.62,88.53,327.2Zm216.28-31.55c-9.1-58.54-38.83-82.81-73.71-82.81-23.36,0-43.38,7.58-60.37,22.45-17.29,14.86-28.51,35.18-34.28,60.36Z"/><path class="cls-1" d="M611,471.59H393.78V427.91L545.45,216.48H440.8V259H398.33V174h199v43.38l-152,211.74H568.81V386.65H611Z"/><path class="cls-1" d="M398.65,753.1c-.91-84,61.28-155.31,135-154.1,25.18,0,48.54,9.71,69.47,29.43V604.77h41.56v80.39H607.05q-23.2-46.42-73.71-46.42c-51-.91-93.73,53.39-93.13,114.36,0,30.64,9.1,57,27.61,79.48,18.2,22.45,40.64,34,67,34.58,42.16-1.21,71-25.17,88-56.72l31.24,18.8C628.59,872,582.48,906.9,533.64,906.9,459.93,908.11,397.74,836.53,398.65,753.1Z"/><path class="cls-1" d="M689,748.55C688.13,663,757.9,589.6,840.41,590.82,922.62,589.6,992.69,663,991.48,748.55c1.21,86.16-68.86,159-151.07,157.74C757.9,907.51,688.13,834.71,689,748.55Zm260,0c.91-62.79-49.75-115.87-108.6-115.27-59.15-.6-109.2,52.48-108.6,115.27-.6,62.8,49.45,115.88,108.6,115.28C899.26,864.43,949.92,811.35,949,748.55Z"/><path class="cls-1" d="M708.41,268.93c-.35-15.45,12.53-27.59,28.31-28,16.11-.37,29.2,11.18,29.56,26.63.34,14.79-12.2,27.58-28.31,27.95C722.19,295.92,708.75,283.73,708.41,268.93ZM724.14,424l-.46-19.73L740.07,373h-.33c-15.78.36-29.2-11.18-29.56-26.63-.33-14.79,12.53-27.59,28.31-28,16.11-.37,29.22,11.83,29.56,26.62l.21,9.21c.14,6.25-1.33,13.85-4.08,22.79-2.16,6.3-9.51,15.68-21.72,28.46Z"/><rect class="cls-1" x="88.51" y="604.77" width="11.86" height="302.14"/></svg>