<?xml version="1.0" encoding="utf-8"?>
<!-- Generator: Adobe Illustrator 28.0.0, SVG Export Plug-In . SVG Version: 6.00 Build 0)  -->
<svg version="1.1" id="Capa_1" xmlns="http://www.w3.org/2000/svg" xmlns:xlink="http://www.w3.org/1999/xlink" x="0px" y="0px"
	 viewBox="0 0 1080 1080" style="enable-background:new 0 0 1080 1080;" xml:space="preserve">
<style type="text/css">
	.st0{fill:#DC091C;}
</style>
<g>
	<path d="M764.04,406.05c6.52,0,13.11-0.18,19.69,0.03c35.32,1.12,71-0.46,105.87,4.13c65.51,8.62,106.92,59.5,107.49,125.69
		c0.34,39.46-9.12,74.89-38.98,102.4c-25.44,23.43-56.94,33.41-90.58,34.93c-34.11,1.55-68.35,0.34-103.49,0.34
		C764.04,584.93,764.04,496.27,764.04,406.05z M833.28,605.58c33.61,1.84,65.32,0.27,83.63-32.03
		c14.11-24.89,12.88-51.28-4.73-74.19c-19.92-25.92-48.95-27.38-78.9-25.7C833.28,518.06,833.28,561.17,833.28,605.58z"/>
	<path d="M716.36,407.08c0,21.6,0,43.06,0,65.54c-33.71,0-67.02,0-101.33,0c0,12.13,0,23.32,0,36.1c27.07,0,54.72,0,83.2,0
		c0,20.59,0,39.63,0,60c-27.78,0-55.5,0-83.71,0c0,12.99,0,24.68,0,37.71c33.83,0,67.43,0,101.85,0c0,23.14,0,44.95,0,67.27
		c-57.58,0-114.49,0-172.15,0c0-88.83,0-177.21,0-266.62C601.3,407.08,658.45,407.08,716.36,407.08z"/>
	<path d="M114.2,406.79c57.03,0,113.92,0,171.48,0c0,21.99,0,43.44,0,66.12c-33.51,0-66.76,0-100.76,0c0,12.38,0,23.56,0,35.82
		c27.56,0,54.94,0,83.29,0c0,20.1,0,39.16,0,59.83c-27.21,0-54.89,0-83.31,0c0,13.19,0,24.8,0,37.89c33.4,0,66.96,0,100.97,0
		c0,23,0,44.55,0,66.93c-57.01,0-113.88,0-171.67,0C114.2,584.89,114.2,496.21,114.2,406.79z"/>
	<polygon class="st0" points="326.3,407.85 326.3,672.15 398.58,672.15 398.58,504.93 482.9,504.93 482.9,473.39 398.58,473.39 
		398.58,456.39 500.61,456.39 500.61,407.85 	"/>
</g>
</svg>
