<?xml version="1.0" encoding="utf-8"?>
<!-- Generator: Adobe Illustrator 28.0.0, SVG Export Plug-In . SVG Version: 6.00 Build 0)  -->
<svg version="1.1" id="Capa_1" xmlns="http://www.w3.org/2000/svg" xmlns:xlink="http://www.w3.org/1999/xlink" x="0px" y="0px"
	 viewBox="0 0 1080 1080" style="enable-background:new 0 0 1080 1080;" xml:space="preserve">
<style type="text/css">
	.st0{fill-rule:evenodd;clip-rule:evenodd;fill:#009BD2;}
	.st1{fill-rule:evenodd;clip-rule:evenodd;fill:#FFFFFF;}
	.st2{fill:#6D6E70;}
	.st3{fill-rule:evenodd;clip-rule:evenodd;fill:#6D6E70;}
	.st4{fill:#009BD2;}
</style>
<g>
	<path class="st0" d="M308.03,408.7c0,0-92.28-54.25-152.84,19.25s2.91,226.93,253.18,253.76c0,0,74.23-87.26,106.18-189.59
		c31.94-102.33-44.34-173.84-116.09-158.67C326.7,348.61,308.03,408.7,308.03,408.7"/>
	<path class="st0" d="M312.99,237.1c-1.76,0.3-29.1,10.87-19.69,50.55c9.41,39.68,38.8,53.49,61.13,46.44
		c22.34-7.05,22.63-62.9,2.06-84.94S312.99,237.1,312.99,237.1"/>
	<path class="st0" d="M412.06,179.5c-1.77-0.24-31.01,1.83-33.69,42.52c-2.68,40.69,21.35,62.54,44.77,62.36
		c23.42-0.17,40.13-53.46,26.95-80.58C436.91,176.69,412.06,179.5,412.06,179.5"/>
	<path class="st0" d="M533.05,207.96c-1.33-1.09-26.37-14.15-49.11,17.88c-22.74,32.03-14.06,62.08,5.24,73.77
		c19.3,11.68,59.91-23.6,62.79-52.5C554.85,218.2,533.05,207.96,533.05,207.96"/>
	<path class="st0" d="M587.82,298.5c-1.19-1.23-24.28-17.03-50.14,12.22c-25.87,29.26-26.02,67.1-4.51,77.24
		c21.51,10.14,62.81-20.04,68.85-48.43C608.06,311.13,587.82,298.5,587.82,298.5"/>
	<path class="st1" d="M402.98,550.42l0.47,15.39c-33.49,6.73-51.61-21.56-60.42-44.07c3.42,25,0.92,62.03-36.8,70.79
		c-63.1,11.67-84.7-74.23-84.7-74.23s37.52,70,79.21,60.09c28.42-6.76,34.8-41.58,35.98-63.06c-14.53-5.55-29.9-13.34-38.98-26.2
		c-1.95-2.76-3.36-6.09-2.35-9.49c2.94-9.87,26.32-13.46,34.91-15.04c5.56-1.02,11.14-1.95,16.67-3.09
		c9.16-1.88,20.73,0.02,18.94,11.98c-1.92,12.8-11.68,29.65-20.63,39.97C356.47,531.25,376.94,555.59,402.98,550.42"/>
	<path class="st2" d="M779.56,641.29c0,23.67,21.41,41.6,42.47,41.6c28.19,0,46.75-20.8,46.75-48.77
		c0-68.49-70.3-114.75-70.3-179.66c0-15.78,8.92-28.33,28.19-28.33c14.99,0,5,27.61,25.69,27.61c5.71,0,8.57-2.87,8.57-8.96
		c0-20.8-17.49-35.5-36.4-35.5c-26.77,0-47.46,20.8-47.46,49.49c0,66.34,68.16,107.94,68.16,175.35c0,12.19-3.93,32.99-19.98,32.99
		c-26.41,0-13.2-34.78-33.9-34.78C784.56,632.32,779.56,634.11,779.56,641.29"/>
	<path class="st2" d="M700.69,678.22c2.86,3.23,4.28,4.66,8.57,4.66c3.57,0,10.35-2.87,11.06-6.81
		c10.35-47.69,31.41-159.93,42.11-230.94c1.43-8.97,4.28-17.21,4.28-26.18c0-4.3-3.21-6.45-7.49-6.81
		c-19.98,0-18.91,57.02-49.96,227.35l-32.12-116.19c-3.93-8.61-8.92-12.19-13.2-12.19c-5,0-9.64,4.66-11.78,12.91
		c-22.48,87.5-25.7,110.45-25.7,109.01L604.7,409.63c-0.71-6.81-8.57-8.96-13.56-8.96c-5.71,1.43-6.78,2.87-7.14,4.3
		c0,1.43-0.36,7.53-0.36,8.61c24.27,230.58,24.98,264.65,39.61,264.65c5.35,0,9.99-2.51,11.42-7.53l30.33-125.87L700.69,678.22z"/>
	<path class="st2" d="M582.93,647.74c-41.4-236.67-46.76-242.41-52.47-247.08c-2.85-2.86-5.71-3.94-8.56-3.94
		c-3.57,0-6.79,1.79-9.28,6.09L469.8,669.97c0,4.3,3.93,6.46,7.13,6.81c8.93,0,11.79-2.15,12.5-13.62l14.64-84.28l44.61-3.58
		l18.92,97.55c1.42,5.73,4.63,7.16,9.64,7.52c5.71,0,9.99-2.15,9.99-8.24L582.93,647.74z M544.74,555.94l-38.19,2.87l17.84-130.89
		C546.17,559.89,544.74,555.94,544.74,555.94z"/>
	<path class="st2" d="M415.19,398.88c-8.2,0-16.78,1.08-26.77,3.58c-9.28,2.51-11.42,7.53-11.42,23.31l7.85,253.89
		c0.35,3.95,7.14,4.66,10,4.66c4.63,0,10.34,0,12.48-4.66l-3.93-147.74c4.28,0.72,8.2,1.08,12.13,1.08
		c39.97,0,60.67-34.43,60.67-68.49C476.22,431.15,456.24,398.88,415.19,398.88z M416.98,516.85c-4.28,0-8.56-0.72-13.56-2.15
		l-3.57-96.1c6.06-2.51,12.13-3.58,17.13-3.58c24.63,0,37.11,25.82,37.11,51.27C454.09,491.75,441.6,516.85,416.98,516.85z"/>
	<path class="st1" d="M404.3,565.63c0.89-0.19,1.8-0.41,2.72-0.66c61.19-19.33,39.92-105.32,39.92-105.32s-0.25,79.42-41.71,90.25
		c-0.45,0.12-0.9,0.22-1.34,0.32C404,555.5,404.18,558.99,404.3,565.63"/>
	<polygon class="st3" points="128.87,704.33 554.14,701.8 979.41,704.33 554.14,706.07 	"/>
	<path class="st4" d="M891.66,761.31c0-7.62,1.75-12.71,5.26-15.24c3.51-2.51,8.49-3.78,14.98-3.78c6.46,0,11.17,1.06,14.07,3.19
		c2.92,2.14,4.71,5.56,5.37,10.27c0.27,2.02,0.42,4.51,0.42,7.45v42.95h-12.74v-5.47c-0.66,1.52-2.11,2.9-4.33,4.15
		c-2.24,1.25-5.01,1.87-8.3,1.87c-10.52,0-15.82-5.59-15.91-16.74v-6.15c0-3.62,1.46-6.71,4.37-9.28c2.89-2.56,10.94-5.48,24.1-8.77
		v-4.87c0-5.41-0.57-8.67-1.73-9.76c-1.16-1.09-3.13-1.64-5.91-1.64c-2.79,0-4.65,0.82-5.6,2.48c-0.95,1.65-1.44,4.64-1.44,8.96
		v2.18h-12.61V761.31z M918.96,771.36c-5.2,1.59-8.66,2.83-10.39,3.7c-1.73,0.86-3.04,1.88-3.93,3.04
		c-0.89,1.16-1.33,3.09-1.33,5.74v5.84c0,3.68,0.46,6.28,1.42,7.77c0.95,1.51,2.58,2.25,4.88,2.25c2.32,0,4.31-0.46,5.96-1.36
		c1.65-0.92,2.79-1.91,3.4-2.97V771.36z M836.36,729.33h12.74v7.91h-12.74V729.33z M836.36,743.04h12.67v63.11h-12.67V743.04z
		 M799.92,742.29c0.17,0,0.25,1.82,0.25,5.47l-0.06,1.84c-7.41,0-12.74,1.77-15.97,5.27v51.28H771.4v-63.11h12.74v7.04
		c1.08-2.47,2.96-4.38,5.66-5.74C792.5,742.97,795.88,742.29,799.92,742.29z M689.48,761.31c0-7.62,1.75-12.71,5.26-15.24
		c3.51-2.51,8.49-3.78,14.98-3.78c6.46,0,11.17,1.06,14.07,3.19c2.92,2.14,4.71,5.56,5.37,10.27c0.27,2.02,0.42,4.51,0.42,7.45
		v42.95h-12.74v-5.47c-0.65,1.52-2.11,2.9-4.33,4.15c-2.24,1.25-5.01,1.87-8.3,1.87c-10.52,0-15.82-5.59-15.91-16.74v-6.15
		c0-3.62,1.46-6.71,4.37-9.28c2.89-2.56,10.94-5.48,24.1-8.77v-4.87c0-5.41-0.57-8.67-1.73-9.76c-1.16-1.09-3.13-1.64-5.91-1.64
		c-2.79,0-4.65,0.82-5.6,2.48c-0.95,1.65-1.44,4.64-1.44,8.96v2.18h-12.61V761.31z M716.77,771.36c-5.2,1.59-8.66,2.83-10.39,3.7
		c-1.73,0.86-3.04,1.88-3.93,3.04c-0.89,1.16-1.33,3.09-1.33,5.74v5.84c0,3.68,0.46,6.28,1.42,7.77c0.95,1.51,2.58,2.25,4.88,2.25
		c2.32,0,4.31-0.46,5.96-1.36c1.65-0.92,2.79-1.91,3.4-2.97V771.36z M617.76,749.73c0.82-2.04,2.64-3.81,5.43-5.27
		c2.77-1.48,6.25-2.21,10.39-2.21c4.14,0,7.5,1.13,10.08,3.43c2.58,2.28,3.87,5.67,3.87,10.15v50.32h-12.67v-50.27
		c0-2.13-0.72-3.73-2.18-4.8c-1.44-1.06-3.44-1.59-6-1.59c-2.56,0-4.69,0.6-6.38,1.81c-1.69,1.21-2.53,3.02-2.53,5.43v49.43h-12.67
		v-63.11h12.67V749.73z M549.65,729.33h12.74v7.91h-12.74V729.33z M549.65,743.04h12.67v63.11h-12.67V743.04z M513.21,742.29
		c0.17,0,0.25,1.82,0.25,5.47l-0.06,1.84c-7.41,0-12.74,1.77-15.97,5.27v51.28H484.7v-63.11h12.74v7.04
		c1.08-2.47,2.96-4.38,5.66-5.74C505.8,742.97,509.18,742.29,513.21,742.29z M431.31,761.01c0-4.48-0.25-7.19-0.72-8.11
		c-0.46-0.92-1.08-1.74-1.82-2.44c-0.76-0.7-2.09-1.05-4.04-1.05c-3.72,0-6.06,1.06-7.06,3.17c-0.99,2.11-1.48,5.03-1.48,8.73v7.74
		h15.1V761.01z M403.51,762.61c0-7.97,2.11-13.51,6.32-16.63c3.3-2.46,8.18-3.69,14.62-3.69c9.32,0,15.17,2.73,17.57,8.2
		c1.31,3.09,1.97,7.25,1.97,12.49v11.9h-27.71v12.58c0,5.47,0.63,8.87,1.92,10.22c1.27,1.35,3.3,2.02,6.06,2.02s4.61-0.79,5.53-2.36
		c0.93-1.58,1.41-3.27,1.46-5.11c0.04-1.84,0.06-3.39,0.06-4.65v-5.1h12.44v2.7c0,6.71-0.7,11.4-2.09,14.09
		c-1.37,2.7-3.46,4.64-6.27,5.83c-2.81,1.19-6.27,1.79-10.44,1.79c-4.14,0-7.46-0.36-9.95-1.08c-2.49-0.72-4.48-1.67-5.94-2.84
		c-1.48-1.18-2.77-3.06-3.89-5.63c-1.1-2.58-1.67-6.73-1.67-12.45V762.61z M344.81,732.11h12.7v11.44h10.01v6.39H357.5v46.07
		c0,1.62,0.55,2.64,1.67,3.04c1.12,0.42,3.93,0.62,8.47,0.62v6.85h-8.72c-5.85,0-9.68-0.72-11.45-2.17
		c-1.77-1.44-2.66-3.96-2.66-7.58v-46.83h-8.47v-6.39h8.47V732.11z M289.21,761.01c0-4.48-0.25-7.19-0.72-8.11
		c-0.46-0.92-1.08-1.74-1.82-2.44c-0.76-0.7-2.09-1.05-4.04-1.05c-3.72,0-6.06,1.06-7.06,3.17c-0.99,2.11-1.48,5.03-1.48,8.73v7.74
		h15.1V761.01z M261.41,762.61c0-7.97,2.11-13.51,6.32-16.63c3.3-2.46,8.18-3.69,14.62-3.69c9.32,0,15.17,2.73,17.57,8.2
		c1.31,3.09,1.97,7.25,1.97,12.49v11.9h-27.71v12.58c0,5.47,0.63,8.87,1.92,10.22c1.27,1.35,3.3,2.02,6.06,2.02
		c2.77,0,4.61-0.79,5.53-2.36c0.93-1.58,1.42-3.27,1.46-5.11c0.04-1.84,0.06-3.39,0.06-4.65v-5.1h12.44v2.7
		c0,6.71-0.7,11.4-2.09,14.09c-1.37,2.7-3.46,4.64-6.27,5.83c-2.81,1.19-6.27,1.79-10.44,1.79c-4.14,0-7.46-0.36-9.95-1.08
		c-2.49-0.72-4.48-1.67-5.94-2.84c-1.48-1.18-2.77-3.06-3.89-5.63c-1.1-2.58-1.67-6.73-1.67-12.45V762.61z M214.02,732.11h12.06
		l-16.52,74.04h-14.91l-18.13-74.04h12.19l7.25,31.33l6.19,27.56h0.23l5.39-27.56L214.02,732.11z"/>
	<path class="st4" d="M773.25,873.82c-2.03,0.83-5.08,1.52-9.14,2.1c-2.31,0.33-3.94,0.7-4.89,1.11c-0.95,0.41-1.68,1.02-2.2,1.8
		c-0.52,0.79-0.78,1.67-0.78,2.65c0,1.47,0.56,2.71,1.69,3.69c1.13,0.98,2.78,1.48,4.95,1.48c2.15,0,4.06-0.47,5.75-1.41
		c1.67-0.93,2.91-2.21,3.69-3.83c0.6-1.26,0.9-3.11,0.9-5.56L773.25,873.82z M773.69,886.21c-2.07,1.77-4.07,3.01-5.99,3.74
		c-1.92,0.73-3.97,1.09-6.17,1.09c-3.62,0-6.4-0.88-8.35-2.65c-1.95-1.76-2.92-4.01-2.92-6.75c0-1.61,0.37-3.08,1.1-4.41
		c0.74-1.33,1.7-2.39,2.89-3.2c1.2-0.8,2.53-1.42,4.02-1.83c1.1-0.29,2.76-0.56,4.97-0.84c4.51-0.53,7.84-1.17,9.97-1.92
		c0.02-0.76,0.03-1.25,0.03-1.45c0-2.26-0.53-3.86-1.59-4.79c-1.43-1.26-3.56-1.88-6.37-1.88c-2.64,0-4.58,0.47-5.83,1.39
		c-1.26,0.92-2.18,2.55-2.78,4.9l-5.46-0.76c0.5-2.34,1.31-4.23,2.46-5.67c1.14-1.44,2.79-2.54,4.95-3.32
		c2.15-0.77,4.66-1.16,7.49-1.16c2.81,0,5.11,0.33,6.88,0.99c1.76,0.67,3.06,1.49,3.88,2.5c0.83,1.01,1.41,2.28,1.75,3.81
		c0.18,0.95,0.28,2.67,0.28,5.13v7.41c0,5.18,0.12,8.45,0.35,9.83c0.22,1.39,0.69,2.71,1.37,3.98h-5.84
		C774.21,889.16,773.85,887.78,773.69,886.21z M735.74,890.34v-45.47h5.59v45.47H735.74z M719.44,890.34v-45.47h5.59v45.47H719.44z
		 M686.25,870.71h18.35c-0.24-2.77-0.95-4.85-2.11-6.23c-1.77-2.15-4.07-3.23-6.9-3.23c-2.56,0-4.71,0.86-6.46,2.57
		C687.4,865.54,686.44,867.83,686.25,870.71z M704.54,879.67l5.78,0.76c-0.9,3.36-2.58,5.97-5.04,7.82
		c-2.46,1.85-5.59,2.78-9.41,2.78c-4.81,0-8.62-1.48-11.43-4.45c-2.82-2.95-4.22-7.11-4.22-12.46c0-5.53,1.42-9.82,4.27-12.87
		c2.85-3.06,6.54-4.58,11.08-4.58c4.39,0,7.98,1.49,10.76,4.49c2.78,3,4.18,7.21,4.18,12.64c0,0.33-0.01,0.83-0.03,1.48h-24.54
		c0.21,3.61,1.23,6.38,3.07,8.3c1.83,1.92,4.13,2.88,6.87,2.88c2.04,0,3.79-0.54,5.23-1.62
		C702.55,883.76,703.69,882.04,704.54,879.67z M666.08,890.34v-4.9c-2.56,3.74-6.03,5.6-10.43,5.6c-1.94,0-3.75-0.37-5.43-1.11
		c-1.68-0.75-2.93-1.68-3.75-2.81c-0.82-1.13-1.39-2.51-1.71-4.14c-0.22-1.1-0.34-2.84-0.34-5.21v-20.4h5.59v18.24
		c0,2.91,0.12,4.88,0.34,5.89c0.35,1.47,1.09,2.61,2.23,3.45c1.13,0.84,2.53,1.26,4.2,1.26c1.67,0,3.24-0.42,4.7-1.28
		c1.46-0.86,2.5-2.03,3.11-3.5c0.6-1.47,0.91-3.62,0.91-6.42v-17.62h5.59v32.96H666.08z M597.45,890.34v-45.47h6.03v18.73h23.5
		v-18.73h6.03v45.47h-6.03v-21.4h-23.5v21.4H597.45z M544.97,873.87c0,4.21,0.92,7.37,2.76,9.45c1.85,2.1,4.17,3.14,6.98,3.14
		c2.77,0,5.08-1.05,6.93-3.15c1.84-2.11,2.76-5.31,2.76-9.62c0-4.06-0.93-7.14-2.78-9.23c-1.85-2.1-4.16-3.14-6.91-3.14
		c-2.8,0-5.12,1.04-6.98,3.12C545.89,866.52,544.97,869.66,544.97,873.87z M539.25,873.86c0-6.09,1.69-10.59,5.09-13.53
		c2.83-2.43,6.29-3.65,10.36-3.65c4.52,0,8.22,1.48,11.1,4.45c2.87,2.95,4.31,7.05,4.31,12.27c0,4.23-0.63,7.56-1.91,9.98
		c-1.27,2.42-3.12,4.31-5.56,5.65c-2.42,1.34-5.08,2.01-7.95,2.01c-4.61,0-8.34-1.47-11.19-4.42
		C540.67,883.66,539.25,879.4,539.25,873.86z M507.46,873.9c0,4.21,0.89,7.36,2.68,9.44c1.78,2.09,3.88,3.12,6.31,3.12
		c2.45,0,4.52-0.99,6.23-2.98c1.7-1.99,2.56-5.03,2.56-9.11c0-4.49-0.87-7.79-2.61-9.9c-1.74-2.11-3.88-3.15-6.44-3.15
		c-2.49,0-4.56,1.01-6.23,3.03C508.3,866.36,507.46,869.55,507.46,873.9z M525.11,890.34v-4.18c-2.09,3.25-5.15,4.88-9.21,4.88
		c-2.62,0-5.04-0.72-7.23-2.17c-2.2-1.44-3.91-3.46-5.12-6.04c-1.21-2.59-1.81-5.57-1.81-8.93c0-3.28,0.55-6.26,1.64-8.93
		c1.1-2.67,2.74-4.72,4.93-6.14c2.18-1.43,4.64-2.14,7.34-2.14c1.99,0,3.76,0.42,5.3,1.26c1.55,0.84,2.81,1.94,3.78,3.28v-16.35
		h5.59v45.47H525.11z M466.33,890.34v-32.96h5.02v4.68c2.41-3.59,5.91-5.38,10.47-5.38c1.99,0,3.81,0.36,5.47,1.07
		c1.66,0.71,2.91,1.65,3.74,2.8c0.83,1.15,1.41,2.53,1.74,4.12c0.2,1.04,0.31,2.85,0.31,5.43v20.24h-5.59v-20.03
		c0-2.28-0.21-3.98-0.65-5.1c-0.43-1.12-1.21-2.02-2.31-2.7c-1.1-0.67-2.4-1.01-3.88-1.01c-2.37,0-4.41,0.75-6.14,2.27
		c-1.72,1.5-2.58,4.37-2.58,8.58v17.98H466.33z M449.91,873.82c-2.03,0.83-5.08,1.52-9.14,2.1c-2.31,0.33-3.94,0.7-4.89,1.11
		c-0.95,0.41-1.68,1.02-2.2,1.8c-0.52,0.79-0.78,1.67-0.78,2.65c0,1.47,0.56,2.71,1.69,3.69c1.13,0.98,2.78,1.48,4.95,1.48
		c2.15,0,4.06-0.47,5.75-1.41c1.67-0.93,2.91-2.21,3.69-3.83c0.6-1.26,0.9-3.11,0.9-5.56L449.91,873.82z M450.35,886.21
		c-2.07,1.77-4.07,3.01-5.99,3.74c-1.92,0.73-3.97,1.09-6.17,1.09c-3.62,0-6.4-0.88-8.35-2.65c-1.95-1.76-2.92-4.01-2.92-6.75
		c0-1.61,0.37-3.08,1.1-4.41c0.74-1.33,1.7-2.39,2.89-3.2c1.2-0.8,2.53-1.42,4.02-1.83c1.1-0.29,2.76-0.56,4.97-0.84
		c4.51-0.53,7.84-1.17,9.97-1.92c0.02-0.76,0.03-1.25,0.03-1.45c0-2.26-0.53-3.86-1.59-4.79c-1.43-1.26-3.56-1.88-6.37-1.88
		c-2.64,0-4.58,0.47-5.83,1.39c-1.26,0.92-2.18,2.55-2.78,4.9l-5.46-0.76c0.5-2.34,1.31-4.23,2.46-5.67
		c1.14-1.44,2.79-2.54,4.95-3.32c2.15-0.77,4.66-1.16,7.49-1.16c2.82,0,5.11,0.33,6.88,0.99c1.76,0.67,3.06,1.49,3.88,2.5
		c0.83,1.01,1.41,2.28,1.75,3.81c0.18,0.95,0.28,2.67,0.28,5.13v7.41c0,5.18,0.12,8.45,0.35,9.83c0.22,1.39,0.69,2.71,1.37,3.98
		h-5.84C450.87,889.16,450.51,887.78,450.35,886.21z M405.42,903.08l1.03-4.73c1.12,0.29,2,0.43,2.65,0.43
		c1.14,0,1.99-0.38,2.55-1.13c0.56-0.75,0.85-2.65,0.85-5.66v-34.61h5.59v34.73c0,4.05-0.53,6.88-1.59,8.47
		c-1.34,2.06-3.58,3.1-6.7,3.1C408.28,903.67,406.83,903.47,405.42,903.08z M412.49,851.34v-6.48h5.59v6.48H412.49z M379.21,870.71
		h18.35c-0.24-2.77-0.95-4.85-2.11-6.23c-1.77-2.15-4.07-3.23-6.9-3.23c-2.56,0-4.71,0.86-6.46,2.57
		C380.36,865.54,379.4,867.83,379.21,870.71z M397.5,879.67l5.78,0.76c-0.9,3.36-2.58,5.97-5.04,7.82
		c-2.46,1.85-5.59,2.78-9.41,2.78c-4.8,0-8.62-1.48-11.43-4.45c-2.82-2.95-4.22-7.11-4.22-12.46c0-5.53,1.42-9.82,4.27-12.87
		c2.85-3.06,6.54-4.58,11.08-4.58c4.39,0,7.98,1.49,10.76,4.49c2.78,3,4.18,7.21,4.18,12.64c0,0.33-0.01,0.83-0.03,1.48h-24.54
		c0.21,3.61,1.23,6.38,3.07,8.3c1.83,1.92,4.13,2.88,6.87,2.88c2.04,0,3.79-0.54,5.23-1.62
		C395.51,883.76,396.65,882.04,397.5,879.67z M333.7,885h9.69c3,0,5.35-0.28,7.05-0.84c1.7-0.56,3.06-1.34,4.07-2.36
		c1.42-1.43,2.53-3.36,3.32-5.77c0.79-2.41,1.2-5.33,1.2-8.77c0-4.76-0.78-8.43-2.34-10.99c-1.56-2.56-3.45-4.28-5.68-5.14
		c-1.61-0.62-4.2-0.93-7.78-0.93h-9.54V885z M327.66,890.34v-45.47h15.66c3.54,0,6.23,0.21,8.1,0.65c2.6,0.6,4.83,1.69,6.67,3.26
		c2.4,2.03,4.19,4.61,5.38,7.77c1.2,3.15,1.79,6.76,1.79,10.82c0,3.45-0.4,6.51-1.21,9.18c-0.8,2.67-1.84,4.88-3.1,6.63
		c-1.27,1.75-2.65,3.12-4.15,4.12c-1.49,1.01-3.3,1.77-5.42,2.29c-2.13,0.52-4.56,0.77-7.31,0.77H327.66z"/>
</g>
</svg>
