<?xml version="1.0" encoding="utf-8"?>
<!-- Generator: Adobe Illustrator 25.2.1, SVG Export Plug-In . SVG Version: 6.00 Build 0)  -->
<svg version="1.1" id="Capa_1" xmlns="http://www.w3.org/2000/svg" xmlns:xlink="http://www.w3.org/1999/xlink" x="0px" y="0px"
	 viewBox="0 0 1080 1080" style="enable-background:new 0 0 1080 1080;" xml:space="preserve">
<style type="text/css">
	.st0{fill:#B71918;}
</style>
<g>
	<path class="st0" d="M688.3,570.3v62.8c0,29-23.5,52.4-52.4,52.4H395.1c-28.9,0-52.4-23.5-52.4-52.4V358c0-9.7,5.6-18.6,14.3-22.8
		l148-71.4c9.6-4.6,20.7-4.5,30.2,0.3L674.1,334c8.5,4.3,13.9,13,13.9,22.6v98.5H457.9v115.2h21.4c1.1,9.6,9.3,17,19.2,17
		s18-7.4,19.2-17L688.3,570.3L688.3,570.3z"/>
	<path class="st0" d="M786.4,483.6v87.3h-43.5c0-10.6-8.7-19.3-19.3-19.3s-19.3,8.7-19.3,19.3h-15.9V455.1h69.6
		C773.6,455.1,786.4,467.8,786.4,483.6z"/>
	<g>
		<path class="st0" d="M205.1,766c-1-14-5-16.1-11.4-16.1c-7.6,0-11.7,8.3-11.7,27.4s4.1,27.4,11.7,27.4c6.6,0,10.6-1.5,11.5-16.3
			h16.9c-1.5,23.8-12,31.1-28.6,31.1c-18.4,0-29.4-14.4-29.4-42.2c0-27.9,11-42.2,29.4-42.2c16.3,0,26.9,7.8,28.6,30.9L205.1,766
			L205.1,766z"/>
		<path class="st0" d="M461.1,777.1c-0.8-11.1-4-12.8-9.1-12.8c-6,0-9.2,6.6-9.2,21.7c0,15.2,3.2,21.7,9.2,21.7
			c5.3,0,8.4-1.2,9.2-12.9h13.4c-1.2,18.9-9.5,24.7-22.7,24.7c-14.6,0-23.3-11.4-23.3-33.5c0-22.1,8.7-33.5,23.3-33.5
			c13,0,21.4,6.2,22.7,24.5L461.1,777.1L461.1,777.1z"/>
		<path class="st0" d="M229.4,801.9c0-10.1,7.4-15,18.7-20.1c9.3-4.1,12.7-7,12.7-11.3c0-3.3-2.5-5.6-6.3-5.6c-5.2,0-8.5,3.8-9,10.8
			h-15.2c0.8-14,10.6-23.2,24.7-23.2s22.2,7.7,22.2,21.5v44.1h-16.6v-5.5c-3.4,4-8.3,6.3-13.9,6.3
			C236.3,818.9,229.4,812.3,229.4,801.9z M252.6,807.3c3.1,0,6.2-1.4,8-3.7v-11.7l0.1-6c-1.5,1.3-3.4,2.3-6,3.6
			c-6.1,3.3-8.9,5.8-8.9,10.7C245.9,804.5,248.5,807.3,252.6,807.3z"/>
		<path class="st0" d="M286.1,794.9H301c0.9,8.6,4.4,12.6,9.8,12.6c4.8,0,7.1-2.5,7.1-6.1c0-5.4-5.7-7.5-12.1-9.9
			c-8.8-3.3-18.9-7-18.9-19.9c0-10.8,8.3-19,21.8-19c14.6,0,23.1,8.8,24.3,22.6h-14.7c-0.9-7.7-4.5-10.6-9.3-10.6
			c-4,0-6.3,2.5-6.3,5.5c0,4.5,5.2,6.5,11.5,8.9c8.9,3.4,19.7,7.5,19.7,20.9c0,11-8.6,19.7-22.6,19.7
			C297.1,819.5,287.2,811.7,286.1,794.9z"/>
		<path class="st0" d="M341.2,801.9c0-10.1,7.4-15,18.7-20.1c9.3-4.1,12.7-7,12.7-11.3c0-3.3-2.5-5.6-6.3-5.6c-5.2,0-8.5,3.8-9,10.8
			h-15.2c0.8-14,10.6-23.2,24.7-23.2c14.1,0,22.2,7.7,22.2,21.5v44.1h-16.6v-5.5c-3.4,4-8.3,6.3-13.9,6.3
			C348.1,818.9,341.2,812.3,341.2,801.9z M364.5,807.3c3.1,0,6.2-1.4,8-3.7v-11.7l0.1-6c-1.5,1.3-3.4,2.3-6,3.6
			c-6.1,3.3-8.9,5.8-8.9,10.7C357.8,804.5,360.4,807.3,364.5,807.3z"/>
		<path class="st0" d="M481.5,801.9c0-10.1,7.4-15,18.7-20.1c9.3-4.1,12.7-7,12.7-11.3c0-3.3-2.5-5.6-6.3-5.6c-5.2,0-8.5,3.8-9,10.8
			h-15.2c0.8-14,10.6-23.2,24.7-23.2c14.1,0,22.2,7.7,22.2,21.5v44.1h-16.6v-5.5c-3.4,4-8.3,6.3-13.9,6.3
			C488.3,818.9,481.5,812.3,481.5,801.9z M504.7,807.3c3.1,0,6.2-1.4,8.1-3.7v-11.7l0.1-6c-1.5,1.3-3.4,2.3-6,3.6
			c-6.1,3.3-8.9,5.8-8.9,10.7C498,804.5,500.6,807.3,504.7,807.3z"/>
		<path class="st0" d="M868,801.9c0-10.1,7.3-15,18.7-20.1c9.3-4.1,12.7-7,12.7-11.3c0-3.3-2.5-5.6-6.3-5.6c-5.2,0-8.5,3.8-9,10.8
			h-15.2c0.8-14,10.6-23.2,24.7-23.2s22.2,7.7,22.2,21.5v44.1h-16.6v-5.5c-3.4,4-8.3,6.3-13.9,6.3C874.9,818.9,868,812.3,868,801.9z
			 M891.2,807.3c3.2,0,6.2-1.4,8-3.7v-11.7l0.1-6c-1.5,1.3-3.4,2.3-6,3.6c-6.1,3.3-8.9,5.8-8.9,10.7
			C884.6,804.5,887.1,807.3,891.2,807.3z"/>
		<path class="st0" d="M539.5,754.1h16.9v6c3-4.3,7.8-7.2,13.5-7.2c6.2,0,10.8,3,13.3,7.9c3-4.5,8.3-7.9,14.7-7.9c10,0,16,6.9,16,17
			v48.3h-16.8v-46.5c0-4.1-2.2-6.2-5.8-6.2c-2.5,0-4.5,1.2-6.1,3v49.7h-16.9v-46.5c0-4.1-2.1-6.2-5.6-6.2c-2.6,0-4.8,1.3-6.3,3.3
			v49.5h-16.9L539.5,754.1L539.5,754.1z"/>
		<path class="st0" d="M624.5,735.6h16.9v14h-16.9V735.6z M624.5,754.1h16.9v64h-16.9V754.1z"/>
		<path class="st0" d="M650.5,786c0-21.8,9.8-33.5,26.4-33.5s26.4,11.7,26.4,33.5c0,21.7-9.8,33.5-26.4,33.5
			C660.3,819.5,650.5,807.7,650.5,786z M686.3,786c0-14.6-3.3-20.8-9.5-20.8c-6.2,0-9.6,6.2-9.6,20.8s3.4,20.8,9.6,20.8
			C683,806.8,686.3,800.6,686.3,786z"/>
		<path class="st0" d="M712.3,754.1h17v5.5c3.3-4.1,8-6.8,13.9-6.8c10.5,0,17,6.9,17,17v48.3h-17v-45.7c0-4.5-2.6-7-6.8-7
			c-2.8,0-5.4,1.3-7.1,3.5v49.2h-17L712.3,754.1L712.3,754.1z"/>
		<path class="st0" d="M769.4,786c0-21.2,9.9-33.5,26.1-33.5c15,0,25.1,11.5,25.1,33.6v1.4h-34.6c0.2,13.8,3.6,19.7,9.7,19.7
			c5.1,0,8.2-4.3,9.1-13.9h15.5c-1.8,16.9-10.4,26.1-24.7,26.1C779.3,819.5,769.4,807.4,769.4,786z M786.4,777.6h18
			c-1.4-9-4.3-13-8.9-13C790.6,764.7,787.4,768.8,786.4,777.6z"/>
		<path class="st0" d="M829.7,754.1h17v8.5c3.3-6.3,8.6-9.7,15.2-9.7h0.9v16.3c-1.4-0.3-2.9-0.6-4.4-0.6c-4.7,0-9.1,1.8-11.7,5v44.4
			h-17L829.7,754.1L829.7,754.1z"/>
	</g>
</g>
</svg>
