<svg width="36" height="35" viewBox="0 0 36 35" fill="none" xmlns="http://www.w3.org/2000/svg">
<circle cx="13.7901" cy="8.30185" r="6.64847" stroke="black" stroke-width="3"/>
<path d="M23.7617 13.2882C26.5156 13.2882 28.7481 11.0557 28.7481 8.30185C28.7481 5.54796 26.5156 3.3155 23.7617 3.3155" stroke="black" stroke-width="3" stroke-linecap="round"/>
<path d="M8.61949 32.5426C10.1771 32.9849 11.9328 33.2336 13.7901 33.2336C20.2158 33.2336 25.4249 30.257 25.4249 26.5851C25.4249 22.9133 20.2158 19.9367 13.7901 19.9367C7.36436 19.9367 2.15527 22.9133 2.15527 26.5851C2.15527 27.1591 2.28254 27.716 2.52182 28.2473" stroke="black" stroke-width="3" stroke-linecap="round"/>
<path d="M28.749 21.5988C31.6648 22.2382 33.7354 23.8575 33.7354 25.7541C33.7354 27.465 32.0504 28.9502 29.5801 29.694" stroke="black" stroke-width="3" stroke-linecap="round"/>
</svg>
