<svg width="36" height="38" viewBox="0 0 36 38" fill="none" xmlns="http://www.w3.org/2000/svg">
<circle cx="18.1053" cy="19.0829" r="5.12486" stroke="black" stroke-width="3"/>
<path d="M3.86108 16.7582C4.66833 17.2654 5.18774 18.1294 5.18773 19.0828C5.18773 20.0361 4.66832 20.9002 3.86108 21.4074C3.31177 21.7525 2.95785 22.0284 2.70604 22.3565C2.15442 23.0754 1.91097 23.984 2.02924 24.8824C2.11795 25.5561 2.51593 26.2455 3.31189 27.6241C4.10785 29.0028 4.50584 29.6921 5.045 30.1058C5.76388 30.6574 6.67245 30.9009 7.57083 30.7826C7.98088 30.7286 8.39669 30.5601 8.97012 30.257C9.81313 29.8115 10.8213 29.7937 11.647 30.2705C12.4726 30.7472 12.9612 31.6291 12.9968 32.5818C13.0211 33.2301 13.083 33.6745 13.2413 34.0566C13.5881 34.8938 14.2532 35.5589 15.0904 35.9057C15.7182 36.1658 16.5142 36.1658 18.1061 36.1658C19.698 36.1658 20.494 36.1658 21.1219 35.9057C21.959 35.5589 22.6241 34.8938 22.9709 34.0566C23.1292 33.6745 23.1911 33.2301 23.2154 32.5819C23.251 31.6291 23.7396 30.7472 24.5653 30.2705C25.391 29.7938 26.399 29.8116 27.242 30.2571C27.8155 30.5603 28.2313 30.7288 28.6414 30.7828C29.5398 30.9011 30.4483 30.6576 31.1672 30.106C31.7064 29.6923 32.1044 29.003 32.9003 27.6243C33.2547 27.0105 33.5302 26.5334 33.7346 26.1334M32.3511 21.4075C31.5439 20.9004 31.0245 20.0364 31.0244 19.083C31.0243 18.1296 31.5438 17.2654 32.3511 16.7582C32.9003 16.4131 33.2542 16.1372 33.506 15.8091C34.0576 15.0902 34.3011 14.1817 34.1828 13.2833C34.0941 12.6095 33.6961 11.9202 32.9001 10.5415C32.1042 9.16288 31.7062 8.47355 31.167 8.05984C30.4481 7.50822 29.5396 7.26477 28.6412 7.38304C28.2311 7.43703 27.8153 7.60558 27.2418 7.90869C26.3989 8.35421 25.3908 8.37199 24.5651 7.89523C23.7395 7.41852 23.251 6.5367 23.2154 5.58403C23.1912 4.93572 23.1292 4.49128 22.9709 4.10911C22.6241 3.27195 21.959 2.60683 21.1219 2.26007C20.494 2 19.698 2 18.1061 2C16.5142 2 15.7182 2 15.0904 2.26007C14.2532 2.60683 13.5881 3.27195 13.2413 4.10911C13.083 4.49125 13.0211 4.93565 12.9968 5.58388C12.9612 6.53663 12.4726 7.41853 11.6469 7.89524C10.8212 8.37194 9.8132 8.35413 8.97028 7.90862C8.39677 7.6055 7.98093 7.43695 7.57085 7.38296C6.67247 7.26468 5.7639 7.50814 5.04501 8.05975C4.50585 8.47347 4.10787 9.16279 3.31191 10.5414C2.95755 11.1552 2.68207 11.6323 2.47765 12.0323" stroke="black" stroke-width="3" stroke-linecap="round"/>
</svg>
