<svg width="600" height="380" viewBox="0 0 676 432" fill="none" xmlns="http://www.w3.org/2000/svg">
<path d="M652.518 431.186C652.518 431.288 506.542 431.491 326.513 431.491C146.382 431.39 0.40625 431.288 0.40625 431.186C0.40625 431.084 146.382 430.881 326.513 430.881C506.542 430.881 652.518 430.983 652.518 431.186Z" fill="#263238"/>
<path d="M363.414 161.059C363.414 161.059 400.721 170.928 412.411 210.201L396.553 217.221C396.553 217.221 392.894 189.852 355.993 177.948C336.069 171.538 309.537 180.593 302.218 188.936L284.429 181.306C296.424 168.181 325.802 150.783 363.414 161.059Z" fill="#16A571"/>
<path d="M422.577 200.332L383.135 213.355L413.428 228.514L422.577 200.332Z" fill="#16A571"/>
<path d="M316.856 431.186L177.59 431.084C160.817 431.084 147.297 416.739 147.297 399.137L147.399 31.9472C147.399 14.244 161.02 0 177.691 0L316.958 0.101743C333.731 0.101743 347.251 14.4475 347.251 32.049L347.149 399.239C347.251 416.84 333.629 431.186 316.856 431.186Z" fill="#263238"/>
<path d="M316.856 13.1248H289.816C286.157 13.1248 283.209 16.3806 283.209 20.3486V25.5374C283.209 29.5054 280.261 32.7612 276.601 32.7612H223.945C220.285 32.7612 217.439 29.5054 217.439 25.5374V20.3486C217.439 16.3806 214.491 13.1248 210.933 13.1248H201.479H177.895C166.205 13.1248 156.65 23.0956 156.65 35.5082L156.548 393.745C156.548 406.056 166.002 416.128 177.794 416.128L316.755 416.23C328.445 416.23 338 406.259 338 393.846L338.102 35.4065C338.102 23.0956 328.547 13.1248 316.856 13.1248Z" fill="white"/>
<path d="M185.925 387.844V398.323C185.925 399.239 184.909 399.748 184.197 399.341L175.963 394.05C175.252 393.643 175.252 392.524 175.963 392.117L184.197 386.826C185.011 386.419 185.925 386.928 185.925 387.844Z" fill="#E0E0E0"/>
<path d="M253.83 393.032C253.83 397 250.577 400.256 246.613 400.256C242.648 400.256 239.396 397 239.396 393.032C239.396 389.065 242.648 385.809 246.613 385.809C250.577 385.809 253.83 389.065 253.83 393.032Z" fill="#E0E0E0"/>
<path d="M317.364 400.154H307.808C306.792 400.154 305.877 399.341 305.877 398.221V388.658C305.877 387.64 306.69 386.724 307.808 386.724H317.364C318.38 386.724 319.295 387.538 319.295 388.658V398.221C319.194 399.239 318.38 400.154 317.364 400.154Z" fill="#E0E0E0"/>
<path d="M207.069 142.542C210.831 142.542 214.49 142.542 218.251 142.542C217.54 142.033 216.828 141.423 216.117 140.914C217.743 146.306 219.37 151.8 221.098 157.193C223.741 165.841 226.282 174.387 228.925 183.035C229.535 185.07 230.145 187.003 230.755 189.038C231.06 189.954 231.873 190.666 232.89 190.666C243.563 190.666 254.237 190.564 264.911 190.564C266.435 190.564 267.96 190.564 269.485 190.564C272.433 190.564 272.433 186.088 269.485 186.088C258.811 186.088 248.138 186.189 237.464 186.189C235.939 186.189 234.414 186.189 232.89 186.189C233.601 186.698 234.313 187.309 235.024 187.817C233.398 182.425 231.771 176.931 230.043 171.538C227.4 162.89 224.859 154.344 222.216 145.696C221.606 143.661 220.996 141.728 220.386 139.693C220.081 138.777 219.268 138.065 218.251 138.065C214.49 138.065 210.831 138.065 207.069 138.065C204.121 137.963 204.121 142.542 207.069 142.542Z" fill="#263238"/>
<path d="M276.5 148.239C274.365 157.701 272.332 167.163 270.197 176.524C269.892 177.846 269.587 179.271 269.282 180.594C269.79 180.187 270.4 179.78 270.909 179.373C266.334 179.373 261.76 179.271 257.185 179.271C249.866 179.169 242.547 179.169 235.228 179.067C233.601 179.067 231.873 179.067 230.247 179.067C230.755 179.474 231.365 179.881 231.873 180.288C228.925 170.928 225.977 161.568 223.029 152.207C222.623 150.885 222.216 149.562 221.81 148.239C221.301 148.951 220.691 149.664 220.183 150.376C226.689 150.376 233.296 150.376 239.802 150.376C250.171 150.376 260.54 150.376 270.909 150.376C273.348 150.376 275.686 150.376 278.126 150.376C280.261 150.376 280.261 147.018 278.126 147.018C271.62 147.018 265.013 147.018 258.507 147.018C248.138 147.018 237.769 147.018 227.401 147.018C224.961 147.018 222.623 147.018 220.183 147.018C219.167 147.018 218.252 148.138 218.557 149.155C221.505 158.515 224.453 167.876 227.401 177.236C227.807 178.559 228.214 179.881 228.62 181.204C228.824 181.916 229.535 182.425 230.247 182.425C234.821 182.425 239.396 182.527 243.97 182.527C251.289 182.628 258.608 182.628 265.927 182.73C267.554 182.73 269.282 182.73 270.909 182.73C271.62 182.73 272.332 182.221 272.535 181.509C274.67 172.047 276.703 162.585 278.838 153.225C279.143 151.902 279.447 150.478 279.752 149.155C280.261 147.018 277.008 146.103 276.5 148.239Z" fill="#263238"/>
<path d="M231.771 149.765C233.601 160.143 235.838 170.317 237.566 180.695C237.972 182.832 241.225 181.916 240.819 179.78C238.989 169.402 236.752 159.228 235.024 148.85C234.618 146.713 231.365 147.629 231.771 149.765Z" fill="#263238"/>
<path d="M249.561 149.257C249.764 159.838 249.967 170.419 250.069 181C250.069 183.137 253.525 183.137 253.423 181C253.22 170.419 253.017 159.838 252.915 149.257C252.915 147.12 249.561 147.12 249.561 149.257Z" fill="#263238"/>
<path d="M266.131 181.407C267.554 172.047 268.977 162.585 270.4 153.225C270.604 151.902 270.807 150.579 271.01 149.155C271.112 148.239 270.807 147.324 269.79 147.12C268.977 146.917 267.859 147.425 267.757 148.341C266.334 157.701 264.911 167.163 263.488 176.524C263.285 177.846 263.081 179.169 262.878 180.594C262.776 181.509 263.081 182.425 264.098 182.628C264.809 182.832 265.927 182.323 266.131 181.407Z" fill="#263238"/>
<path d="M223.944 160.347C241.022 160.347 258.1 160.347 275.076 160.347C277.211 160.347 277.211 156.989 275.076 156.989C257.998 156.989 240.92 156.989 223.944 156.989C221.708 156.887 221.708 160.347 223.944 160.347Z" fill="#263238"/>
<path d="M228.721 172.251C243.461 172.251 258.303 172.251 273.042 172.251C275.177 172.251 275.177 168.893 273.042 168.893C258.303 168.893 243.461 168.893 228.721 168.893C226.485 168.791 226.485 172.251 228.721 172.251Z" fill="#263238"/>
<path d="M269.383 205.419C272.696 205.419 275.381 202.731 275.381 199.416C275.381 196.101 272.696 193.413 269.383 193.413C266.071 193.413 263.386 196.101 263.386 199.416C263.386 202.731 266.071 205.419 269.383 205.419Z" fill="#263238"/>
<path d="M236.244 205.419C239.556 205.419 242.241 202.731 242.241 199.416C242.241 196.101 239.556 193.413 236.244 193.413C232.931 193.413 230.246 196.101 230.246 199.416C230.246 202.731 232.931 205.419 236.244 205.419Z" fill="#263238"/>
<path d="M224.757 118.327C224.757 118.327 199.953 117.513 185.519 139.489L193.956 146.713C193.956 146.713 201.275 130.536 226.18 130.027C239.7 129.722 248.951 137.658 251.899 144.068L267.248 143.763C262.267 133.588 249.764 118.937 224.757 118.327Z" fill="#16A571"/>
<path d="M182.164 132.367L204.02 147.629L184.197 151.699L182.164 132.367Z" fill="#16A571"/>
<path d="M326.818 50.8714C326.818 52.1941 325.7 53.3132 324.378 53.3132C323.057 53.3132 321.938 52.1941 321.938 50.8714C321.938 49.5488 323.057 48.4296 324.378 48.4296C325.7 48.3278 326.818 49.447 326.818 50.8714Z" fill="#263238"/>
<path d="M324.378 60.0283C325.726 60.0283 326.818 58.935 326.818 57.5864C326.818 56.2379 325.726 55.1446 324.378 55.1446C323.031 55.1446 321.938 56.2379 321.938 57.5864C321.938 58.935 323.031 60.0283 324.378 60.0283Z" fill="#263238"/>
<path d="M324.378 66.7433C325.726 66.7433 326.818 65.65 326.818 64.3014C326.818 62.9529 325.726 61.8596 324.378 61.8596C323.031 61.8596 321.938 62.9529 321.938 64.3014C321.938 65.65 323.031 66.7433 324.378 66.7433Z" fill="#263238"/>
<path d="M177.895 49.6505L167.831 57.1795H170.474V66.2346H175.862V59.5196L180.131 59.4178V66.2346H185.316V57.0777H187.959L177.895 49.6505Z" fill="#263238"/>
<path d="M338.712 75.6966C338.712 75.7984 297.745 76.0019 247.325 76.0019C196.802 76.0019 155.938 75.9001 155.938 75.6966C155.938 75.5949 196.904 75.3914 247.325 75.3914C297.847 75.3914 338.712 75.4932 338.712 75.6966Z" fill="#E0E0E0"/>
<path d="M245.393 345.213H243.767C238.277 345.213 233.805 340.737 233.805 335.243V255.069C233.805 249.575 238.277 245.098 243.767 245.098H245.393C250.883 245.098 255.355 249.575 255.355 255.069V335.243C255.355 340.737 250.883 345.213 245.393 345.213Z" fill="#E0E0E0"/>
<path d="M286.563 297.496C286.563 316.624 271.01 332.19 251.899 332.19C249.865 332.19 247.832 331.987 245.799 331.682C229.535 328.833 217.133 314.691 217.133 297.598C217.133 278.47 232.686 262.903 251.797 262.903C270.908 262.802 286.461 278.368 286.563 297.496Z" fill="#A59F16"/>
<path d="M279.243 297.903C279.243 312.452 267.451 324.356 252.813 324.356C238.175 324.356 226.281 312.554 226.281 298.005C226.281 283.455 238.073 271.552 252.711 271.552C267.35 271.45 279.243 283.252 279.243 297.903Z" fill="#A59F16"/>
<path d="M278.227 297.496C278.227 297.496 278.227 297.394 278.227 297.089C278.227 296.784 278.125 296.377 278.125 295.868C278.125 295.563 278.125 295.258 278.023 294.952C278.023 294.647 277.922 294.24 277.82 293.833C277.718 293.019 277.515 292.104 277.21 291.086C276.702 289.051 275.787 286.609 274.262 284.066C272.737 281.522 270.501 278.877 267.553 276.639C264.605 274.4 260.844 272.569 256.473 271.755C252.203 271.043 247.324 271.145 242.749 272.874C241.529 273.281 240.513 273.79 239.293 274.4C238.785 274.706 238.175 275.011 237.667 275.418C237.158 275.723 236.548 276.13 236.04 276.537C235.024 277.249 234.007 278.165 233.092 279.081C232.177 280.098 231.262 281.014 230.551 282.133C229.026 284.269 227.603 286.711 226.79 289.357C225.976 292.002 225.468 294.749 225.468 297.598C225.468 300.447 225.976 303.194 226.79 305.839C227.603 308.484 229.026 310.926 230.551 313.063C231.262 314.182 232.279 315.097 233.092 316.115C234.109 317.031 235.024 317.946 236.04 318.658C237.057 319.472 238.175 320.083 239.293 320.693C240.411 321.202 241.529 321.813 242.749 322.219C247.324 323.949 252.203 324.051 256.473 323.339C260.844 322.525 264.503 320.693 267.553 318.455C270.501 316.217 272.737 313.571 274.262 311.028C275.787 308.484 276.702 306.042 277.21 304.007C277.515 302.99 277.617 302.074 277.718 301.26C277.82 300.853 277.82 300.447 277.922 300.141C277.922 299.836 277.922 299.531 278.023 299.226C278.023 298.717 278.125 298.31 278.125 298.005C278.227 297.699 278.227 297.496 278.227 297.496C278.227 297.496 278.227 297.598 278.227 297.903C278.227 298.208 278.227 298.615 278.227 299.124C278.227 299.429 278.227 299.734 278.227 300.04C278.227 300.345 278.125 300.752 278.125 301.159C278.023 301.973 277.922 302.888 277.617 303.906C277.21 305.941 276.193 308.382 274.77 311.028C273.245 313.571 271.009 316.318 268.061 318.658C265.012 320.897 261.25 322.932 256.879 323.644C252.508 324.458 247.527 324.356 242.851 322.525C241.631 322.118 240.513 321.609 239.395 320.999C238.276 320.388 237.158 319.778 236.142 318.862C235.024 318.15 234.109 317.234 233.092 316.318C232.177 315.301 231.262 314.385 230.449 313.266C228.823 311.028 227.501 308.586 226.586 305.941C225.671 303.295 225.265 300.446 225.163 297.496C225.163 294.545 225.671 291.697 226.586 289.051C227.399 286.304 228.823 283.862 230.449 281.726C231.262 280.607 232.177 279.589 233.092 278.674C234.109 277.758 235.024 276.842 236.142 276.13C236.65 275.723 237.158 275.316 237.768 275.011C238.276 274.706 238.886 274.299 239.395 273.993C240.513 273.485 241.631 272.874 242.851 272.467C247.527 270.738 252.508 270.534 256.879 271.348C261.25 272.162 265.113 274.095 268.061 276.333C271.111 278.674 273.245 281.319 274.77 283.862C276.295 286.406 277.21 288.848 277.718 290.984C278.023 292.002 278.125 292.918 278.227 293.731C278.328 294.138 278.328 294.545 278.328 294.851C278.328 295.156 278.328 295.461 278.328 295.766C278.328 296.275 278.328 296.682 278.328 296.987C278.328 297.394 278.227 297.496 278.227 297.496Z" fill="#263238"/>
<g opacity="0.3">
<path d="M278.024 297.801C277.821 297.801 277.719 296.682 277.313 294.647C276.906 292.612 276.093 289.764 274.263 286.508C273.348 284.88 272.23 283.252 270.807 281.726C269.384 280.2 267.655 278.674 265.622 277.351C264.606 276.74 263.589 276.13 262.471 275.621C261.353 275.113 260.133 274.604 258.913 274.299C257.693 273.993 256.372 273.688 255.05 273.485C253.729 273.281 252.407 273.281 250.984 273.281C249.663 273.383 248.239 273.485 246.918 273.688C245.596 273.892 244.377 274.299 243.157 274.706C241.937 275.113 240.819 275.723 239.701 276.232C238.582 276.842 237.566 277.453 236.651 278.165C234.719 279.589 233.093 281.217 231.771 282.845C230.45 284.473 229.433 286.203 228.62 287.83C226.994 291.086 226.384 294.037 226.079 296.173C225.774 298.208 225.774 299.429 225.571 299.429C225.469 299.429 225.266 298.31 225.266 296.173C225.367 294.037 225.774 290.883 227.299 287.322C228.01 285.592 229.128 283.659 230.45 281.828C231.771 279.996 233.5 278.267 235.533 276.639C236.549 275.825 237.667 275.113 238.786 274.502C240.005 273.892 241.225 273.281 242.547 272.772C243.868 272.264 245.19 271.857 246.613 271.653C248.036 271.348 249.459 271.246 250.984 271.145C252.509 271.145 253.932 271.145 255.355 271.348C256.778 271.552 258.202 271.857 259.523 272.264C260.845 272.671 262.166 273.179 263.386 273.688C264.606 274.299 265.724 274.909 266.842 275.621C268.977 277.046 270.807 278.674 272.23 280.403C273.653 282.133 274.873 283.964 275.686 285.694C277.414 289.153 278.024 292.205 278.227 294.342C278.329 296.58 278.227 297.801 278.024 297.801Z" fill="black"/>
</g>
<g opacity="0.3">
<path d="M254.847 313.368L254.949 317.946L250.882 318.048L250.781 313.571C246.715 313.368 242.75 312.147 240.514 310.417L242.648 305.33C244.681 306.856 247.731 307.874 250.679 308.179L250.577 301.26C246.003 300.243 240.819 298.819 240.819 292.918C240.717 288.543 243.868 284.778 250.374 283.862L250.272 279.284L254.339 279.182L254.44 283.659C257.49 283.862 260.54 284.676 262.878 285.999L260.946 291.086C258.811 289.967 256.677 289.255 254.644 289.051L254.745 296.072C259.32 297.089 264.402 298.513 264.504 304.313C264.301 308.688 261.251 312.452 254.847 313.368ZM250.374 295.156L250.272 289.357C248.138 289.865 247.223 291.086 247.324 292.409C247.324 293.935 248.544 294.647 250.374 295.156ZM257.693 305.025C257.693 303.601 256.473 302.787 254.644 302.278L254.745 307.975C256.778 307.467 257.693 306.348 257.693 305.025Z" fill="black"/>
</g>
<path d="M232.991 249.066H192.939V338.804H232.991V249.066Z" fill="white"/>
<path d="M455.512 289.662C459.985 309.603 447.38 329.443 427.354 333.92C425.219 334.429 422.983 334.734 420.848 334.836C403.16 335.65 386.997 323.746 383.032 305.941C378.56 285.999 391.165 266.159 411.191 261.683C431.217 257.104 451.039 269.72 455.512 289.662Z" fill="#A58516"/>
<path d="M447.99 291.697C451.344 306.958 441.789 322.016 426.541 325.475C411.293 328.935 396.146 319.269 392.792 304.109C389.437 288.848 398.993 273.79 414.241 270.331C429.489 266.973 444.534 276.537 447.99 291.697Z" fill="#A58516"/>
<path d="M446.871 291.595C446.871 291.595 446.769 291.493 446.769 291.188C446.668 290.883 446.566 290.476 446.363 289.865C446.261 289.56 446.159 289.255 446.058 288.95C445.956 288.644 445.753 288.237 445.651 287.83C445.346 287.016 444.94 286.101 444.431 285.083C443.415 283.049 441.89 280.81 439.755 278.47C437.621 276.13 434.673 273.892 431.013 272.264C427.353 270.636 423.084 269.517 418.408 269.72C413.732 269.924 408.751 271.246 404.38 274.095C403.261 274.807 402.245 275.621 401.127 276.435C400.618 276.842 400.11 277.351 399.704 277.86C399.195 278.267 398.789 278.877 398.28 279.386C397.365 280.403 396.552 281.522 395.739 282.743C395.027 283.964 394.316 285.185 393.808 286.508C392.689 289.153 391.775 291.9 391.571 294.851C391.266 297.801 391.47 300.854 392.08 303.804C392.791 306.755 393.909 309.603 395.434 312.147C396.959 314.691 398.89 316.929 401.025 318.76C402.042 319.778 403.261 320.49 404.38 321.304C405.599 322.016 406.819 322.728 408.039 323.237C409.259 323.847 410.581 324.254 411.902 324.661C413.224 324.967 414.545 325.272 415.765 325.475C420.949 326.187 426.032 325.272 430.403 323.44C434.774 321.609 438.23 318.76 440.772 315.81C443.313 312.757 445.041 309.502 446.058 306.449C447.074 303.397 447.481 300.752 447.481 298.513C447.583 297.394 447.481 296.377 447.379 295.563C447.379 295.156 447.379 294.749 447.278 294.342C447.176 293.935 447.176 293.63 447.074 293.325C446.973 292.714 446.973 292.307 446.871 292.002C446.871 291.798 446.871 291.595 446.871 291.595C446.871 291.595 446.871 291.697 446.973 292.002C447.074 292.307 447.074 292.816 447.278 293.325C447.379 293.63 447.379 293.935 447.481 294.342C447.481 294.749 447.583 295.054 447.583 295.563C447.684 296.377 447.786 297.394 447.684 298.513C447.684 300.752 447.278 303.499 446.363 306.551C445.346 309.603 443.72 312.961 441.077 316.013C438.434 319.065 434.978 322.016 430.606 323.847C426.235 325.679 421.051 326.696 415.765 325.984C414.443 325.882 413.122 325.475 411.8 325.17C410.479 324.763 409.157 324.356 407.938 323.746C406.616 323.237 405.396 322.525 404.176 321.813C402.956 320.999 401.838 320.185 400.72 319.167C398.585 317.234 396.552 314.996 395.027 312.35C393.503 309.807 392.283 306.856 391.571 303.906C390.961 300.854 390.758 297.801 391.063 294.749C391.266 291.697 392.181 288.848 393.299 286.203C393.808 284.88 394.621 283.659 395.332 282.336C396.146 281.217 396.959 279.996 397.874 278.979C398.28 278.47 398.789 277.961 399.297 277.453C399.805 276.944 400.313 276.435 400.822 276.028C401.94 275.214 402.956 274.299 404.075 273.586C408.547 270.636 413.732 269.313 418.408 269.11C423.186 268.906 427.557 270.025 431.216 271.755C434.876 273.485 437.824 275.723 439.959 278.063C442.093 280.403 443.72 282.743 444.635 284.778C445.143 285.796 445.55 286.711 445.855 287.525C445.956 287.932 446.159 288.339 446.261 288.644C446.363 288.95 446.464 289.357 446.464 289.56C446.566 290.069 446.668 290.577 446.769 290.883C446.871 291.391 446.871 291.595 446.871 291.595Z" fill="#263238"/>
<g opacity="0.3">
<path d="M446.77 291.9C446.566 291.9 446.261 290.781 445.347 288.746C444.432 286.711 442.907 283.862 440.264 281.014C438.942 279.589 437.417 278.165 435.486 276.842C433.656 275.52 431.522 274.4 429.082 273.485C427.862 273.078 426.642 272.671 425.321 272.366C423.999 272.06 422.678 271.857 421.254 271.857C419.831 271.755 418.51 271.755 417.087 271.959C415.663 272.06 414.24 272.366 412.817 272.671C411.394 273.078 410.073 273.485 408.751 274.095C407.43 274.706 406.21 275.316 405.091 276.028C403.872 276.74 402.855 277.554 401.839 278.47C400.822 279.284 399.907 280.301 399.094 281.217C397.467 283.15 396.146 285.185 395.129 287.22C394.113 289.255 393.401 291.29 392.995 293.223C392.08 296.987 392.181 300.243 392.283 302.481C392.486 304.72 392.69 305.941 392.486 305.941C392.385 305.941 391.876 304.821 391.47 302.583C391.063 300.345 390.758 296.987 391.47 292.918C391.876 290.883 392.486 288.746 393.503 286.508C394.519 284.269 395.841 282.031 397.569 279.996C398.484 278.979 399.399 277.961 400.517 276.944C401.635 276.028 402.753 275.113 403.973 274.299C405.193 273.485 406.515 272.772 407.938 272.162C409.361 271.552 410.784 271.043 412.309 270.636C413.834 270.229 415.359 270.025 416.883 269.822C418.408 269.72 419.933 269.72 421.458 269.822C422.983 269.924 424.406 270.127 425.829 270.432C427.252 270.738 428.574 271.145 429.793 271.653C432.335 272.671 434.571 273.993 436.503 275.418C438.434 276.842 440.061 278.47 441.382 280.098C444.025 283.252 445.346 286.406 446.058 288.543C446.77 290.679 446.871 291.9 446.77 291.9Z" fill="black"/>
</g>
<g opacity="0.3">
<path d="M426.134 313.571L427.252 318.353L422.982 319.371L421.864 314.691C417.595 315.403 413.224 315.097 410.377 313.775L411.496 307.976C414.037 309.095 417.391 309.502 420.543 308.993L418.815 301.871C413.834 301.871 408.141 301.566 406.616 295.461C405.498 290.883 407.938 286.203 414.444 283.862L413.325 279.081L417.595 278.063L418.713 282.743C421.966 282.235 425.32 282.336 428.065 283.252L427.15 289.051C424.711 288.339 422.271 288.136 420.034 288.339L421.763 295.665C426.744 295.665 432.335 295.97 433.859 301.973C434.978 306.449 432.64 311.13 426.134 313.571ZM417.29 295.665L415.867 289.56C413.732 290.577 413.122 292.104 413.427 293.528C413.834 294.952 415.257 295.461 417.29 295.665ZM427.15 304.211C426.744 302.685 425.32 302.176 423.389 301.973L424.812 307.874C426.744 306.958 427.455 305.534 427.15 304.211Z" fill="black"/>
</g>
<path d="M375.409 273.383C365.752 293.935 341.152 302.787 320.516 293.019C318.279 292.002 316.145 290.781 314.213 289.357C298.152 278.063 292.053 256.494 300.693 238.18C310.35 217.628 334.951 208.776 355.485 218.544C376.222 228.311 385.066 252.831 375.409 273.383Z" fill="#99A516"/>
<path d="M367.379 270.127C359.958 285.796 341.254 292.511 325.599 285.083C309.944 277.656 303.133 258.935 310.554 243.267C317.975 227.599 336.679 220.884 352.334 228.311C367.989 235.738 374.698 254.459 367.379 270.127Z" fill="#99A516"/>
<path d="M366.565 269.211C366.565 269.211 366.565 269.008 366.769 268.703C366.87 268.398 367.074 267.889 367.277 267.278C367.379 266.973 367.582 266.668 367.684 266.261C367.785 265.854 367.887 265.447 368.09 264.938C368.395 264.023 368.7 263.005 368.903 261.683C369.412 259.241 369.615 256.188 369.31 252.627C369.005 249.168 367.887 245.2 365.854 241.232C363.821 237.366 360.669 233.398 356.502 230.447C352.232 227.497 346.946 225.157 341.152 224.75C339.729 224.546 338.204 224.648 336.679 224.648C335.967 224.648 335.154 224.75 334.443 224.852C333.731 224.953 332.918 225.055 332.206 225.259C330.681 225.462 329.258 225.971 327.733 226.48C326.31 227.09 324.785 227.599 323.464 228.413C320.719 229.939 317.975 231.872 315.84 234.212C313.604 236.552 311.672 239.401 310.249 242.351C308.826 245.404 307.911 248.659 307.504 251.915C307.098 255.171 307.301 258.427 307.911 261.581C308.216 263.107 308.724 264.633 309.131 266.159C309.741 267.584 310.249 269.008 311.062 270.331C311.774 271.755 312.689 272.976 313.502 274.197C314.417 275.316 315.332 276.537 316.45 277.554C320.516 281.726 325.7 284.371 330.681 285.796C335.662 287.118 340.644 287.016 345.015 286.203C349.386 285.287 353.045 283.557 355.993 281.624C358.941 279.691 361.178 277.554 362.702 275.621C363.516 274.706 364.126 273.79 364.634 272.976C364.939 272.569 365.142 272.264 365.345 271.857C365.549 271.552 365.752 271.145 365.854 270.941C366.159 270.432 366.362 269.924 366.565 269.618C366.464 269.313 366.464 269.211 366.565 269.211C366.565 269.211 366.464 269.415 366.362 269.72C366.159 270.025 365.955 270.534 365.65 271.043C365.549 271.348 365.345 271.653 365.142 272.06C364.939 272.366 364.634 272.772 364.431 273.179C363.922 273.993 363.312 274.909 362.499 275.927C360.974 277.961 358.738 280.098 355.79 282.133C352.842 284.168 349.081 285.897 344.71 286.915C340.339 287.83 335.256 288.034 330.173 286.61C325.09 285.185 319.804 282.642 315.637 278.267C314.518 277.249 313.604 276.028 312.689 274.909C311.875 273.688 310.859 272.366 310.249 271.043C309.436 269.72 308.927 268.194 308.317 266.77C307.809 265.244 307.301 263.717 307.098 262.09C306.488 258.935 306.284 255.578 306.691 252.22C307.098 248.863 308.013 245.607 309.436 242.453C310.96 239.401 312.892 236.552 315.23 234.11C317.466 231.668 320.211 229.735 323.057 228.107C324.48 227.293 326.005 226.683 327.428 226.073C328.953 225.564 330.478 225.055 332.003 224.852C332.816 224.648 333.528 224.546 334.341 224.445C335.154 224.343 335.866 224.241 336.679 224.241C338.204 224.241 339.729 224.139 341.152 224.343C347.149 224.852 352.435 227.192 356.807 230.244C361.178 233.296 364.227 237.366 366.26 241.334C368.293 245.302 369.31 249.372 369.615 252.933C369.92 256.494 369.717 259.546 369.107 261.988C368.903 263.209 368.598 264.328 368.293 265.244C368.192 265.752 367.988 266.159 367.887 266.464C367.684 266.871 367.582 267.177 367.48 267.482C367.277 268.092 367.074 268.499 366.87 268.805C366.565 269.11 366.565 269.211 366.565 269.211Z" fill="#263238"/>
<g opacity="0.3">
<path d="M366.159 269.415C365.955 269.313 366.464 267.991 367.074 265.651C367.582 263.31 368.293 259.749 367.887 255.374C367.684 253.238 367.379 250.898 366.565 248.456C365.854 246.014 364.736 243.572 363.211 241.13C362.499 239.91 361.584 238.79 360.669 237.671C359.754 236.552 358.636 235.433 357.518 234.415C356.4 233.398 355.18 232.482 353.757 231.567C352.435 230.753 351.012 229.939 349.487 229.328C347.963 228.718 346.438 228.209 344.913 227.802C343.388 227.395 341.863 227.192 340.339 226.988C338.814 226.785 337.289 226.785 335.866 226.886C334.341 226.988 332.918 227.192 331.596 227.395C328.852 227.904 326.31 228.82 323.972 229.939C321.736 231.058 319.703 232.381 318.076 233.703C314.722 236.45 312.587 239.299 311.164 241.334C309.842 243.369 309.131 244.59 309.029 244.59C308.927 244.488 309.232 243.165 310.351 240.927C311.469 238.689 313.502 235.535 316.958 232.482C318.686 230.956 320.719 229.532 323.057 228.209C325.395 226.988 328.14 225.869 331.088 225.259C332.613 224.953 334.138 224.648 335.662 224.546C337.289 224.445 338.915 224.445 340.542 224.546C342.168 224.648 343.896 224.953 345.523 225.36C347.149 225.767 348.776 226.378 350.402 226.988C352.029 227.7 353.554 228.514 354.977 229.43C356.4 230.346 357.721 231.363 358.941 232.482C360.161 233.602 361.279 234.822 362.296 236.043C363.312 237.264 364.227 238.587 364.939 239.91C366.464 242.555 367.582 245.2 368.293 247.846C369.005 250.491 369.31 252.933 369.412 255.273C369.513 259.851 368.598 263.514 367.785 265.854C367.074 268.296 366.26 269.517 366.159 269.415Z" fill="black"/>
</g>
<g opacity="0.3">
<path d="M333.324 274.299L331.088 279.284L326.615 277.249L328.851 272.366C324.582 270.127 320.922 266.77 319.397 263.819L324.277 259.444C325.802 262.09 328.445 264.735 331.494 266.566L334.849 259.139C330.478 255.68 325.7 251.508 328.546 245.2C330.681 240.52 335.967 237.976 343.388 240.418L345.624 235.433L350.097 237.468L347.861 242.351C351.114 244.183 353.96 246.523 355.688 249.168L351.012 253.645C349.284 251.305 347.352 249.473 345.218 248.252L341.761 255.781C346.132 259.139 350.91 263.31 348.064 269.618C345.929 274.197 340.643 276.639 333.324 274.299ZM337.797 252.627L340.643 246.319C338 245.811 336.475 246.625 335.865 248.151C335.154 249.575 336.069 251.101 337.797 252.627ZM340.542 266.77C341.253 265.244 340.338 263.819 338.712 262.191L335.967 268.296C338.407 268.906 339.932 268.194 340.542 266.77Z" fill="black"/>
</g>
<path d="M114.158 202.875C102.264 209.081 93.1154 219.663 86.6095 231.363C80.002 243.064 75.8342 255.883 71.6664 268.601L68.0068 334.327C81.8318 310.723 93.0138 283.048 95.9617 255.781C92.9121 255.476 89.8625 255.273 86.7112 254.967C92.9121 254.052 98.0965 249.575 101.349 244.183C104.602 238.892 106.33 232.788 108.059 226.683C104.297 227.192 100.536 227.802 96.775 228.311C105.517 222.613 111.921 213.253 114.158 202.875Z" fill="#455A64"/>
<g opacity="0.3">
<path d="M114.158 202.875C102.264 209.081 93.1154 219.663 86.6095 231.363C80.002 243.064 75.8342 255.883 71.6664 268.601L68.0068 334.327C81.8318 310.723 93.0138 283.048 95.9617 255.781C92.9121 255.476 89.8625 255.273 86.7112 254.967C92.9121 254.052 98.0965 249.575 101.349 244.183C104.602 238.892 106.33 232.788 108.059 226.683C104.297 227.192 100.536 227.802 96.775 228.311C105.517 222.613 111.921 213.253 114.158 202.875Z" fill="black"/>
</g>
<path d="M65.8717 349.792C65.8717 349.792 35.7821 313.775 36.1887 279.386H48.2855C48.2855 279.386 35.0705 270.738 36.087 265.854C37.1036 260.97 37.5102 242.555 37.5102 242.555L48.5905 245.302C48.5905 245.302 40.2548 241.13 39.2383 234.517C38.2218 227.904 41.678 197.381 41.678 197.381C41.678 197.381 55.198 211.625 59.3658 226.174C63.5336 240.723 74.4106 257.816 71.2594 302.278C68.1081 346.74 65.8717 349.792 65.8717 349.792Z" fill="#455A64"/>
<path d="M81.1199 353.251C81.1199 353.251 113.649 331.58 120.968 303.804L111.21 301.159C111.21 301.159 123.713 297.089 123.916 292.918C124.12 288.746 127.881 273.892 127.881 273.892L118.325 273.688C118.325 273.688 125.949 272.162 128.186 267.075C130.422 261.988 134.387 236.654 134.387 236.654C134.387 236.654 120.358 245.098 113.853 255.985C107.347 266.77 94.8432 278.063 87.6257 314.487C80.4083 350.911 81.1199 353.251 81.1199 353.251Z" fill="#455A64"/>
<path d="M49.9121 228.82C49.9121 228.82 49.9121 228.921 50.0138 229.227C50.1154 229.532 50.1154 229.837 50.3187 230.346C50.522 231.363 50.827 232.788 51.2336 234.619C51.6402 236.45 52.1485 238.79 52.6568 241.436C53.165 244.081 53.775 247.133 54.3849 250.491C55.7064 257.206 57.0279 265.142 58.4511 273.993C59.7726 282.845 61.1957 292.714 62.3139 302.99C63.5338 313.266 64.4487 323.135 65.1602 332.089C65.8718 341.042 66.2784 349.181 66.5834 355.896C66.7867 359.254 66.7867 362.408 66.8884 365.053C66.99 367.8 66.99 370.039 67.0917 371.972C67.0917 373.803 67.0917 375.329 67.0917 376.347C67.0917 376.855 67.0917 377.161 67.0917 377.466C67.0917 377.771 67.0917 377.873 67.0917 377.873C67.0917 377.873 67.0917 377.771 67.0917 377.466C67.0917 377.161 67.0917 376.855 66.99 376.347C66.99 375.329 66.8884 373.803 66.8884 371.972C66.8884 370.039 66.7867 367.698 66.685 365.053C66.5834 362.306 66.4817 359.254 66.2784 355.896C65.9735 349.08 65.4652 341.042 64.7536 332.089C64.042 323.135 63.1272 313.266 61.9073 302.99C60.6875 292.714 59.3659 282.947 58.0444 273.993C56.7229 265.142 55.4014 257.104 54.0799 250.491C53.47 247.133 52.8601 244.081 52.3518 241.436C51.8435 238.79 51.4369 236.45 51.0303 234.619C50.6237 232.788 50.4204 231.363 50.2171 230.346C50.1154 229.837 50.0138 229.532 50.0138 229.227C49.9121 229.023 49.9121 228.82 49.9121 228.82Z" fill="#263238"/>
<path d="M61.7041 371.87C61.7041 371.87 34.1558 340.635 25.6168 321.711L32.0211 318.964C27.345 319.778 22.5672 317.743 18.9077 314.69C15.2481 311.638 12.6051 307.67 9.96211 303.702L18.5011 302.278C10.877 300.04 4.06617 294.749 0 287.83C10.0638 289.458 19.111 294.952 26.5317 301.871C32.631 307.467 37.7137 313.877 42.5931 320.592C45.0328 323.847 47.0659 327.307 48.8956 330.868C53.5717 340.431 61.7041 360.373 61.7041 371.87Z" fill="#455A64"/>
<path d="M121.273 254.866C121.273 254.866 121.273 254.967 121.172 255.171C121.07 255.374 120.968 255.68 120.765 256.087C120.359 256.901 119.85 258.122 119.037 259.546C117.512 262.496 115.479 266.871 112.938 272.366C110.396 277.758 107.448 284.269 104.297 291.493C101.146 298.717 97.893 306.755 94.5384 315.301C91.2855 323.847 88.3375 331.987 85.6945 339.414C83.1531 346.943 80.9168 353.658 79.1886 359.356C77.4605 365.053 76.0374 369.733 75.1225 372.887C74.6142 374.515 74.3092 375.736 74.0043 376.55C73.9026 376.957 73.801 377.262 73.6993 377.466C73.5977 377.669 73.5977 377.771 73.5977 377.771C73.5977 377.771 73.5977 377.669 73.6993 377.466C73.801 377.262 73.801 376.855 73.9026 376.448C74.1059 375.533 74.5125 374.312 74.9192 372.684C75.7324 369.428 77.1555 364.85 78.8837 359.05C80.6118 353.353 82.7465 346.536 85.2879 339.007C87.8292 331.478 90.7772 323.339 94.0301 314.792C97.2831 306.246 100.638 298.208 103.789 290.984C106.94 283.761 109.888 277.249 112.531 271.857C115.073 266.464 117.207 262.089 118.834 259.139C119.545 257.715 120.155 256.494 120.562 255.68C120.765 255.273 120.867 255.069 121.07 254.764C121.273 254.967 121.273 254.866 121.273 254.866Z" fill="#263238"/>
<path d="M64.0417 385.3C64.0417 385.3 63.94 385.097 63.94 384.69C63.8384 384.283 63.7367 383.672 63.6351 383.062C63.5334 382.349 63.4318 381.434 63.2284 380.416C63.0251 379.399 62.8218 378.28 62.6185 376.957C62.1102 374.414 61.3987 371.361 60.4838 368.105C59.5689 364.748 58.4507 361.187 57.0275 357.422C55.6044 353.658 54.0796 350.199 52.5548 347.146C51.0299 344.094 49.6068 341.347 48.2853 339.109C47.6754 337.99 47.0654 336.972 46.4555 336.056C45.9472 335.141 45.439 334.429 45.0324 333.818C44.6257 333.208 44.4224 332.801 44.1175 332.394C43.9142 332.089 43.8125 331.885 43.8125 331.885C43.8125 331.885 43.9142 331.987 44.2191 332.292C44.5241 332.699 44.829 333.106 45.2357 333.615C45.6423 334.225 46.1505 334.937 46.7605 335.853C47.2687 336.769 47.9803 337.684 48.5902 338.804C49.9117 341.042 51.4366 343.789 52.9614 346.841C54.4862 349.995 56.011 353.455 57.4342 357.117C58.8573 360.882 59.9755 364.443 60.8904 367.8C61.8053 371.158 62.4152 374.21 62.9235 376.754C63.1268 378.076 63.3301 379.195 63.5334 380.213C63.7367 381.23 63.8384 382.146 63.8384 382.858C63.94 383.57 63.94 384.079 64.0417 384.486C64.0417 385.097 64.0417 385.3 64.0417 385.3Z" fill="#263238"/>
<path d="M100.231 377.873H40.0518V390.184H100.231V377.873Z" fill="#16A571"/>
<path d="M45.8457 390.184L52.3516 431.593H88.7438L94.843 390.184H45.8457Z" fill="#16A571"/>
<path d="M96.5712 390.184C96.5712 390.285 85.1859 390.489 71.1577 390.489C57.1294 390.489 45.7441 390.387 45.7441 390.184C45.7441 389.98 57.1294 389.878 71.1577 389.878C85.1859 389.98 96.5712 390.082 96.5712 390.184Z" fill="#263238"/>
<path d="M543.24 432H384.964C380.593 432 376.934 428.439 376.934 423.962V316.115C376.934 311.74 380.492 308.077 384.964 308.077H543.24C547.611 308.077 551.27 311.638 551.27 316.115V424.064C551.169 428.439 547.611 432 543.24 432Z" fill="#455A64"/>
<path d="M548.627 388.047H503.493C495.97 388.047 489.973 381.943 489.973 374.515V372.277C489.973 364.748 496.072 358.745 503.493 358.745H548.627C556.15 358.745 562.147 364.85 562.147 372.277V374.515C562.147 381.943 556.15 388.047 548.627 388.047Z" fill="#455A64"/>
<path d="M548.628 388.556H503.493C495.767 388.556 489.465 382.248 489.465 374.515V372.277C489.465 364.545 495.767 358.236 503.493 358.236H548.628C556.353 358.236 562.656 364.545 562.656 372.277V374.515C562.656 382.248 556.353 388.556 548.628 388.556ZM503.493 359.152C496.276 359.152 490.481 365.053 490.481 372.175V374.414C490.481 381.637 496.377 387.437 503.493 387.437H548.628C555.845 387.437 561.639 381.536 561.639 374.414V372.175C561.639 364.952 555.743 359.152 548.628 359.152H503.493Z" fill="#263238"/>
<path d="M514.576 379.296C517.87 374.609 516.744 368.135 512.06 364.838C507.377 361.541 500.909 362.668 497.615 367.356C494.32 372.043 495.446 378.517 500.13 381.814C504.814 385.111 511.281 383.984 514.576 379.296Z" fill="#263238"/>
<path d="M493.429 83.7343C493.124 94.4173 497.699 105.202 505.526 112.426C507.356 107.237 509.186 101.946 510.914 96.7574" fill="#263238"/>
<path d="M534.295 52.4993C529.619 49.9557 524.028 49.5488 518.843 50.6679C513.659 51.6854 508.779 54.0255 504.205 56.6708C501.664 58.1969 499.021 59.8248 497.191 62.1649C493.836 66.4381 490.482 73.3566 490.177 78.8507C489.872 83.2256 491.6 94.2139 493.43 98.1818C495.158 101.845 503.087 104.592 507.051 105.507L543.037 63.5893C541.715 58.9091 538.564 54.7376 534.295 52.4993Z" fill="#263238"/>
<path d="M540.495 58.0952L531.854 56.569C536.531 67.8625 537.852 93.5017 540.597 105.406C543.748 100.827 551.169 86.6849 550.762 81.089C550.356 75.5949 550.762 57.1795 540.495 58.0952Z" fill="#263238"/>
<path d="M545.476 76.5106C544.866 67.8625 539.174 57.2812 530.635 58.1969L510.71 63.284C504.306 64.9119 500.037 70.3043 499.63 76.9176C499.63 77.2228 499.528 76.8158 499.63 77.1211L504.103 128.603L519.046 158.21L532.261 133.181C532.261 129.01 532.261 119.548 532.261 119.548C532.261 119.548 543.24 117.716 545.476 103.269C546.493 96.147 546.086 86.0744 545.476 76.5106Z" fill="#FFBF9D"/>
<path d="M539.276 88.3128C539.276 89.3302 538.564 90.1442 537.548 90.1442C536.531 90.2459 535.718 89.432 535.616 88.5163C535.616 87.4988 536.328 86.6849 537.344 86.6849C538.361 86.5832 539.276 87.2954 539.276 88.3128Z" fill="#263238"/>
<path d="M543.241 82.1064C543.037 82.3099 541.614 81.2925 539.581 81.2925C537.65 81.2925 536.125 82.3099 535.921 82.1064C535.82 82.0047 536.023 81.5977 536.633 81.089C537.243 80.5803 538.361 80.1733 539.581 80.1733C540.801 80.1733 541.817 80.5803 542.427 81.089C543.241 81.5977 543.444 82.0047 543.241 82.1064Z" fill="#263238"/>
<path d="M522.706 88.3128C522.706 89.3302 521.995 90.1442 520.978 90.1442C519.962 90.2459 519.149 89.432 519.047 88.5163C519.047 87.4988 519.758 86.6849 520.775 86.6849C521.792 86.5832 522.605 87.2954 522.706 88.3128Z" fill="#263238"/>
<path d="M524.434 82.1064C524.231 82.3099 522.807 81.2925 520.774 81.2925C518.843 81.2925 517.318 82.3099 517.115 82.1064C517.013 82.0047 517.216 81.5977 517.826 81.089C518.436 80.5803 519.554 80.1733 520.774 80.1733C521.994 80.1733 523.011 80.5803 523.621 81.089C524.332 81.5977 524.536 82.0047 524.434 82.1064Z" fill="#263238"/>
<path d="M530.635 97.6731C530.635 97.5714 531.855 97.3679 533.888 97.0626C534.396 96.9609 534.905 96.8592 535.006 96.5539C535.108 96.147 534.905 95.6382 534.701 95.0278C534.193 93.8069 533.685 92.4842 533.177 91.1616C531.042 85.6674 529.619 81.1908 529.822 81.089C530.025 80.9873 531.957 85.3622 533.99 90.8563C534.498 92.179 535.006 93.5016 535.413 94.7226C535.616 95.333 535.921 95.9435 535.718 96.7574C535.616 97.1644 535.21 97.3679 534.905 97.4696C534.6 97.5714 534.295 97.5714 534.092 97.5714C531.957 97.7748 530.635 97.7748 530.635 97.6731Z" fill="#263238"/>
<path d="M513.049 114.461C513.049 114.461 517.725 124.33 532.16 123.007V119.65C532.058 119.548 522.604 120.158 513.049 114.461Z" fill="#FF9A6C"/>
<path d="M523.824 74.8827C523.621 75.3914 521.689 75.1879 519.351 75.4932C517.013 75.6967 515.183 76.4089 514.878 75.9001C514.777 75.6967 515.082 75.1879 515.793 74.6792C516.505 74.1705 517.725 73.6618 519.148 73.4583C520.571 73.2548 521.791 73.5601 522.706 73.8653C523.519 74.2723 523.926 74.6792 523.824 74.8827Z" fill="#263238"/>
<path d="M542.631 76.0019C542.326 76.4089 540.902 76.0019 539.276 76.0019C537.65 75.9002 536.226 76.3071 535.921 75.7984C535.82 75.5949 536.023 75.0862 536.633 74.6792C537.243 74.2723 538.259 73.8653 539.378 73.967C540.496 73.967 541.512 74.374 542.021 74.8827C542.631 75.3914 542.834 75.7984 542.631 76.0019Z" fill="#263238"/>
<path d="M541.512 63.284C540.598 61.1474 538.26 59.8248 535.921 59.723C533.583 59.6213 531.347 60.537 529.314 61.6561C520.775 66.6415 516.302 78.5455 507.865 83.7343C505.832 84.9553 503.087 83.8361 501.257 85.464C499.529 87.0919 498.309 89.8389 499.326 92.0773C498.208 90.5511 496.988 88.9232 496.378 87.0919C495.768 85.2605 495.666 83.1239 496.581 81.496C497.293 80.2751 498.614 79.2577 498.919 77.8333C499.224 76.6123 498.716 75.2897 498.818 73.967C498.919 72.6444 499.529 71.4235 500.139 70.3043C503.494 64.4032 507.967 59.1126 513.863 55.8568C517.725 53.7202 522.097 52.3976 526.468 52.601C530.839 52.7028 535.21 54.3307 538.463 57.383C540.496 59.1126 542.529 60.944 541.512 63.284Z" fill="#263238"/>
<path d="M501.562 87.2953C501.46 86.8884 493.938 84.1413 493.836 92.179C493.734 99.9114 501.562 98.3853 501.562 98.1818C501.562 97.8766 501.562 87.2953 501.562 87.2953Z" fill="#FFBF9D"/>
<path d="M499.224 95.1295C499.224 95.1295 499.122 95.2313 498.817 95.333C498.614 95.4348 498.207 95.5365 497.801 95.333C496.987 95.0278 496.276 93.7051 496.276 92.2807C496.276 91.5685 496.377 90.8563 496.682 90.3476C496.886 89.7372 497.292 89.4319 497.699 89.3302C498.106 89.2285 498.411 89.5337 498.512 89.7372C498.614 89.9406 498.614 90.1441 498.614 90.1441C498.614 90.1441 498.817 90.0424 498.716 89.7372C498.716 89.5337 498.614 89.4319 498.411 89.2284C498.207 89.025 498.004 89.025 497.699 89.025C497.089 89.025 496.581 89.6354 496.276 90.2459C495.971 90.8563 495.768 91.5685 495.768 92.3825C495.768 93.9086 496.581 95.4348 497.699 95.74C498.207 95.8417 498.716 95.74 498.919 95.5365C499.122 95.333 499.224 95.2313 499.224 95.1295Z" fill="#FF9A6C"/>
<path d="M498.513 83.3274C498.513 83.3274 498.716 83.2256 499.021 83.0221C499.326 82.8187 499.733 82.6152 500.342 82.2082C501.461 81.3943 502.884 80.1733 504.51 78.4437C506.137 76.7141 507.763 74.374 509.593 71.8304C511.423 69.2869 513.456 66.4381 515.997 63.8945C517.319 62.6736 518.64 61.5544 520.165 60.6387C521.588 59.723 523.113 59.1126 524.638 58.6039C527.586 57.6882 530.432 57.383 532.872 57.5864C535.21 57.6882 537.141 58.1969 538.361 58.7056C538.971 58.9091 539.479 59.1126 539.784 59.2143C540.089 59.3161 540.293 59.4178 540.293 59.4178C540.293 59.4178 540.089 59.3161 539.784 59.2143C539.479 59.1126 538.971 58.8074 538.361 58.6039C537.141 58.0952 535.21 57.5864 532.872 57.383C530.534 57.1795 527.586 57.383 524.536 58.2986C523.011 58.8074 521.487 59.4178 519.962 60.3335C518.437 61.2492 517.115 62.3684 515.794 63.5893C513.253 66.1328 511.219 69.0834 509.39 71.627C507.56 74.1705 505.933 76.5106 504.307 78.342C502.782 80.1733 501.257 81.3943 500.241 82.2082C499.733 82.6152 499.224 82.9204 499.021 83.1239C498.614 83.1239 498.513 83.3274 498.513 83.3274Z" fill="#455A64"/>
<path d="M500.444 85.464C500.343 87.6006 500.241 89.8389 501.156 91.6703C502.172 93.5016 504.612 94.8243 506.442 93.8069C507.967 92.9929 508.373 91.0598 508.678 89.3302C509.39 84.3448 509.796 79.3594 510.508 74.4757L500.444 85.464Z" fill="#263238"/>
<path d="M539.682 59.6213C539.682 59.6213 538.97 59.5196 537.75 59.4178C536.531 59.4178 534.701 59.5196 532.668 60.3335C531.651 60.7405 530.533 61.2492 529.415 61.9614C528.297 62.6736 527.178 63.5893 526.06 64.505C523.824 66.4381 521.587 68.7782 519.554 71.5252C518.538 72.9496 517.725 74.374 516.708 75.5949C515.793 76.9176 514.777 78.1385 513.557 79.0542C511.32 80.9873 508.982 82.4117 507.051 83.4291C505.119 84.4465 503.391 85.2605 502.273 85.7692C501.765 85.9727 501.257 86.1762 500.952 86.3797C500.647 86.4814 500.443 86.5831 500.443 86.5831C500.443 86.5831 500.545 86.4814 500.85 86.3797C501.155 86.1762 501.663 85.9727 502.171 85.7692C503.29 85.2605 504.916 84.4465 506.848 83.3274C508.779 82.2082 511.117 80.8855 513.252 78.9524C514.37 77.935 515.387 76.8158 516.301 75.4932C517.216 74.1705 518.131 72.7461 519.046 71.3217C521.079 68.4729 523.417 66.2346 525.654 64.3015C526.772 63.3858 527.89 62.4701 529.008 61.7579C530.126 61.0457 531.245 60.537 532.261 60.13C534.396 59.3161 536.226 59.2143 537.547 59.3161C538.157 59.3161 538.665 59.4178 538.97 59.5196C539.479 59.6213 539.682 59.6213 539.682 59.6213Z" fill="#455A64"/>
<path d="M500.24 80.6821C500.24 80.6821 500.037 80.8856 499.529 81.1908C499.02 81.496 498.309 81.903 497.597 82.31C497.394 82.4117 497.191 82.5134 496.987 82.7169C496.784 82.8187 496.479 82.9204 496.174 83.0222C495.971 83.0222 495.869 83.0222 495.666 82.9204C495.462 82.8187 495.361 82.6152 495.361 82.4117C495.361 82.0047 495.564 81.6995 495.767 81.3943C496.479 80.2751 497.191 79.0542 498.004 77.7315L498.309 78.0368C497.597 78.5455 496.784 79.0542 495.869 79.2577C494.954 79.5629 494.039 79.6646 493.124 79.5629C492.921 79.5629 492.616 79.5629 492.413 79.4612C492.209 79.3594 491.905 79.2577 491.803 78.9524C491.701 78.6472 491.803 78.342 491.905 78.1385C492.006 77.935 492.209 77.8333 492.311 77.6298C493.429 76.5106 494.344 75.3914 494.954 74.2723C496.174 72.1357 496.581 70.7113 496.581 70.7113C496.581 70.7113 496.581 71.1182 496.377 71.7287C496.174 72.3392 495.767 73.3566 495.259 74.374C494.649 75.4932 493.836 76.7141 492.616 77.8333C492.311 78.1385 492.006 78.4437 492.108 78.6472C492.209 78.8507 492.616 79.0542 493.023 79.0542C493.836 79.0542 494.751 78.9524 495.666 78.749C496.581 78.4437 497.292 78.0368 498.004 77.6298L498.919 76.9176L498.309 77.8333C497.496 79.1559 496.682 80.3768 495.971 81.496C495.767 81.8012 495.666 82.0047 495.666 82.2082C495.666 82.4117 495.869 82.5134 496.072 82.5134C496.581 82.5134 496.987 82.1065 497.495 81.903C498.309 81.496 499.02 81.1908 499.529 80.8856C499.935 80.7838 500.24 80.6821 500.24 80.6821Z" fill="#455A64"/>
<path d="M528.907 101.438C528.195 100.522 526.975 100.115 525.755 100.318C524.942 100.42 524.129 100.827 523.621 101.539C523.112 102.252 523.112 103.167 523.519 103.778C524.027 104.49 525.145 104.592 526.06 104.286C526.975 103.981 527.687 103.371 528.5 102.76C528.703 102.557 528.907 102.455 529.008 102.15C529.212 101.946 529.212 101.743 528.907 101.438Z" fill="#FF9A6C"/>
<path d="M524.028 98.3853C524.333 98.3853 524.434 100.42 526.264 101.743C528.094 103.167 530.33 102.862 530.33 103.167C530.33 103.269 529.822 103.574 528.907 103.676C527.992 103.778 526.671 103.472 525.552 102.659C524.434 101.845 523.926 100.624 523.824 99.8097C523.621 98.894 523.926 98.3853 524.028 98.3853Z" fill="#263238"/>
<path d="M552.897 236.145L561.233 254.968L520.775 270.025L511.829 249.779L552.897 236.145Z" fill="#263238"/>
<path d="M634.525 350.606L645.606 374.515C645.606 374.515 673.154 370.853 675.695 375.126L630.561 398.628L611.856 362.103L634.525 350.606Z" fill="#455A64"/>
<path d="M630.866 379.602C630.052 380.315 629.951 381.637 630.662 382.349C631.374 383.163 632.695 383.265 633.407 382.553C634.22 381.841 634.322 380.315 633.61 379.602C632.899 378.89 631.272 378.789 630.662 379.704" fill="#E0E0E0"/>
<path d="M630.561 398.628L629.036 395.678L673.256 373.701C673.256 373.701 675.187 373.905 676 375.126L630.561 398.628Z" fill="#263238"/>
<path d="M646.114 374.414C646.216 374.617 645.199 375.329 644.386 376.55C643.573 377.771 643.573 379.094 643.268 379.094C643.064 379.195 642.658 377.669 643.573 376.143C644.589 374.617 646.012 374.21 646.114 374.414Z" fill="#263238"/>
<path d="M651.908 374.007C652.111 374.21 651.298 375.024 650.993 376.448C650.688 377.771 650.993 378.89 650.79 378.992C650.586 379.094 649.773 377.873 650.18 376.245C650.485 374.515 651.806 373.803 651.908 374.007Z" fill="#263238"/>
<path d="M657.601 378.382C657.397 378.483 656.584 377.568 656.482 376.041C656.381 374.515 657.194 373.498 657.397 373.6C657.601 373.701 657.296 374.719 657.296 375.94C657.397 377.262 657.804 378.178 657.601 378.382Z" fill="#263238"/>
<path d="M642.963 369.225C642.963 369.428 641.743 369.733 640.523 370.446C639.303 371.158 638.49 372.073 638.287 371.972C638.084 371.87 638.592 370.547 640.117 369.733C641.54 368.818 642.963 369.021 642.963 369.225Z" fill="#263238"/>
<path d="M641.234 363.731C641.234 363.832 640.421 364.443 638.896 364.85C638.083 365.053 637.168 365.257 636.152 365.358C635.643 365.358 635.033 365.358 634.525 365.358C634.22 365.358 633.915 365.358 633.509 365.155C633.102 365.053 632.695 364.544 632.797 364.036C632.899 363.527 633.204 363.222 633.509 363.018C633.814 362.815 634.119 362.815 634.423 362.713C635.033 362.611 635.542 362.51 636.05 362.51C637.168 362.51 638.083 362.611 638.896 362.815C640.421 363.222 641.234 363.934 641.234 364.036C641.133 364.138 640.319 363.731 638.795 363.425C638.083 363.324 637.168 363.222 636.152 363.324C635.643 363.324 635.135 363.425 634.627 363.629C634.119 363.731 633.712 363.934 633.61 364.239C633.61 364.341 633.61 364.341 633.814 364.443C634.017 364.545 634.22 364.544 634.525 364.544C635.033 364.646 635.542 364.646 636.05 364.646C637.067 364.646 637.981 364.545 638.693 364.341C640.218 364.036 641.133 363.629 641.234 363.731Z" fill="#263238"/>
<path d="M591.628 388.963L590.205 415.212C590.205 415.212 616.33 424.878 616.533 429.762L565.604 429.456L566.113 388.454L591.628 388.963Z" fill="#455A64"/>
<path d="M574.855 412.872C573.839 413.178 573.127 414.195 573.331 415.212C573.534 416.23 574.652 416.942 575.669 416.739C576.685 416.535 577.6 415.212 577.194 414.195C576.889 413.178 575.465 412.465 574.551 412.872" fill="#E0E0E0"/>
<path d="M565.604 429.558V426.302L615.008 427.625C615.008 427.625 616.635 428.642 616.737 430.169L565.604 429.558Z" fill="#263238"/>
<path d="M590.713 415.416C590.713 415.619 589.493 415.721 588.172 416.535C586.952 417.247 586.24 418.366 586.037 418.265C585.834 418.163 586.24 416.739 587.765 415.823C589.188 414.907 590.713 415.212 590.713 415.416Z" fill="#263238"/>
<path d="M595.999 417.756C596.101 417.96 594.983 418.366 594.068 419.486C593.153 420.503 592.95 421.622 592.645 421.622C592.442 421.622 592.238 420.198 593.356 418.875C594.576 417.654 595.999 417.553 595.999 417.756Z" fill="#263238"/>
<path d="M598.947 424.268C598.744 424.268 598.439 423.047 599.049 421.724C599.659 420.401 600.879 419.791 600.98 419.994C601.082 420.198 600.37 420.91 599.862 422.029C599.354 423.25 599.252 424.268 598.947 424.268Z" fill="#263238"/>
<path d="M590.307 409.413C590.205 409.617 589.087 409.311 587.664 409.311C586.24 409.311 585.122 409.82 585.021 409.617C584.919 409.413 585.936 408.497 587.664 408.497C589.29 408.396 590.408 409.21 590.307 409.413Z" fill="#263238"/>
<path d="M591.323 403.715C591.323 403.817 590.306 403.919 588.781 403.614C587.968 403.512 587.053 403.207 586.138 402.698C585.63 402.495 585.122 402.189 584.715 401.884C584.512 401.681 584.207 401.579 583.902 401.274C583.597 400.968 583.495 400.358 583.8 399.951C584.105 399.544 584.512 399.442 584.919 399.442C585.325 399.442 585.63 399.544 585.833 399.544C586.443 399.646 586.952 399.849 587.46 400.154C588.476 400.663 589.188 401.172 589.798 401.782C591.018 402.902 591.323 403.817 591.323 403.919C591.221 404.021 590.611 403.207 589.493 402.291C588.883 401.782 588.171 401.375 587.257 400.968C586.85 400.765 586.342 400.561 585.833 400.46C585.325 400.358 584.817 400.256 584.715 400.561C584.614 400.663 584.614 400.663 584.817 400.867C584.919 400.968 585.122 401.172 585.427 401.274C585.833 401.579 586.342 401.884 586.748 402.088C587.663 402.596 588.476 402.902 589.188 403.105C590.408 403.512 591.323 403.614 591.323 403.715Z" fill="#263238"/>
<path d="M475.233 262.802C475.233 262.802 577.193 249.982 583.19 249.982C597.32 249.982 606.164 260.767 608.299 269.008C609.824 275.113 641.235 363.832 641.235 363.832L618.057 376.041L584.003 315.403L566.62 285.185L477.165 299.022L475.233 262.802Z" fill="#263238"/>
<path d="M570.89 282.438C570.89 282.438 584.817 282.438 592.441 293.63C596.914 300.243 595.287 311.943 595.389 320.795C595.491 332.902 592.644 406.463 592.644 406.463L564.079 406.971L558.082 330.257L558.387 316.115L501.359 311.435C501.359 311.435 496.175 294.139 508.983 280.505C510.508 278.775 570.89 282.438 570.89 282.438Z" fill="#263238"/>
<path d="M483.976 238.18C483.976 238.18 461.409 272.874 475.233 299.022C481.841 311.435 501.562 311.435 501.562 311.435L521.791 286.101V244.183L483.976 238.18Z" fill="#263238"/>
<path d="M501.562 311.333C501.562 311.333 501.663 311.231 501.968 311.13C502.273 311.028 502.578 310.824 503.086 310.621C504.103 310.112 505.628 309.502 507.457 308.586C511.32 306.856 516.81 304.415 523.722 301.362C530.635 298.31 538.767 294.749 547.814 290.679C552.389 288.644 557.065 286.61 562.046 284.371C563.266 283.862 564.485 283.252 565.807 282.743C567.128 282.235 568.45 281.929 569.873 281.726C572.618 281.319 575.566 281.319 578.412 281.624C581.258 281.929 584.105 282.743 586.646 283.964C587.866 284.575 589.187 285.287 590.204 286.304C591.22 287.22 592.135 288.339 592.745 289.56C594.168 291.9 594.88 294.545 595.083 297.191C595.185 298.513 595.083 299.836 595.083 301.057C595.083 302.278 595.083 303.601 595.083 304.821C594.982 314.691 594.88 323.644 594.778 331.173C594.677 338.6 594.575 344.705 594.575 348.978C594.575 351.013 594.473 352.641 594.473 353.76C594.473 354.269 594.473 354.675 594.473 354.981C594.473 355.286 594.473 355.388 594.473 355.388C594.473 355.388 594.473 355.286 594.473 354.981C594.473 354.675 594.473 354.269 594.473 353.76C594.473 352.641 594.473 351.013 594.473 348.978C594.473 344.705 594.473 338.702 594.575 331.173C594.575 323.644 594.677 314.691 594.778 304.821C594.778 303.601 594.778 302.278 594.778 301.057C594.778 299.836 594.88 298.513 594.778 297.191C594.575 294.647 593.762 292.104 592.44 289.764C591.729 288.644 590.916 287.525 590.001 286.61C588.984 285.694 587.866 284.982 586.646 284.371C584.206 283.15 581.462 282.438 578.615 282.133C575.769 281.828 573.024 281.828 570.28 282.235C568.958 282.438 567.637 282.743 566.315 283.252C564.994 283.659 563.774 284.269 562.554 284.778C557.573 286.915 552.897 289.051 548.322 290.984C539.275 294.952 531.041 298.513 524.23 301.566C517.42 304.516 511.829 306.958 507.966 308.586C506.034 309.4 504.611 310.01 503.493 310.519C502.985 310.723 502.578 310.926 502.375 311.028C501.663 311.333 501.562 311.333 501.562 311.333Z" fill="#455A64"/>
<path d="M581.157 250.084C581.157 250.186 559.708 252.627 533.379 255.476C506.949 258.325 485.5 260.462 485.5 260.36C485.5 260.258 506.847 257.816 533.379 254.968C559.708 252.119 581.157 249.88 581.157 250.084Z" fill="#455A64"/>
<path d="M555.947 199.518C557.573 194.227 563.368 174.794 562.046 164.518C561.03 156.379 553.711 145.899 551.474 140.303C550.458 137.658 542.224 134.911 537.344 133.487L532.465 127.687L532.058 130.536C529.72 133.588 524.942 135.725 520.368 135.318C513.151 134.707 507.255 131.757 503.188 127.382C484.382 133.08 484.382 134.402 480.824 135.827C476.148 137.658 490.075 182.323 490.075 182.323C490.075 182.323 495.056 210.404 490.38 219.866C487.737 225.157 484.687 231.261 482.451 236.247C482.451 236.247 476.148 248.151 477.572 247.846C480.418 247.235 499.935 251.915 518.335 252.933C552.287 254.764 558.793 249.677 558.793 249.677C557.065 241.029 554.015 210.506 554.015 204.605C554.117 203.486 555.744 200.433 555.947 199.518Z" fill="#16A571"/>
<path d="M533.177 129.112C533.177 129.112 555.337 134.809 557.472 137.76C563.368 145.797 598.845 200.535 581.361 216.916C569.976 227.599 553.914 205.012 553.914 205.012L533.177 129.112Z" fill="#16A571"/>
<path d="M579.226 193.617C579.226 193.617 578.718 193.515 577.701 193.311C576.583 193.108 575.16 192.803 573.432 192.396C569.874 191.683 564.791 190.666 558.997 189.75L559.302 189.547C558.692 190.971 558.184 192.396 557.574 193.82C556.049 197.483 554.727 200.84 553.406 203.893V203.689C555.947 206.843 558.184 209.387 559.81 211.422C560.522 212.337 561.132 213.049 561.538 213.66C561.945 214.169 562.148 214.474 562.148 214.474C562.148 214.474 563.775 215.186 561.436 213.762C560.928 213.253 560.318 212.541 559.505 211.625C557.879 209.692 555.541 207.148 552.898 204.096L552.796 203.994L552.898 203.893C554.117 200.84 555.541 197.381 556.964 193.82C557.574 192.396 558.184 190.87 558.692 189.547L558.794 189.343H558.997C564.791 190.259 569.874 191.276 573.432 192.09C575.261 192.497 576.685 192.904 577.6 193.108C578.718 193.413 579.226 193.617 579.226 193.617Z" fill="#263238"/>
<path d="M557.98 191.073C557.98 191.073 557.98 190.463 558.184 189.242C558.387 188.021 558.59 186.393 558.794 184.358C559.302 180.288 559.912 174.489 559.302 168.283C558.692 161.975 556.557 156.582 554.728 152.919C553.813 151.088 552.999 149.562 552.39 148.545C551.78 147.527 551.475 147.018 551.475 146.917C551.475 146.917 551.576 147.018 551.78 147.324C551.983 147.527 552.186 147.934 552.593 148.443C553.203 149.46 554.118 150.885 555.134 152.716C557.066 156.379 559.302 161.873 559.912 168.181C560.522 174.489 559.81 180.288 559.2 184.358C558.895 186.393 558.59 188.021 558.387 189.242C558.184 190.361 557.98 191.073 557.98 191.073Z" fill="#263238"/>
<g opacity="0.3">
<path d="M485.5 231.974L527.381 212.642L524.535 204.401L530.939 201.959L541.41 203.282C546.696 203.994 551.982 202.163 555.743 198.398L529.618 191.785L499.833 198.093L492.311 176.117L490.481 182.527L492.006 196.364L493.022 211.32L485.5 231.974Z" fill="black"/>
</g>
<path d="M481.536 135.521C481.536 135.521 473.302 138.675 470.862 147.832C470.862 147.832 469.032 151.393 467.609 157.803C464.051 173.37 456.427 202.57 456.122 210.404C455.614 224.445 466.694 228.413 472.692 229.634C478.69 230.854 520.469 209.183 520.469 209.183L511.829 185.579L486.314 196.16C486.314 196.16 492.108 178.152 493.836 170.826C495.462 163.399 481.536 135.521 481.536 135.521Z" fill="#16A571"/>
<path d="M559.199 187.105C558.691 184.765 558.589 182.425 558.996 180.085C559.199 178.66 559.402 177.236 559.097 175.812C558.792 174.387 557.573 172.963 556.149 173.065L554.015 183.341L559.199 187.105Z" fill="#FFBF9D"/>
<path d="M558.183 162.992L550.661 199.314L532.871 198.195L538.157 162.28C538.259 161.364 539.072 160.652 540.089 160.652H556.353C557.471 160.652 558.386 161.771 558.183 162.992Z" fill="#263238"/>
<path d="M538.157 172.454C538.157 172.454 538.259 172.047 538.462 171.437C538.665 170.724 538.869 169.707 539.072 168.486C539.275 167.265 539.58 165.739 539.885 164.111C539.885 163.908 539.987 163.704 539.987 163.501C540.089 163.297 540.19 163.195 540.292 162.992C540.394 162.89 540.597 162.788 540.8 162.687C541.004 162.687 541.207 162.687 541.41 162.687C542.325 162.687 543.24 162.687 544.256 162.687C548.119 162.687 551.576 162.585 554.117 162.585C555.337 162.585 556.353 162.483 557.065 162.483C557.776 162.483 558.183 162.382 558.183 162.382C558.183 162.382 557.776 162.382 557.065 162.28C556.252 162.28 555.235 162.28 554.117 162.28C551.576 162.28 548.119 162.28 544.256 162.28C543.342 162.28 542.325 162.28 541.41 162.28C541.207 162.28 541.004 162.28 540.699 162.28C540.495 162.382 540.19 162.483 540.089 162.585C539.885 162.789 539.784 162.992 539.682 163.195C539.58 163.399 539.58 163.602 539.58 163.806C539.275 165.434 539.072 166.96 538.767 168.181C538.564 169.402 538.361 170.419 538.259 171.131C538.157 172.047 538.157 172.454 538.157 172.454Z" fill="#455A64"/>
<path d="M547.712 164.518C547.916 164.213 548.221 163.806 548.729 164.009C548.932 164.009 549.339 164.315 549.339 164.722C549.339 165.129 549.136 165.434 548.831 165.637C548.526 165.841 548.119 165.739 547.814 165.536C547.611 165.23 547.509 164.823 547.712 164.518Z" fill="#FAFAFA"/>
<path d="M548.119 175.506C548.526 175.608 557.98 180.492 557.98 180.492L562.859 185.681C562.859 185.681 564.587 188.733 563.164 193.413C561.741 198.093 559.403 199.721 553.914 201.044L543.647 199.416L538.462 195.143C537.446 194.329 537.039 192.904 537.446 191.683L537.547 191.48L536.937 190.463C536.531 189.852 536.632 189.038 537.039 188.529C537.649 187.716 538.767 187.614 539.479 188.122L545.273 192.396L549.238 192.904L549.848 191.582L543.952 188.529L536.429 182.73C535.413 181.916 535.311 180.492 536.124 179.576C536.836 178.762 537.954 178.559 538.869 179.067L545.781 183.137L552.999 186.393L551.881 183.544L543.342 177.236C543.748 177.134 543.037 174.184 548.119 175.506Z" fill="#FFBF9D"/>
<path d="M547.306 170.521C547.306 170.521 545.374 169.402 542.121 170.724C538.868 172.047 534.701 174.082 534.701 174.082L528.398 175.913L529.11 174.387C529.11 174.387 535.311 174.998 535.006 170.521L531.244 170.724L528.093 169.097L521.791 175.201L519.453 183.849L512.54 187.41L517.928 202.265L527.686 196.872L539.885 196.669L544.358 193.006L544.866 188.428L549.237 183.951C549.237 183.951 549.745 181.713 547.814 181.509C545.781 181.306 540.902 186.088 540.902 186.088L536.022 186.189C536.022 186.189 535.209 185.375 535.819 184.968C536.53 184.561 550.864 177.439 551.575 175.913C552.185 174.285 552.897 173.268 551.474 172.861C550.05 172.454 547.611 173.268 547.611 173.268C547.611 173.268 548.424 170.826 547.306 170.521Z" fill="#FFBF9D"/>
<path d="M535.311 179.373C535.311 179.474 538.259 178.152 541.715 176.422C545.171 174.692 548.017 173.166 547.916 173.065C547.916 172.963 544.968 174.285 541.511 176.015C538.055 177.745 535.311 179.271 535.311 179.373Z" fill="#FF9A6C"/>
<path d="M532.464 190.87C532.464 190.87 532.769 190.971 533.175 191.073C533.684 191.175 534.395 191.378 535.209 191.48C536.123 191.582 537.14 191.785 538.36 191.683C539.58 191.582 540.8 191.276 542.019 190.666C544.459 189.445 546.086 187.41 547.204 186.088C547.712 185.375 548.119 184.765 548.424 184.358C548.729 183.951 548.83 183.748 548.83 183.748C548.83 183.748 548.119 184.561 547 185.884C545.882 187.207 544.256 189.038 541.816 190.361C540.596 190.971 539.376 191.277 538.258 191.378C537.14 191.48 536.022 191.378 535.209 191.277C533.48 190.971 532.464 190.768 532.464 190.87Z" fill="#FF9A6C"/>
<path d="M512.438 187.41C512.438 187.41 512.54 187.309 512.845 187.105C513.15 186.902 513.557 186.698 514.167 186.393C515.386 185.782 517.115 184.867 519.249 183.646L519.148 183.748C519.758 181.407 520.571 178.457 521.486 175.099C523.315 173.268 525.45 171.233 527.788 168.995L527.89 168.893L527.992 168.995C529.008 169.504 530.025 170.012 531.143 170.623H531.041C532.159 170.521 533.481 170.521 534.802 170.419H535.006V170.623C535.006 171.335 535.006 172.047 534.599 172.658C534.294 173.268 533.684 173.777 533.074 174.082C531.753 174.692 530.33 174.794 528.906 174.692L529.11 174.591C528.906 175.099 528.601 175.608 528.398 176.117L528.093 175.812C530.025 175.201 532.159 174.591 534.396 173.98C536.327 173.065 538.36 172.149 540.393 171.233C542.325 170.216 544.866 169.3 547.204 170.419C547.509 170.521 547.712 170.724 547.814 171.03C547.916 171.335 548.017 171.538 548.017 171.844C548.017 172.352 547.916 172.861 547.814 173.37L547.509 173.065C548.221 172.861 548.932 172.658 549.746 172.556C550.457 172.454 551.372 172.454 552.084 172.963C552.287 173.065 552.389 173.37 552.49 173.573C552.49 173.777 552.49 174.082 552.49 174.285C552.389 174.692 552.185 175.099 552.084 175.405L551.88 175.913C551.88 176.015 551.779 176.117 551.677 176.219C551.575 176.32 551.575 176.422 551.474 176.524C551.169 176.829 550.864 177.032 550.559 177.236C547.916 178.966 545.273 180.39 542.528 181.814C541.207 182.527 539.885 183.239 538.564 183.849C537.954 184.154 537.242 184.561 536.632 184.867C536.327 185.07 535.921 185.172 535.819 185.375C535.717 185.477 535.921 185.884 536.124 185.986L535.921 185.884C537.547 185.884 539.174 185.782 540.8 185.782L540.597 185.884C542.121 184.46 543.646 183.137 545.273 182.018C545.679 181.713 546.188 181.509 546.594 181.306C547.103 181.102 547.712 181 548.119 181.204C548.627 181.306 549.136 181.814 549.237 182.323C549.441 182.832 549.339 183.341 549.237 183.849V183.951C547.712 185.477 546.289 187.003 544.866 188.428L544.968 188.326C544.764 189.954 544.663 191.48 544.459 192.904V193.006L544.358 193.108C542.833 194.329 541.308 195.55 539.885 196.669H539.783H539.682C534.904 196.771 530.838 196.771 527.483 196.872H527.585C524.434 198.602 521.994 199.925 520.367 200.84C519.554 201.247 518.944 201.654 518.436 201.858C518.233 201.959 518.029 202.061 517.928 202.061C517.826 202.163 517.724 202.163 517.724 202.163C517.724 202.163 517.724 202.163 517.928 202.061C518.029 201.959 518.233 201.858 518.436 201.756C518.843 201.451 519.554 201.146 520.266 200.637C521.994 199.721 524.332 198.297 527.483 196.567C530.838 196.465 535.006 196.364 539.682 196.262H539.58C541.003 195.143 542.528 193.922 544.053 192.599L543.951 192.701C544.155 191.175 544.256 189.649 544.459 188.122V188.021L544.561 187.919C545.984 186.495 547.407 184.968 548.932 183.442L548.831 183.544C549.034 182.73 548.831 181.713 548.017 181.509C547.204 181.204 546.289 181.713 545.476 182.221C543.85 183.239 542.325 184.561 540.902 185.986L540.8 186.088H540.698C539.072 186.088 537.445 186.189 535.819 186.189H535.717L535.616 186.088C535.412 185.986 535.311 185.782 535.209 185.579C535.107 185.375 535.006 185.07 535.107 184.867C535.209 184.561 535.514 184.46 535.616 184.358L536.124 184.053C536.734 183.748 537.445 183.341 538.055 183.035C539.377 182.323 540.698 181.713 542.02 181C544.663 179.576 547.407 178.152 549.949 176.422C550.254 176.219 550.559 176.015 550.864 175.71C550.965 175.608 550.965 175.608 551.067 175.506C551.067 175.506 551.169 175.405 551.169 175.303L551.372 174.794C551.677 174.082 552.084 173.268 551.575 172.963C551.067 172.556 550.254 172.556 549.542 172.658C548.831 172.759 548.119 172.861 547.407 173.065L546.899 173.166L547.001 172.658C547.103 172.251 547.204 171.742 547.204 171.335C547.204 170.928 547.103 170.521 546.798 170.419C545.883 170.012 544.663 169.91 543.545 170.114C542.426 170.317 541.41 170.826 540.393 171.233C538.36 172.149 536.327 173.065 534.396 173.98C532.261 174.591 530.126 175.201 528.093 175.71L527.585 175.812L527.788 175.303C528.093 174.794 528.297 174.184 528.5 173.777L528.601 173.675H528.805C530.126 173.777 531.549 173.675 532.769 173.065C533.379 172.759 533.786 172.352 534.091 171.844C534.396 171.335 534.396 170.623 534.396 170.114L534.599 170.317C533.278 170.419 532.058 170.419 530.838 170.419H530.736C529.618 169.809 528.5 169.3 527.585 168.791H527.788C525.45 171.03 523.315 173.065 521.486 174.896V174.794C520.571 178.152 519.758 181.102 519.046 183.442C516.81 184.561 515.081 185.477 513.862 186.088C513.252 186.393 512.845 186.596 512.54 186.8C512.642 187.309 512.438 187.41 512.438 187.41Z" fill="#FF9A6C"/>
<path d="M486.212 225.564C486.212 225.564 486.416 225.462 486.822 225.259C487.33 225.055 487.94 224.75 488.754 224.343C490.482 223.529 492.82 222.41 495.869 220.985C501.969 218.137 510.508 214.067 520.368 209.387L520.266 209.692C518.64 205.317 517.013 200.637 515.184 195.855C513.964 192.396 512.744 189.038 511.524 185.884L511.829 185.986C502.172 190.056 493.531 193.718 486.822 196.465C484.586 196.669 482.553 197.178 480.825 197.788C479.096 198.398 477.877 199.314 476.962 200.23C476.047 201.146 475.539 201.959 475.335 202.57C475.234 202.875 475.132 203.079 475.132 203.282C475.132 203.486 475.03 203.486 475.03 203.486C475.03 203.486 475.03 203.384 475.03 203.18C475.03 202.977 475.132 202.773 475.234 202.468C475.437 201.858 475.945 200.942 476.86 200.026C477.775 199.111 479.096 198.195 480.825 197.483C482.553 196.771 484.586 196.262 486.924 196.058H486.822C493.43 193.21 502.07 189.547 511.727 185.477L511.931 185.375L512.032 185.681C513.252 188.936 514.472 192.294 515.692 195.651C517.42 200.535 519.148 205.215 520.775 209.59L520.876 209.794L520.673 209.895C510.813 214.474 502.172 218.442 496.073 221.291C493.023 222.715 490.583 223.732 488.957 224.546C488.144 224.953 487.534 225.157 487.025 225.36C486.517 225.462 486.212 225.564 486.212 225.564Z" fill="#263238"/>
<path d="M494.751 160.652C494.649 160.652 494.141 159.533 493.124 157.701C492.108 155.87 490.685 153.326 488.855 150.681C487.025 148.036 485.297 145.696 483.874 144.068C482.552 142.44 481.637 141.524 481.739 141.423C481.739 141.423 482.044 141.626 482.451 142.033C482.857 142.44 483.467 143.05 484.179 143.864C485.602 145.39 487.432 147.731 489.262 150.376C491.091 153.021 492.514 155.667 493.429 157.498C493.938 158.414 494.243 159.228 494.446 159.736C494.649 160.347 494.751 160.652 494.751 160.652Z" fill="#263238"/>
<path d="M495.767 165.739C495.767 165.739 495.665 166.248 495.462 167.062C495.259 167.876 494.954 169.097 494.446 170.521C493.632 173.37 492.311 177.439 490.989 181.814C489.566 186.189 488.245 190.157 487.228 193.006C486.72 194.431 486.313 195.55 486.008 196.364C485.703 197.178 485.5 197.585 485.5 197.585C485.5 197.585 485.602 197.076 485.805 196.364C486.11 195.448 486.415 194.329 486.923 192.904C487.838 189.954 489.16 185.986 490.481 181.713C491.904 177.338 493.124 173.472 494.141 170.521C494.649 169.198 494.954 168.079 495.259 167.163C495.564 166.146 495.767 165.739 495.767 165.739Z" fill="#263238"/>
</svg>
