<svg width="31" height="38" viewBox="0 0 31 38" fill="none" xmlns="http://www.w3.org/2000/svg">
<path d="M5.45166 25.8623L5.06344 24.4134L5.06344 24.4134L5.45166 25.8623ZM8.40435 27.1924H28.3498V24.1924H8.40435V27.1924ZM8.40435 24.1924C6.9552 24.1924 5.93637 24.1795 5.06344 24.4134L5.83989 27.3112C6.23516 27.2053 6.76205 27.1924 8.40435 27.1924V24.1924ZM5.06344 24.4134C2.82505 25.0132 1.07667 26.7616 0.476893 29L3.37467 29.7764C3.69704 28.5733 4.63678 27.6336 5.83989 27.3112L5.06344 24.4134Z" fill="black"/>
<path d="M6.91211 25.6924V3.25383" stroke="black" stroke-width="3" stroke-linecap="round"/>
<path d="M11.8985 35.6651C7.19731 35.6651 4.84672 35.6651 3.38625 34.2046C1.92578 32.7442 1.92578 30.3936 1.92578 25.6924V12.3955C1.92578 7.69429 1.92578 5.3437 3.38625 3.88323C4.84672 2.42276 7.19731 2.42276 11.8985 2.42276H18.547C23.2481 2.42276 25.5987 2.42276 27.0592 3.88323C28.5197 5.3437 28.5197 7.69429 28.5197 12.3955M18.547 35.6651C23.2481 35.6651 25.5987 35.6651 27.0592 34.2046C28.5197 32.7442 28.5197 30.3936 28.5197 25.6924V19.0439" stroke="black" stroke-width="3" stroke-linecap="round"/>
</svg>
