<svg width="31" height="30" viewBox="0 0 31 30" fill="none" xmlns="http://www.w3.org/2000/svg">
<path d="M1 15.4356L3.91077 12.5015M30 15.4356C28.9285 14.3818 27.9449 13.4145 27.0165 12.5015M27.0165 12.5015C23.4034 8.94833 20.6247 6.21577 16.7417 2.39714C15.9566 1.62504 14.6941 1.63191 13.9186 2.41363L3.91077 12.5015M27.0165 12.5015V27C27.0165 28.1046 26.121 29 25.0165 29H21.2593C20.1547 29 19.2593 28.1046 19.2593 27V23.16C19.2593 22.0554 18.3638 21.16 17.2593 21.16H13.9794C12.8749 21.16 11.9794 22.0554 11.9794 23.16V27C11.9794 28.1046 11.084 29 9.97942 29H5.76507C4.65264 29 3.75398 28.0923 3.76517 26.9799L3.91077 12.5015" stroke="black" stroke-width="2"/>
</svg>
