<svg width="40" height="40" viewBox="0 0 50 50" fill="none" xmlns="http://www.w3.org/2000/svg">
<g clip-path="url(#clip0_15_5437)">
<path d="M50 25C50 11.1929 38.8071 0 25 0C11.1929 0 0 11.1929 0 25C0 37.478 9.14209 47.8208 21.0938 49.6963V32.2266H14.7461V25H21.0938V19.4922C21.0938 13.2266 24.8262 9.76563 30.5366 9.76563C33.271 9.76563 36.1328 10.2539 36.1328 10.2539V16.4063H32.9805C29.875 16.4063 28.9062 18.3335 28.9062 20.3125V25H35.8398L34.7314 32.2266H28.9062V49.6963C40.8579 47.8208 50 37.478 50 25Z" fill="white"/>
</g>
<defs>
<clipPath id="clip0_15_5437">
<rect width="50" height="50" fill="white"/>
</clipPath>
</defs>
</svg>
