<svg width="374" height="460" viewBox="0 0 374 460" fill="none" xmlns="http://www.w3.org/2000/svg">
<path d="M175.858 147.434C129.17 144.158 90.1276 150.984 83.3019 162.997C68.5585 168.73 58.1835 184.839 58.7296 203.678C59.2756 226.885 75.9302 245.178 96.1342 244.632C116.065 244.086 131.901 224.974 131.355 201.766C131.355 198.49 130.809 195.487 130.262 192.484C142.822 195.214 157.019 197.398 172.309 198.49C223.091 202.04 264.864 193.576 265.957 179.651C266.503 165.454 226.368 150.984 175.858 147.434Z" fill="#FDF3EA"/>
<path d="M274.971 342.102L358.517 338.553L332.033 237.26C329.849 228.523 325.754 220.332 319.474 213.507C309.099 202.039 299.816 197.671 282.343 190.572L265.961 196.579L274.971 342.102Z" fill="#16A571"/>
<path d="M358.517 339.645C358.517 340.464 358.244 341.283 357.425 342.102C357.425 342.102 357.152 342.375 357.152 342.648C356.606 343.194 356.059 343.74 355.24 344.013C352.783 345.378 349.234 346.743 344.865 347.562C337.767 349.201 328.211 350.02 317.836 350.02C305.55 350.02 294.356 348.382 286.984 345.924C285.346 345.378 283.981 344.832 282.615 344.286H282.342C282.069 344.286 282.069 344.013 281.796 344.013C278.793 342.375 276.882 340.737 276.882 338.826C276.882 337.46 277.974 336.095 279.885 334.73C280.431 334.457 280.977 334.184 281.796 333.638C282.342 333.365 283.161 333.092 283.981 332.819C283.981 332.819 284.254 332.819 284.527 332.546C291.898 329.816 304.184 328.178 318.109 328.178C327.665 328.178 336.402 329.27 343.227 330.635C347.869 331.727 351.418 332.819 354.148 334.184C354.967 334.73 355.786 335.276 356.606 335.822C357.425 336.368 357.971 336.914 358.244 337.46C358.244 338.553 358.517 339.099 358.517 339.645Z" fill="#322924"/>
<path d="M307.456 418.822V423.191C307.456 435.204 307.456 447.217 307.183 459.503H75.1104C75.6565 450.493 75.6565 440.664 75.1104 430.016C75.1104 428.378 74.8374 426.74 74.8374 424.829C74.5643 420.733 73.7453 410.358 72.6532 395.615C71.8341 386.605 71.015 376.23 70.1959 364.49C70.1959 363.944 70.1959 363.398 70.1959 363.125C69.9229 359.03 69.6499 354.661 69.1038 350.293C69.1038 348.654 68.8308 347.289 68.8308 345.651C68.2847 339.645 68.0117 333.365 67.4657 327.085C67.4657 326.266 67.4657 325.447 67.1926 324.355C66.9196 320.806 66.6466 317.53 66.3736 313.98C66.3736 312.615 66.1005 310.977 66.1005 309.612C65.8275 305.243 65.5545 301.148 65.2815 296.78C65.2815 295.96 65.2815 295.141 65.0084 294.322C63.9163 280.398 63.0972 266.201 62.0051 252.276C60.913 237.806 60.094 223.335 59.0019 209.411V209.138C59.0019 206.954 58.7288 204.497 58.4558 202.312C58.4558 201.22 58.4558 200.401 58.1828 199.309C58.1828 198.763 58.1828 197.944 58.1828 197.398C58.1828 196.579 58.1828 196.033 58.1828 195.487C57.9097 193.03 57.9097 190.572 57.6367 188.115V187.842C59.0019 187.296 60.367 186.477 61.7321 185.931C65.0084 184.566 68.5578 182.928 72.1071 181.835H72.3801C81.117 178.559 90.1269 175.556 99.4097 173.372C101.321 172.826 103.505 172.28 105.416 172.006C106.508 171.733 107.601 171.46 108.693 171.187C110.331 170.914 111.969 170.641 113.607 170.095C117.429 169.276 121.252 168.73 125.074 168.184C126.166 167.911 127.258 167.911 128.624 167.638H128.897C131.081 167.365 133.265 167.092 135.176 166.819C137.36 166.546 139.818 166.273 142.002 166.273C144.186 166 146.643 166 148.828 165.727C151.012 165.727 153.469 165.454 155.653 165.454C156.472 165.454 157.018 165.454 157.837 165.454C158.929 165.454 160.022 165.454 161.114 165.454C163.025 165.454 164.663 165.454 166.574 165.454C167.666 165.454 169.031 165.454 170.124 165.454C170.397 165.454 170.397 165.454 170.67 165.454C171.762 165.454 172.854 165.454 173.946 165.454C175.038 165.454 176.13 165.454 177.222 165.727C179.679 165.727 182.41 166 184.867 166.273C187.051 166.546 189.508 166.546 191.693 166.819C194.15 167.092 196.607 167.365 199.064 167.638C201.522 167.911 203.979 168.184 206.436 168.73C209.712 169.276 213.262 169.822 216.538 170.641C217.63 170.914 218.995 171.187 220.087 171.46C220.36 171.46 220.633 171.46 220.906 171.733C221.999 172.006 223.091 172.28 224.183 172.28C225.275 172.553 226.367 172.826 227.459 173.099C229.643 173.645 231.827 174.191 233.739 174.737C243.568 177.194 252.577 179.924 261.314 182.655C262.406 182.928 263.499 183.201 264.591 183.747C270.597 185.931 276.604 188.115 282.337 190.572C282.61 190.572 282.883 190.845 283.156 190.845C288.617 193.03 293.804 195.76 298.992 198.49C299.265 198.49 299.538 198.763 299.811 199.036C301.995 200.401 304.452 201.493 306.637 202.858C306.091 224.155 306.091 245.178 306.091 265.928V268.112C306.091 288.589 306.364 309.066 306.637 329.27C306.637 333.092 306.637 337.187 306.91 341.01C306.91 344.013 306.91 347.016 306.91 350.02C307.183 364.763 307.183 379.233 307.456 394.25C307.456 402.168 307.456 410.631 307.456 418.822Z" fill="#16A571"/>
<path d="M292.99 300.875C292.717 300.875 292.444 300.875 292.444 300.602C280.704 281.217 256.677 275.211 235.654 270.023C222.549 266.747 211.355 264.016 205.348 258.556C205.075 258.283 205.075 258.01 205.348 257.737C205.621 257.464 205.894 257.464 206.167 257.737C211.901 262.924 223.095 265.928 235.927 268.931C256.131 274.118 281.25 280.398 293.536 300.056C293.809 300.329 293.536 300.875 293.263 300.875H292.99Z" fill="#3B251C"/>
<path d="M236.199 183.201C234.561 197.398 208.35 206.135 177.498 202.585C146.646 199.036 122.893 184.839 124.531 170.641C124.531 169.549 124.804 168.457 125.35 167.638C160.844 162.451 197.702 164.635 234.015 174.191C235.653 176.921 236.472 180.197 236.199 183.201Z" fill="#FDA78A"/>
<path d="M118.249 290.5C117.703 292.957 118.795 368.859 72.9267 395.342C71.5615 377.595 69.6503 353.569 67.7392 326.54C67.1931 320.806 66.9201 314.799 66.374 308.793C70.1964 303.332 72.6536 300.056 72.6536 300.056L118.249 290.5Z" fill="#322924"/>
<path d="M273.604 194.122C273.331 194.122 273.331 194.122 273.058 193.849C273.058 193.576 259.68 178.832 247.12 174.191C234.561 169.549 221.183 171.461 220.91 171.461C220.637 171.461 220.091 171.188 220.091 170.915C220.091 170.642 220.364 170.096 220.637 170.096C220.637 170.096 234.561 167.911 247.393 172.826C260.226 177.74 273.331 192.211 273.877 192.757C274.15 193.03 274.15 193.576 273.877 193.576C273.877 194.122 273.604 194.122 273.604 194.122Z" fill="#3B251C"/>
<path d="M345.682 291.319C345.409 291.319 345.136 291.046 345.136 290.773C338.857 269.477 325.478 253.641 319.745 246.816C317.561 244.359 317.015 243.812 317.015 243.266C317.015 242.993 317.288 242.447 317.561 242.447C317.834 242.447 318.107 242.72 318.38 242.993C318.653 243.266 319.745 244.632 320.837 245.997C326.571 252.822 340.222 268.658 346.501 290.5C346.501 290.773 346.228 291.046 345.682 291.319C345.955 291.319 345.955 291.319 345.682 291.319Z" fill="#3B251C"/>
<path d="M258.588 180.47H258.315C258.042 180.197 258.042 179.924 258.042 179.651C258.042 179.378 261.318 174.737 267.871 174.464H268.144C273.331 174.464 276.608 178.013 276.881 178.013C277.154 178.286 277.154 178.832 276.881 178.832C276.608 179.105 276.062 179.105 276.062 178.832C276.062 178.832 273.058 175.556 268.417 175.556H268.144C262.41 175.556 259.407 179.924 259.407 179.924C259.134 180.47 258.861 180.47 258.588 180.47Z" fill="#3B251C"/>
<path d="M246.027 38.7697C248.484 32.2171 243.023 24.0263 233.741 20.7499C228.28 18.8388 222.82 19.1118 218.724 21.023C220.362 15.5624 219.543 10.1019 216.267 6.27955C209.987 -1.36519 196.609 -0.546106 186.234 7.91771C181.593 11.7401 178.316 16.3815 176.951 21.296C173.675 16.9276 168.214 14.4703 162.208 14.7434C155.928 15.0164 150.741 18.5657 148.01 23.2072C142.823 21.8421 135.724 23.4802 129.991 28.3947C121.8 35.2203 119.07 45.3223 123.711 50.7828C125.622 53.2401 128.625 54.3322 131.902 54.6052C123.984 58.7006 119.343 64.9802 121.254 69.3486C121.8 70.4407 122.619 71.2598 123.711 71.8059C119.889 74.8092 117.977 78.6315 118.797 81.9078C119.889 85.4572 124.53 87.6414 129.991 87.3684C127.806 108.664 152.379 91.4638 155.655 111.395C158.931 130.78 197.428 129.141 197.428 130.78C197.701 135.694 217.905 109.483 221.181 111.668C230.191 118.22 237.836 109.757 235.925 104.842C241.385 101.02 244.662 94.4671 244.389 87.0953C244.116 83.273 243.024 79.9967 241.112 76.9934C243.024 74.8092 244.116 71.8059 244.116 68.5296C244.116 66.3453 243.297 64.1611 241.931 62.523L242.204 62.25C246.573 58.7006 246.3 51.0559 241.931 44.2302C243.843 42.592 245.208 40.9539 246.027 38.7697Z" fill="#934646"/>
<path d="M216.542 113.579H155.657V190.299H216.542V113.579Z" fill="#FDA78A"/>
<path d="M217.906 120.951L216.541 134.329C197.156 169.003 172.31 160.539 158.386 134.329L157.294 125.319L192.514 122.589L217.906 120.951Z" fill="#322924"/>
<path d="M190.057 149.891H185.961C167.122 149.891 151.833 132.418 151.833 113.579V64.9802C151.833 55.1513 159.751 47.2335 169.58 47.2335H223.366V114.398C223.366 132.691 208.349 149.891 190.057 149.891Z" fill="#FDA78A"/>
<path d="M154.017 93.375C158.386 99.3816 158.932 106.48 155.109 109.211C151.287 111.941 144.734 109.484 140.366 103.75C135.998 97.7434 135.452 90.6448 139.274 87.9145C143.096 85.1842 149.649 87.3684 154.017 93.375Z" fill="#FDA78A"/>
<path d="M231.442 103.372C235.848 97.4407 236.377 90.3726 232.625 87.5852C228.872 84.7979 222.258 87.3468 217.852 93.2783C213.447 99.2099 212.917 106.278 216.67 109.065C220.422 111.853 227.036 109.304 231.442 103.372Z" fill="#FDA78A"/>
<path d="M240.566 51.056L203.708 30.579L186.234 39.3158C181.866 38.4967 177.77 39.5889 176.132 42.3191C176.132 42.5921 176.132 42.5921 175.859 42.8652L170.126 42.0461L154.836 45.8685L145.553 53.7862L145.826 63.8882C140.912 66.3454 139.547 75.6283 142.823 85.7303C146.372 95.8323 149.103 102.658 154.017 99.6546C155.655 98.5625 155.655 92.0099 155.382 79.1777C155.382 76.7204 154.29 59.5198 160.843 53.2402C168.76 45.3224 194.425 49.4178 202.889 49.6908C216.54 50.2369 217.359 55.4244 217.905 63.3421C218.724 76.4474 220.908 88.1875 233.195 89.0066C241.931 89.5527 249.03 80.2698 249.303 69.3487C249.303 69.3487 249.303 69.3487 249.303 69.0757C249.03 62.25 246.3 54.6053 240.566 51.056Z" fill="#934646"/>
<path d="M174.222 89.2797C174.222 91.4639 172.311 93.3751 170.127 93.3751C167.942 93.3751 166.031 91.4639 166.031 89.2797C166.031 87.0954 167.942 85.1843 170.127 85.1843C172.584 85.1843 174.222 87.0954 174.222 89.2797Z" fill="#322924"/>
<path d="M162.209 87.6415H161.936C161.663 87.3684 161.39 87.0954 161.663 86.8224C161.663 86.5494 164.666 81.3619 169.854 81.3619C175.314 81.0888 177.225 85.7303 177.225 86.0033C177.225 86.2763 177.225 86.8224 176.952 86.8224C176.679 87.0954 176.133 86.8224 176.133 86.5494C176.133 86.2763 174.495 82.727 170.127 83C165.485 83.273 163.028 87.9145 163.028 87.9145C162.755 87.6415 162.482 87.6415 162.209 87.6415Z" fill="#3B251C"/>
<path d="M210.534 89.2797C210.534 91.4639 208.622 93.3751 206.438 93.3751C204.254 93.3751 202.343 91.4639 202.343 89.2797C202.343 87.0954 204.254 85.1843 206.438 85.1843C208.622 85.1843 210.534 87.0954 210.534 89.2797Z" fill="#322924"/>
<path d="M198.795 87.6415H198.522C198.249 87.3685 197.976 87.0955 198.249 86.8225C198.249 86.5494 200.706 81.3619 206.167 81.3619C211.627 81.0889 213.538 85.7303 213.538 86.0034C213.538 86.2764 213.538 86.8225 213.265 86.8225C212.992 87.0955 212.446 86.8224 212.446 86.5494C212.446 86.2764 210.808 83.0001 206.713 83.0001H206.44C201.798 83.2731 199.614 87.6415 199.614 87.9146C199.341 87.6415 199.068 87.6415 198.795 87.6415Z" fill="#3B251C"/>
<path d="M187.872 108.118C184.596 108.118 181.319 106.753 180.227 105.388C179.954 105.115 180.227 104.569 180.5 104.569C180.773 104.296 181.319 104.569 181.319 104.842C181.866 105.661 184.869 107.026 187.872 107.026C189.783 107.026 192.241 106.48 193.606 104.023C193.879 103.75 194.152 103.477 194.425 103.75C194.698 104.023 194.971 104.296 194.698 104.569C193.606 106.753 191.148 108.118 187.872 108.118Z" fill="#A55330"/>
<path d="M152.925 75.0822C157.02 66.3454 169.034 63.6151 177.77 66.8915C179.955 67.9836 178.863 71.2599 176.678 70.9869C173.129 70.4408 169.034 70.7138 165.211 71.5329C161.662 72.352 158.113 73.7171 155.655 76.4474C154.563 77.8125 152.379 76.7204 152.925 75.0822Z" fill="#3B251C"/>
<path d="M220.089 76.7203C213.537 72.6249 206.438 70.7137 198.52 70.9868C196.063 70.9868 195.517 67.4374 197.974 66.6183C202.07 65.2532 206.984 65.2532 211.353 66.8914C213.81 67.4374 224.731 73.99 222.001 76.4473C221.182 76.9933 220.635 76.9933 220.089 76.7203Z" fill="#3B251C"/>
<path d="M118.524 82.4539C118.251 82.4539 117.978 82.1809 117.978 81.9078C116.34 69.6217 135.998 65.2533 136.817 64.9802C137.09 64.9802 137.636 65.2532 137.636 65.5263C137.636 65.7993 137.363 66.3454 137.09 66.3454C136.817 66.3454 117.705 70.7138 119.343 81.6348C119.07 82.1809 118.797 82.4539 118.524 82.4539Z" fill="#3B251C"/>
<path d="M234.286 90.0987C223.911 90.0987 219.27 79.9967 219.27 79.9967C218.997 79.7237 219.27 79.1777 219.543 79.1777C219.816 78.9046 220.362 79.1777 220.362 79.4507C220.362 79.4507 225.276 89.5527 235.378 88.7336C245.48 87.9145 248.484 71.5329 248.484 71.5329C249.03 54.6053 240.02 50.5099 228.553 45.5954C223.638 43.4112 218.724 41.227 213.809 37.9507C213.536 37.6777 213.536 37.4046 213.536 37.1316C213.809 36.8586 214.082 36.8586 214.355 36.8586C218.997 40.1349 223.911 42.3191 228.826 44.5033C240.293 49.4178 250.122 53.7862 249.303 71.806C249.303 72.625 246.299 89.2796 235.105 90.3717C235.105 90.0987 234.832 90.0987 234.286 90.0987Z" fill="#3B251C"/>
<path d="M130.264 96.6513C129.991 96.6513 129.718 96.3782 129.718 96.3782C126.988 90.3717 128.626 86.2763 130.537 83.819C133.541 80.2697 138.455 78.6315 140.639 79.1776C140.912 79.1776 141.185 79.7236 141.185 79.9967C141.185 80.2697 140.639 80.5427 140.366 80.5427C138.455 79.9966 134.087 81.6348 131.629 84.6381C129.991 86.8223 128.353 90.3717 131.083 95.8322C131.356 96.1052 131.083 96.6513 130.81 96.6513C130.537 96.6513 130.537 96.6513 130.264 96.6513Z" fill="#3B251C"/>
<path d="M174.221 31.125C173.948 31.125 173.948 31.125 173.675 30.852C173.129 30.0329 174.221 24.8454 176.132 20.75C179.135 13.6513 187.053 1.63816 203.981 0C204.254 0 204.8 0.273026 204.8 0.546052C204.8 0.819078 204.527 1.36513 204.254 1.36513C195.244 2.18421 187.872 6.00658 182.412 12.8322C176.405 20.2039 174.767 28.9408 175.04 30.0329C175.04 30.3059 175.04 30.5789 174.767 30.852C174.494 31.125 174.494 31.125 174.221 31.125Z" fill="#3B251C"/>
<path d="M207.804 28.6677C207.531 28.6677 207.258 28.6677 207.258 28.3947C206.985 28.1217 207.258 27.5756 207.531 27.5756C207.531 27.5756 207.804 27.5756 207.804 27.3026C212.718 22.9342 225.277 13.6513 239.202 22.9342C239.475 23.2072 239.475 23.4802 239.475 23.7532C239.202 24.0263 238.929 24.0263 238.656 24.0263C225.55 15.5625 213.537 24.2993 208.896 28.3947C208.35 28.3947 208.077 28.3947 208.077 28.3947C208.077 28.6677 207.804 28.6677 207.804 28.6677Z" fill="#3B251C"/>
<path d="M166.577 29.4868C166.304 29.4868 166.031 29.2138 166.031 28.9408C166.031 28.6678 166.031 28.1217 166.577 28.1217C175.587 25.6645 176.406 18.5658 176.406 15.5625C176.406 11.4671 174.768 8.19079 173.13 7.64473C172.857 7.64473 172.584 7.09868 172.584 6.82566C172.584 6.55263 173.13 6.2796 173.403 6.2796C175.86 6.82565 177.771 10.9211 177.771 15.2895C177.771 22.3882 173.676 27.5757 166.577 29.4868C166.85 29.4868 166.85 29.4868 166.577 29.4868Z" fill="#934646"/>
<path d="M170.125 47.5065C172.309 50.2368 172.855 53.5131 170.944 55.1512C169.033 56.7894 165.756 55.9703 163.299 53.24C161.115 50.5098 160.569 47.2335 162.48 45.5953C164.391 44.2302 167.667 45.0493 170.125 47.5065Z" fill="#934646"/>
<path d="M163.846 52.6941C164.666 56.7895 163.027 60.6118 160.024 61.1579C157.021 61.7039 154.017 58.7006 153.198 54.6053C152.379 50.5099 154.017 46.6875 157.021 46.1414C160.024 45.5954 163.027 48.3256 163.846 52.6941Z" fill="#934646"/>
<path d="M218.179 61.431C215.995 62.5231 213.538 62.5231 212.719 60.885C211.899 59.5198 212.992 57.0626 214.903 55.9705C217.087 54.8784 219.544 54.8784 220.363 56.5165C221.182 57.8817 220.09 60.0659 218.179 61.431Z" fill="#934646"/>
<path d="M210.261 48.3256C207.531 54.0591 202.07 57.0624 198.248 55.1512C194.152 53.24 193.333 47.2334 195.79 41.4999C198.521 35.7663 203.981 32.7631 207.804 34.6742C211.899 36.5854 212.991 42.865 210.261 48.3256Z" fill="#934646"/>
<path d="M157.022 30.3058C156.749 30.3058 156.476 30.0328 156.476 30.0328C156.203 29.7598 152.381 21.569 140.094 24.0262C139.821 24.0262 139.275 23.7532 139.275 23.4802C139.275 23.2072 139.548 22.6611 139.821 22.6611C153.473 19.9308 157.841 29.2137 157.841 29.4868C158.114 29.7598 157.841 30.3058 157.568 30.3058C157.295 30.3058 157.022 30.3058 157.022 30.3058Z" fill="#3B251C"/>
<path d="M163.301 59.2466H163.028C162.755 58.9736 162.482 58.7006 162.755 58.4275C165.485 53.24 161.39 48.3256 161.117 48.0525C160.844 47.7795 160.844 47.2335 161.117 47.2335C161.39 46.9604 161.936 46.9604 161.936 47.2335C162.209 47.5065 166.85 52.967 163.847 58.9736C163.574 59.2466 163.574 59.2466 163.301 59.2466Z" fill="#3B251C"/>
<path d="M178.043 124.227C178.043 124.227 182.957 126.411 187.872 126.684C191.421 126.684 197.155 124.227 197.155 124.227C197.155 124.227 194.425 131.872 187.599 131.872C182.411 131.599 178.043 124.227 178.043 124.227Z" fill="#CF846C"/>
<path d="M199.34 121.497C199.34 124.773 194.152 128.595 187.599 128.595C181.047 128.595 175.859 124.227 175.859 120.678C175.859 117.128 181.047 116.309 187.599 116.309C194.152 116.582 199.34 118.22 199.34 121.497Z" fill="#322924"/>
<path d="M119.614 187.842L102.959 242.993L77.568 327.086L55.999 320.533L0.847656 299.51L53.2687 204.224C57.0911 197.125 62.5516 191.391 69.1042 187.569C72.6536 185.658 76.2029 184.02 80.0253 182.928C86.5779 181.289 93.9496 181.016 101.048 182.928L119.614 187.842Z" fill="#16A571"/>
<path d="M80.8453 313.161C80.5723 314.799 80.0263 316.438 78.9342 317.803C73.4736 324.628 57.3651 327.905 38.5263 325.447C23.2368 323.263 10.4046 317.803 4.12495 311.25C1.39469 308.247 -0.243468 305.243 0.0295584 302.24C0.302585 298.418 3.30587 295.415 8.22035 293.23C16.1381 289.681 28.4243 288.316 42.3486 289.954C62.2796 292.684 78.3881 301.148 80.5723 309.885C80.8453 310.977 81.1184 312.069 80.8453 313.161Z" fill="#322924"/>
<path d="M165.484 348.655C157.293 294.595 159.205 238.898 130.537 190.299C125.895 182.382 111.971 168.184 99.4119 168.457C89.8559 168.73 81.1191 173.645 72.1092 176.921C71.0171 177.194 69.925 177.74 68.8329 178.286C67.4678 177.74 65.8296 177.467 64.1915 177.194C54.6355 176.375 50.2671 181.836 48.629 185.931C47.5369 188.388 48.902 191.392 51.6323 192.211C53.8165 192.757 55.7276 193.849 57.6388 194.668C68.0138 200.128 77.0237 210.503 83.5763 219.513C87.3987 224.701 90.675 230.161 93.6783 236.168C94.7704 238.352 95.8625 240.263 96.6816 242.447C108.695 267.839 114.428 300.329 117.432 328.178C119.616 348.655 122.619 384.421 121.527 404.898L166.303 401.895C166.849 401.895 167.122 358.484 165.484 348.655Z" fill="#FDF3EA"/>
<path d="M75.6571 350.839C71.5617 366.128 58.1834 377.868 40.4367 381.145C40.4367 381.145 40.4367 381.145 40.1637 381.145C21.8709 384.967 9.03867 372.135 6.58143 358.757C3.85117 342.648 8.49262 320.26 16.9564 298.418C18.0485 295.415 19.1406 292.411 20.2327 289.681C27.6045 288.589 39.3446 289.135 52.4499 291.319C68.2854 294.049 81.9367 298.691 87.3972 302.786C88.4893 303.605 89.3084 304.424 89.5814 305.243L88.2163 308.793C83.8479 321.625 79.2064 337.734 75.6571 350.839Z" fill="#FDA78A"/>
<path d="M90.1271 200.674C89.854 200.674 89.581 200.674 89.581 200.401C73.1994 173.645 59.0021 179.651 58.729 179.651C58.456 179.924 57.91 179.651 57.91 179.378C57.6369 179.105 57.91 178.559 58.183 178.559C58.729 178.286 73.7455 172.007 90.6731 199.855C90.9462 200.128 90.6731 200.674 90.4001 200.674H90.1271Z" fill="#3B251C"/>
<path d="M69.3769 180.197C69.1039 180.197 68.8309 180.197 68.8309 179.924C68.5578 179.651 68.8309 179.105 69.1039 179.105C69.6499 178.832 82.4822 170.095 95.5874 169.822C111.423 169.549 115.791 175.283 116.064 175.556C116.337 175.829 116.337 176.375 116.064 176.375C115.791 176.648 115.245 176.648 115.245 176.375C115.245 176.375 110.877 170.914 95.8605 171.187C83.3013 171.46 70.469 180.197 70.196 180.47C69.6499 180.197 69.3769 180.197 69.3769 180.197Z" fill="#3B251C"/>
<path d="M83.5765 173.099C83.3035 173.099 83.3035 173.099 83.0305 172.826C83.0305 172.826 77.57 167.365 84.1226 160.266C90.4022 153.441 111.152 149.072 111.971 149.072C112.244 149.072 112.79 149.345 112.79 149.618C112.79 149.891 112.517 150.437 112.244 150.437C111.971 150.437 91.2213 154.806 85.2147 161.359C79.4811 167.365 83.8496 172.007 84.1226 172.007C84.3956 172.28 84.3956 172.826 84.1226 172.826C84.1226 173.099 83.8496 173.099 83.5765 173.099Z" fill="#3B251C"/>
<path d="M168.761 170.641C168.761 170.641 148.557 246.27 100.504 323.263C87.3992 344.013 67.1952 373.773 52.1788 377.322C54.09 378.688 36.8893 366.128 27.8794 351.112C15.5932 330.635 19.4156 304.151 34.4321 285.586L63.6459 249.546L142.004 149.891L168.761 170.641Z" fill="#FDA78A"/>
<path d="M6.58219 292.138H6.30916C6.03613 291.865 6.03613 291.592 6.03613 291.319C19.4144 270.569 46.717 262.651 50.2664 263.47C50.5394 263.47 50.8124 264.016 50.8124 264.289C50.8124 264.562 50.2664 264.836 49.9934 264.836C47.5361 264.289 21.0526 271.115 7.40126 292.138C7.12824 292.138 6.85521 292.138 6.58219 292.138Z" fill="#3B251C"/>
<path d="M168.216 172.006L140.641 153.168L133.269 120.951C132.996 117.674 135.726 114.671 139.002 114.398L151.562 113.579L167.943 132.964C173.95 140.062 175.588 149.618 172.858 158.355L168.216 172.006Z" fill="#FDA78A"/>
<path d="M133.816 122.589C132.997 111.941 132.997 101.566 137.912 91.1908C141.461 85.1843 147.468 75.6283 151.29 69.8948C152.928 67.1645 157.023 69.0757 156.204 72.079C153.747 80.5428 150.198 88.1876 146.375 95.8323C144.737 99.6547 144.737 104.023 144.737 108.665C144.737 113.033 145.01 117.401 145.283 121.497C145.829 129.141 134.635 129.961 133.816 122.589Z" fill="#FDA78A"/>
<path d="M146.374 123.954C143.098 114.671 140.914 105.115 143.917 95.5592C144.19 95.0132 144.463 93.9211 145.009 93.375C145.555 92.556 148.558 88.1875 149.105 87.3684C151.289 84.3652 153.746 81.3619 156.203 78.3586C157.295 77.2665 158.933 77.2665 160.026 78.0856C160.845 78.9046 161.118 79.9967 160.845 81.0888C159.48 84.6382 157.841 88.1875 156.203 91.4638L154.019 96.6513L153.473 97.7435C153.473 98.0165 153.746 97.1974 153.473 97.7435C152.108 104.842 155.111 113.033 157.295 119.859C159.753 127.23 149.378 131.053 146.374 123.954Z" fill="#FDA78A"/>
<path d="M158.661 202.312C158.661 202.312 158.388 202.312 158.661 202.312C158.115 202.312 157.842 201.766 158.115 201.493C158.115 201.22 171.494 160.539 173.678 147.434C175.316 137.332 166.033 128.868 160.3 123.681C158.661 122.316 157.569 121.224 156.75 120.405C153.201 116.309 151.017 100.747 151.017 100.201V99.9276C151.29 99.3815 156.75 86.8223 159.208 82.7269C160.846 79.9967 159.208 78.0855 158.388 77.5394C156.204 79.7236 144.464 90.6447 143.918 96.6513C143.099 103.204 143.918 122.862 143.918 123.135C143.918 123.408 143.645 123.681 143.372 123.681C143.099 123.681 142.826 123.408 142.826 123.135C142.826 122.316 142.007 103.204 142.826 96.6513C143.645 89.8256 157.569 76.9934 158.115 76.4473C158.388 76.1743 158.661 76.1743 158.935 76.4473C160.3 77.2664 162.484 79.9967 160.3 83.546C158.115 87.0954 152.928 98.8355 152.382 100.474C152.655 102.112 154.566 116.309 157.842 119.859C158.388 120.678 159.754 121.77 161.119 123.135C166.852 128.322 176.681 137.059 174.77 147.98C172.586 161.085 159.208 201.766 158.935 202.039C159.208 202.039 158.934 202.312 158.661 202.312Z" fill="#A55330"/>
<path d="M254.395 188.262L271.048 243.413L296.438 327.505L318.005 320.953L373.152 299.93L320.735 204.644C316.913 197.545 311.453 191.811 304.901 187.989C301.352 186.078 297.803 184.44 293.98 183.348C287.428 181.709 280.057 181.436 272.959 183.348L254.395 188.262Z" fill="#16A571"/>
<path d="M293.161 313.581C293.434 315.219 293.98 316.858 295.072 318.223C300.532 325.048 316.639 328.325 335.477 325.867C350.765 323.683 363.596 318.223 369.875 311.67C372.605 308.667 374.243 305.663 373.97 302.66C373.697 298.838 370.694 295.835 365.78 293.65C357.863 290.101 345.578 288.736 331.654 290.374C311.725 293.104 295.618 301.568 293.434 310.305C293.161 311.397 292.888 312.489 293.161 313.581Z" fill="#322924"/>
<path d="M208.528 349.075C216.718 295.015 214.807 239.318 243.473 190.719C248.114 182.802 262.037 168.604 274.596 168.877C284.151 169.15 292.887 174.065 301.896 177.341C302.988 177.614 304.08 178.16 305.172 178.706C306.538 178.16 308.176 177.887 309.814 177.614C319.369 176.795 323.737 182.256 325.375 186.351C326.467 188.808 325.102 191.811 322.372 192.631C320.188 193.177 318.277 194.269 316.366 195.088C305.992 200.548 296.982 210.923 290.43 219.933C286.608 225.121 283.332 230.581 280.329 236.588C279.237 238.772 278.145 240.683 277.326 242.867C265.314 268.259 259.58 300.749 256.577 328.598C254.393 349.075 251.39 384.841 252.482 405.318L207.709 402.315C207.163 402.315 206.89 358.904 208.528 349.075Z" fill="#FDF3EA"/>
<path d="M251.761 405.324C251.521 407.495 241.511 408.583 229.239 407.773C216.968 406.963 207.048 404.765 207.017 402.564C207.257 400.393 217.267 399.304 229.539 400.115C241.81 400.925 251.7 403.394 251.761 405.324Z" fill="#322924"/>
<path d="M298.348 351.259C302.443 366.548 315.82 378.288 333.566 381.565C333.566 381.565 333.566 381.565 333.839 381.565C352.13 385.387 364.962 372.555 367.419 359.177C370.149 343.068 365.508 320.68 357.044 298.838C355.952 295.835 354.86 292.831 353.768 290.101C346.397 289.009 334.658 289.555 321.554 291.739C305.719 294.469 292.069 299.111 286.609 303.206C285.517 304.025 284.698 304.844 284.425 305.663L285.79 309.213C290.158 322.045 294.799 338.154 298.348 351.259Z" fill="#FDA78A"/>
<path d="M283.88 201.094C284.153 201.094 284.426 201.094 284.426 200.821C300.807 174.065 315.003 180.071 315.276 180.071C315.549 180.344 316.095 180.071 316.095 179.798C316.368 179.525 316.095 178.979 315.822 178.979C315.276 178.706 300.261 172.427 283.334 200.275C283.061 200.548 283.334 201.094 283.607 201.094H283.88Z" fill="#3B251C"/>
<path d="M304.628 180.617C304.901 180.617 305.174 180.617 305.174 180.344C305.447 180.071 305.174 179.525 304.901 179.525C304.355 179.252 291.524 170.515 278.419 170.242C262.585 169.969 258.217 175.703 257.944 175.976C257.671 176.249 257.671 176.795 257.944 176.795C258.217 177.068 258.763 177.068 258.763 176.795C258.763 176.795 263.131 171.334 278.146 171.607C290.705 171.88 303.536 180.617 303.809 180.89C304.355 180.617 304.628 180.617 304.628 180.617Z" fill="#3B251C"/>
<path d="M290.43 173.519C290.703 173.519 290.703 173.519 290.976 173.246C290.976 173.246 296.436 167.785 289.884 160.686C283.604 153.861 262.856 149.492 262.037 149.492C261.764 149.492 261.218 149.765 261.218 150.038C261.218 150.311 261.491 150.857 261.764 150.857C262.037 150.857 282.785 155.226 288.791 161.778C294.525 167.785 290.157 172.427 289.884 172.427C289.611 172.7 289.611 173.246 289.884 173.246C289.884 173.519 290.157 173.519 290.43 173.519Z" fill="#3B251C"/>
<path d="M205.252 171.061C205.252 171.061 225.454 246.69 273.503 323.683C286.608 344.433 306.81 374.193 321.825 377.742C319.914 379.108 337.114 366.548 346.123 351.532C358.408 331.055 354.586 304.571 339.571 286.006L310.359 249.966L232.006 150.311L205.252 171.061Z" fill="#FDA78A"/>
<path d="M367.419 292.558H367.692C367.965 292.285 367.965 292.012 367.965 291.739C354.588 270.989 327.287 263.071 323.738 263.89C323.465 263.89 323.192 264.436 323.192 264.71C323.192 264.983 323.738 265.256 324.011 265.256C326.468 264.71 352.949 271.535 366.6 292.558C366.873 292.558 367.146 292.558 367.419 292.558Z" fill="#3B251C"/>
<path d="M205.796 172.426L233.37 153.588L240.741 121.371C241.014 118.094 238.284 115.091 235.008 114.818L222.449 113.999L206.069 133.384C200.063 140.482 198.425 150.038 201.155 158.775L205.796 172.426Z" fill="#FDA78A"/>
<path d="M240.194 123.009C241.013 112.361 241.013 101.986 236.098 91.6108C232.549 85.6042 226.543 76.0483 222.721 70.3148C221.083 67.5845 216.988 69.4957 217.807 72.499C220.264 80.9628 223.813 88.6075 227.635 96.2523C229.273 100.075 229.273 104.443 229.273 109.085C229.273 113.453 229 117.821 228.727 121.917C228.181 129.561 239.375 130.381 240.194 123.009Z" fill="#FDA78A"/>
<path d="M227.637 124.374C230.913 115.091 233.097 105.535 230.094 95.9792C229.821 95.4332 229.548 94.3411 229.002 93.795C228.456 92.9759 225.453 88.6075 224.907 87.7884C222.723 84.7851 220.266 81.7819 217.809 78.7786C216.717 77.6865 215.078 77.6865 213.986 78.5055C213.167 79.3246 212.894 80.4167 213.167 81.5088C214.532 85.0582 216.17 88.6075 217.809 91.8838L219.993 97.0713L220.539 98.1634C220.539 98.4365 220.266 97.6174 220.539 98.1634C221.904 105.262 218.901 113.453 216.717 120.279C214.259 127.65 224.634 131.473 227.637 124.374Z" fill="#FDA78A"/>
<path d="M215.349 202.732C215.349 202.732 215.622 202.732 215.349 202.732C215.895 202.732 216.168 202.186 215.895 201.913C215.895 201.64 202.518 160.959 200.334 147.854C198.696 137.752 207.978 129.288 213.711 124.101C215.349 122.736 216.441 121.644 217.261 120.825C220.81 116.729 222.994 101.167 222.994 100.621V100.348C222.721 99.8015 217.261 87.2423 214.803 83.1469C213.165 80.4167 214.803 78.5055 215.622 77.9594C217.807 80.1436 229.546 91.0647 230.092 97.0713C230.911 103.624 230.092 123.282 230.092 123.555C230.092 123.828 230.365 124.101 230.638 124.101C230.911 124.101 231.184 123.828 231.184 123.555C231.184 122.736 232.003 103.624 231.184 97.0713C230.365 90.2456 216.441 77.4134 215.895 76.8673C215.622 76.5943 215.349 76.5943 215.076 76.8673C213.711 77.6864 211.527 80.4167 213.711 83.966C215.895 87.5153 221.083 99.2555 221.629 100.894C221.356 102.532 219.445 116.729 216.168 120.278C215.622 121.098 214.257 122.19 212.892 123.555C207.159 128.742 197.331 137.479 199.242 148.4C201.426 161.505 214.803 202.186 215.076 202.459C214.803 202.459 215.076 202.732 215.349 202.732Z" fill="#A55330"/>
<path d="M153.2 82.7269H152.927C152.654 82.4539 152.654 82.1808 152.654 81.9078C152.654 81.9078 154.565 78.9045 155.112 73.9901C155.385 69.3486 153.746 68.5295 153.746 68.5295C153.473 68.5295 153.2 67.9835 153.473 67.7105C153.473 67.4374 154.019 67.1644 154.292 67.4374C154.565 67.4374 156.75 68.5295 156.477 74.2631C156.204 79.7236 154.019 82.7269 154.019 82.9999C153.746 82.4539 153.473 82.7269 153.2 82.7269Z" fill="#A55330"/>
<path d="M20.505 324.355C20.232 324.355 19.959 324.082 19.959 323.809C21.8702 304.97 27.8767 290.227 37.7057 280.671C37.9787 280.398 37.9787 280.398 38.2517 280.125C38.5248 279.852 38.7978 279.852 39.0708 280.125C39.3439 280.398 39.3439 280.671 39.0708 280.944C39.0708 280.944 38.7978 281.217 38.5248 281.49C28.9689 290.5 22.9623 305.243 21.3241 323.809C21.0511 324.355 20.7781 324.355 20.505 324.355Z" fill="#A55330"/>
<path d="M166.849 401.895C166.849 404.079 157.02 406.263 144.733 406.809C132.447 407.355 122.345 406.263 122.072 404.079C122.072 401.895 131.901 399.711 144.187 399.165C156.474 398.618 166.576 399.984 166.849 401.895Z" fill="#322924"/>
</svg>
