<svg width="305" height="488" viewBox="0 0 305 488" fill="none" xmlns="http://www.w3.org/2000/svg">
<path d="M90.3958 100.282C86.6999 89.6583 83.0041 78.8032 81.1562 67.7172C79.3083 56.6312 79.3083 44.8523 83.0041 34.2282C83.4661 32.6115 88.3169 21.7565 90.1648 21.7565C91.3197 21.7565 88.5479 31.9186 89.0098 33.0734C95.2466 43.0047 97.0945 55.2455 96.4015 66.7934C95.7086 78.3413 93.3986 88.9654 90.3958 100.282Z" fill="#E0E0E0"/>
<path d="M92.7053 149.708L89.4714 57.786C87.8545 29.3781 101.021 4.20362 129.433 3.27979H132.436C158.537 3.97266 179.788 24.7589 181.174 51.0882C182.329 75.8008 183.484 103.285 183.022 116.45C181.867 143.703 154.38 147.167 154.38 147.167L154.611 154.096C154.611 154.096 150.684 188.509 148.143 188.74C145.371 188.74 92.7053 149.708 92.7053 149.708Z" fill="#FFBF9D"/>
<path d="M154.379 147.167C154.379 147.167 137.055 147.629 119.269 135.619C119.269 135.619 127.353 155.712 154.61 154.096L154.379 147.167Z" fill="#FF9A6C"/>
<path d="M169.624 76.7246C169.624 78.8033 168.007 80.42 165.697 80.6509C163.618 80.6509 161.771 79.0342 161.771 76.9556C161.771 74.877 163.387 73.2603 165.697 73.0293C168.007 73.0293 169.624 74.646 169.624 76.7246Z" fill="#263238"/>
<path d="M174.938 66.1005C174.476 66.5624 171.473 64.2528 167.315 64.2528C163.157 64.0219 159.923 66.1005 159.462 65.6386C159.231 65.4076 159.693 64.4838 161.078 63.56C162.464 62.6361 164.774 61.7123 167.315 61.9432C169.856 61.9432 172.166 63.098 173.321 64.0219C174.938 64.9457 175.169 65.8695 174.938 66.1005Z" fill="#263238"/>
<path d="M132.436 76.0318C132.436 78.1104 130.819 79.7271 128.509 79.9581C126.43 79.9581 124.582 78.3414 124.582 76.2627C124.582 74.1841 126.199 72.5674 128.509 72.3364C130.588 72.3364 132.436 73.9531 132.436 76.0318Z" fill="#263238"/>
<path d="M136.593 66.3315C136.131 66.7934 133.128 64.4838 128.97 64.4838C124.813 64.2528 121.579 66.3315 121.117 65.8695C120.886 65.6386 121.348 64.7147 122.734 63.7909C124.12 62.8671 126.43 61.9432 128.97 62.1742C131.511 62.1742 133.821 63.329 134.976 64.2528C136.593 65.1767 136.824 66.1005 136.593 66.3315Z" fill="#263238"/>
<path d="M149.067 98.6657C149.067 98.4348 151.608 97.9729 155.996 97.7419C157.151 97.7419 158.075 97.511 158.306 96.8181C158.537 96.1252 158.075 94.9704 157.613 93.5847C156.689 91.0441 155.765 88.2726 154.61 85.2702C150.684 73.4913 147.681 64.022 148.143 63.791C148.605 63.56 152.3 73.0293 156.227 84.8082C157.151 87.8107 158.075 90.3512 158.999 93.1227C159.461 94.2775 159.923 95.6633 159.461 97.28C159.23 97.9729 158.306 98.6657 157.613 98.8967C156.92 99.1277 156.227 99.1277 155.765 99.1277C151.608 99.1277 149.067 98.8967 149.067 98.6657Z" fill="#263238"/>
<path d="M136.362 52.936C135.9 54.0907 131.743 53.3979 126.892 53.8598C122.041 54.3217 117.883 55.4765 117.421 54.5527C117.19 54.0907 117.883 52.936 119.5 52.0121C121.117 50.8573 123.658 49.9335 126.661 49.7025C129.664 49.4716 132.205 49.9335 134.052 50.8573C135.669 51.5502 136.593 52.474 136.362 52.936Z" fill="#E0E0E0"/>
<path d="M176.785 51.7812C175.861 52.705 172.627 52.0121 168.469 52.0121C164.542 52.0121 161.077 52.9359 160.153 52.0121C159.691 51.5502 160.384 50.6264 161.77 49.7025C163.156 48.7787 165.697 47.8549 168.469 47.8549C171.241 47.8549 173.782 48.5477 175.168 49.4716C176.554 50.3954 177.016 51.3192 176.785 51.7812Z" fill="#E0E0E0"/>
<path d="M92.0124 77.8794C91.5504 77.6484 73.5332 71.8745 73.5332 90.3512C73.5332 109.059 92.2434 105.133 92.2434 104.671C92.2434 103.978 92.0124 77.8794 92.0124 77.8794Z" fill="#FFBF9D"/>
<path d="M86.2375 97.511C86.2375 97.511 86.0065 97.7419 85.3136 97.9729C84.8516 98.2038 83.9276 98.4348 82.7727 97.9729C80.6938 97.28 79.0769 94.0466 79.0769 90.8132C79.0769 89.1965 79.3078 87.5797 80.0008 86.194C80.4628 84.8082 81.3868 83.8844 82.5417 83.6535C83.4657 83.4225 84.1586 84.1154 84.3896 84.5773C84.6206 85.0392 84.6206 85.5011 84.6206 85.5011C84.6206 85.5011 85.0826 85.2702 84.8516 84.3463C84.8516 83.8844 84.6206 83.4225 84.1586 83.1915C83.6966 82.7296 83.0037 82.7296 82.3107 82.7296C80.9248 82.7296 79.5388 84.1154 78.8459 85.7321C78.1529 87.1178 77.6909 88.9655 77.6909 91.0441C77.9219 94.7395 79.7698 98.2038 82.5417 99.1277C83.9276 99.3586 84.8516 99.1277 85.5446 98.6658C86.2375 97.9729 86.2375 97.511 86.2375 97.511Z" fill="#FF9A6C"/>
<path d="M169.624 20.8326C172.627 19.2159 163.387 9.51566 155.995 6.05128C144.908 1.20115 127.584 -1.80131 117.42 1.20115C104.947 4.89649 94.7831 11.1324 88.5463 22.4493C82.3096 33.7663 80.2307 47.1619 80.6927 60.0956C80.9237 64.0219 81.3857 68.1791 83.4646 71.4126C86.0055 75.5698 91.0872 78.1104 91.0872 83.6534C91.0872 85.732 91.5492 87.8106 93.1661 89.4273C96.631 93.1227 100.789 89.6583 102.637 86.1939C106.564 78.8032 107.026 70.0268 107.257 61.7123C107.487 55.7074 107.718 49.7025 105.871 43.9285C104.947 40.926 103.33 37.9236 102.637 34.6902C101.944 31.4567 101.944 27.9924 103.792 25.4518C104.023 24.9899 104.716 24.528 105.178 23.8351C110.49 19.2159 117.882 17.5992 124.35 19.9088C134.975 23.6041 152.992 28.9162 157.612 25.2208C164.311 20.3707 165.928 16.9063 165.928 16.9063L169.624 20.8326Z" fill="#E0E0E0"/>
<path d="M131.28 88.9654C131.28 88.7344 132.204 88.7344 134.052 88.5035C135.669 88.0416 138.209 87.1177 140.288 84.8082C141.443 83.6534 142.367 82.2676 143.06 80.6509C143.291 80.189 143.291 79.7271 143.522 79.2651C143.522 78.8032 143.753 78.1103 143.753 78.1103C143.753 77.8794 143.522 77.6484 143.291 77.6484C143.06 77.6484 142.367 77.6484 141.905 77.6484C137.516 77.6484 132.897 77.6484 128.046 77.6484C125.505 77.6484 123.195 77.6484 120.885 77.6484C119.73 77.6484 118.575 77.6484 117.42 77.6484H116.496C116.265 77.6484 116.034 77.6484 115.803 77.6484C115.572 77.6484 115.341 77.8794 115.341 78.3413C116.034 82.0366 118.575 85.2701 121.347 86.8868C124.119 88.5035 126.66 88.9654 128.277 88.9654C130.125 88.7344 131.28 88.7344 131.28 88.9654C131.28 88.9654 130.356 89.1964 128.508 89.1964C126.66 89.4273 123.888 89.1964 120.885 87.3487C117.882 85.732 115.11 82.7295 114.187 77.8794C114.187 76.9556 114.649 76.2627 115.572 76.0317C116.034 75.8008 116.265 76.0317 116.496 76.0317H117.42C118.575 76.0317 119.73 76.0317 120.885 76.0317C123.195 76.0317 125.505 76.0317 128.046 76.0317C132.897 76.0317 137.516 76.0317 141.905 76.0317C142.598 76.0317 142.829 76.0317 143.522 76.0317C144.215 76.2627 144.908 76.9556 144.908 77.6484C144.908 79.0342 144.446 79.7271 143.984 80.6509C143.291 82.4986 142.136 83.8843 140.981 85.0391C138.44 87.3487 135.9 88.2725 134.052 88.5035C132.204 89.1964 131.28 88.9654 131.28 88.9654Z" fill="#263238"/>
<path d="M170.781 88.9654C170.781 88.7344 171.705 88.7344 173.553 88.5035C175.17 88.0416 177.71 87.1177 179.789 84.8082C180.944 83.6534 181.868 82.2676 182.561 80.6509C182.792 80.189 182.792 79.7271 183.023 79.2651C183.023 78.8032 183.254 78.1103 183.254 78.1103C183.254 77.8794 183.023 77.6484 182.792 77.6484C182.561 77.6484 181.868 77.6484 181.406 77.6484C177.017 77.6484 172.398 77.6484 167.547 77.6484C165.006 77.6484 162.696 77.6484 160.386 77.6484C159.231 77.6484 158.076 77.6484 156.921 77.6484H155.997C155.766 77.6484 155.535 77.6484 155.304 77.6484C155.073 77.6484 154.842 77.8794 154.842 78.3413C155.535 82.0366 158.076 85.2701 160.848 86.8868C163.62 88.5035 166.161 88.9654 167.778 88.9654C169.626 88.7344 170.781 88.7344 170.781 88.9654C170.781 88.9654 169.857 89.1964 168.009 89.1964C166.161 89.4273 163.389 89.1964 160.386 87.3487C157.383 85.732 154.611 82.7295 153.688 77.8794C153.688 76.9556 154.149 76.2627 155.073 76.0317C155.535 75.8008 155.766 76.0317 155.997 76.0317H156.921C158.076 76.0317 159.231 76.0317 160.386 76.0317C162.696 76.0317 165.006 76.0317 167.547 76.0317C172.398 76.0317 177.017 76.0317 181.406 76.0317C182.099 76.0317 182.33 76.0317 183.023 76.0317C183.716 76.2627 184.409 76.9556 184.409 77.6484C184.409 79.0342 183.947 79.7271 183.485 80.6509C182.792 82.4986 181.637 83.8843 180.482 85.0391C177.941 87.3487 175.401 88.2725 173.553 88.5035C171.705 89.1964 170.781 88.9654 170.781 88.9654Z" fill="#263238"/>
<path d="M155.304 77.6485C155.073 77.8794 152.994 76.0318 149.76 76.0318C146.526 76.0318 144.447 77.8794 144.216 77.4175C143.985 77.1865 144.447 76.7246 145.371 76.0318C146.295 75.3389 147.912 74.646 149.76 74.646C151.608 74.646 153.225 75.3389 154.149 76.0318C155.073 76.9556 155.304 77.4175 155.304 77.6485Z" fill="#263238"/>
<path d="M129.894 85.9629C129.663 85.732 131.279 83.8843 133.589 82.0366C135.899 80.189 137.978 79.0342 138.209 79.2651C138.44 79.4961 136.823 81.3438 134.513 83.1914C132.203 85.0391 130.125 86.1939 129.894 85.9629Z" fill="white"/>
<path d="M128.507 83.8843C128.276 83.6534 128.507 82.7295 129.431 82.0367C130.124 81.3438 131.048 80.8819 131.279 81.1128C131.51 81.3438 131.279 82.2676 130.355 82.9605C129.662 83.6534 128.738 84.1153 128.507 83.8843Z" fill="white"/>
<path d="M85.3125 76.4936C85.3125 76.0317 92.0112 76.0317 100.096 76.2627C108.18 76.4936 114.879 76.9555 114.879 77.1865C114.879 77.6484 108.18 77.6484 100.096 77.4175C91.7802 77.4175 85.3125 76.9555 85.3125 76.4936Z" fill="#263238"/>
<path d="M134.051 105.363C134.282 104.902 137.285 106.749 141.212 107.442C145.139 108.366 148.372 106.98 148.603 107.673C148.603 107.904 148.141 108.597 146.525 109.059C145.139 109.521 143.06 109.752 140.75 109.29C136.361 108.366 133.589 105.594 134.051 105.363Z" fill="#263238"/>
<path d="M106.796 49.7025L82.0798 38.1545C82.0798 38.1545 79.3079 44.6214 80.0009 48.7786L107.027 61.0194C107.027 60.7885 107.258 52.7049 106.796 49.7025Z" fill="white"/>
<path d="M231.3 387.826C231.3 379.511 221.136 273.039 217.441 244.632C213.052 211.604 205.198 176.73 204.043 176.037L168.471 169.108L154.611 154.096C155.073 155.02 143.755 171.187 143.755 171.187L91.7821 141.624C89.9342 143.01 81.1566 160.101 81.1566 160.101C81.1566 160.101 42.8123 173.727 41.6574 174.882C40.7334 175.806 30.5698 305.143 30.8008 307.221C31.2628 310.686 29.8769 365.885 29.8769 365.885L22.9472 415.079C20.4063 424.779 24.3331 428.936 34.4967 431.939L216.055 443.487C222.522 440.946 222.06 435.865 222.06 429.167L231.3 387.826Z" fill="#E0E0E0"/>
<path d="M154.842 191.511L150.453 198.902H140.752L135.439 189.894L141.214 178.346L147.681 178.577L154.842 191.511Z" fill="#16A571"/>
<path d="M150.453 198.902L180.019 393.138L161.309 424.086L129.664 391.521L140.751 198.902H150.453Z" fill="#16A571"/>
<path d="M243.542 204.907C228.297 171.187 173.09 171.418 173.09 171.418C173.09 171.418 210.973 321.31 212.359 322.926C213.745 324.543 274.726 283.433 274.726 283.433C274.726 283.433 259.018 239.319 243.542 204.907Z" fill="#E0E0E0"/>
<path d="M207.507 266.342C207.507 273.963 202.195 280.199 195.496 280.199C188.797 280.199 183.484 273.963 183.484 266.342C183.484 258.72 188.797 252.484 195.496 252.484C202.195 252.484 207.507 258.72 207.507 266.342Z" fill="#FF725E"/>
<path d="M86.7 257.565C86.7 257.565 87.6239 257.565 89.2408 257.565C91.3198 257.565 93.8606 257.565 96.8635 257.565C103.562 257.796 113.033 257.796 124.12 258.258H124.582V258.72C125.275 262.646 126.199 267.035 127.123 271.654V272.116L126.892 272.347C125.275 273.732 123.427 275.349 121.579 276.735C117.884 279.737 114.419 282.74 111.185 285.511L110.954 285.742L110.492 285.511C100.79 281.123 92.0127 277.197 85.083 273.963L84.8521 273.732V273.501C85.314 268.42 85.776 264.263 86.007 261.492C86.469 258.951 86.7 257.334 86.7 257.565C86.7 257.565 86.7 259.182 86.469 261.953C86.238 264.956 86.007 268.882 85.776 273.732L85.545 273.27C92.4747 276.273 101.252 280.199 110.954 284.356H110.261C113.495 281.585 117.191 278.582 120.655 275.58C122.503 273.963 124.351 272.578 125.968 271.192L125.737 271.885C124.813 267.496 124.12 263.108 123.196 258.951L123.889 259.413C113.033 258.951 103.793 258.489 97.0945 258.027C93.8606 257.796 91.3198 257.565 89.2408 257.565C87.8549 257.565 86.7 257.565 86.7 257.565Z" fill="#263238"/>
<path d="M221.367 218.995C221.829 218.995 223.215 245.093 224.601 277.428C225.987 309.762 226.68 335.86 226.218 335.86C225.756 335.86 224.37 309.762 222.984 277.428C221.829 245.093 221.136 218.995 221.367 218.995Z" fill="#263238"/>
<path d="M170.317 171.649C170.548 171.649 169.162 174.651 166.852 178.808C164.542 183.197 160.847 188.971 156.227 194.514C155.996 194.745 155.765 194.976 155.534 195.206L155.072 195.899L154.61 194.976C151.376 188.278 148.604 182.504 146.756 178.116C144.908 173.727 143.753 170.956 143.753 170.956C143.984 170.956 145.37 173.496 147.449 177.654C149.528 181.811 152.531 187.816 155.534 194.283L154.61 194.052C154.841 193.821 155.072 193.59 155.303 193.359C159.923 187.816 163.619 182.042 165.928 178.116C168.7 174.42 170.086 171.649 170.317 171.649Z" fill="#263238"/>
<path d="M143.985 171.418C143.985 171.418 143.754 172.803 143.061 174.882C142.368 177.192 141.213 180.194 139.596 183.889C138.672 185.737 137.748 187.816 136.593 189.894C135.9 190.818 135.438 191.973 134.745 193.128C134.052 194.283 133.359 195.437 132.204 196.13C131.511 196.592 130.818 196.823 130.125 196.823C129.432 196.823 128.739 196.361 128.046 196.13C126.892 195.437 125.737 194.744 124.582 194.052C122.272 192.666 119.731 191.28 117.19 189.663C107.257 183.428 98.4798 177.423 92.2431 172.572C89.2402 170.263 86.6993 168.184 85.0824 166.798C83.4655 165.413 82.5415 164.489 82.5415 164.489C82.5415 164.489 83.6964 165.182 85.3134 166.337C87.3923 167.722 89.7022 169.57 92.705 171.649C98.9418 176.037 107.719 182.042 117.883 188.278C120.424 189.894 122.734 191.28 125.275 192.666C126.43 193.359 127.584 194.052 128.739 194.744C129.894 195.437 130.818 195.668 131.742 194.975C132.666 194.283 133.359 193.359 134.052 192.204C134.745 191.28 135.438 190.125 135.9 189.201C137.055 187.123 138.21 185.275 139.134 183.428C140.982 179.732 142.137 176.73 143.061 174.651C143.523 172.572 143.985 171.187 143.985 171.418Z" fill="#263238"/>
<path d="M72.3784 234.7C72.3784 234.7 72.8404 235.624 73.3024 237.703C73.7644 239.55 74.4573 242.322 75.1503 245.786C76.5362 252.715 77.9222 262.415 79.0771 273.039C80.2321 283.664 81.156 293.595 81.618 300.524C81.849 303.757 82.08 306.528 82.311 308.838C82.311 310.917 82.542 311.841 82.311 311.841C82.311 311.841 82.08 310.686 81.618 308.838C81.387 306.99 80.925 303.988 80.694 300.524C80.0011 293.133 78.8461 283.664 77.6912 273.039C76.5362 262.415 75.1503 252.715 73.9953 245.786C73.5334 242.322 72.8404 239.55 72.6094 237.472C72.3784 235.855 72.3784 234.7 72.3784 234.7Z" fill="#263238"/>
<path d="M181.866 169.339C190.644 170.263 199.19 170.263 207.275 173.727C208.892 174.42 210.74 175.344 211.895 176.499C214.898 179.501 214.898 183.89 214.205 188.278C213.974 189.664 212.588 190.356 211.433 189.894C202.193 186.43 190.875 183.89 181.404 184.582C179.787 184.813 177.939 184.813 176.784 183.428C176.322 182.735 176.091 181.811 176.091 180.887C176.091 177.654 175.86 176.268 175.86 173.035C175.86 172.111 175.86 171.649 176.553 170.725C177.939 169.108 180.249 169.108 181.866 169.339Z" fill="#E0E0E0"/>
<path d="M181.866 169.339C181.866 169.339 181.404 169.339 180.942 169.339C180.249 169.339 179.325 169.339 178.171 169.801C177.709 170.032 177.247 170.494 177.016 171.187C176.785 171.88 176.785 172.573 176.785 173.496C176.785 175.344 177.016 177.423 177.016 179.732C177.016 180.887 177.016 182.042 177.709 182.966C178.402 183.89 179.556 183.89 180.942 183.89C183.714 183.659 186.486 183.659 189.72 183.89C195.726 184.352 202.424 185.737 209.123 188.047C210.047 188.278 210.74 188.509 211.664 188.971C212.126 189.202 212.357 189.202 212.819 189.202C213.05 189.202 213.512 189.202 213.743 188.971C214.205 188.509 214.436 188.047 214.436 187.123C214.436 186.199 214.667 185.506 214.667 184.583C214.898 181.349 213.974 178.116 211.895 176.268C210.74 175.344 209.585 174.651 208.199 174.189C206.813 173.727 205.658 173.035 204.272 172.804C201.731 172.111 199.191 171.418 197.112 171.187C192.492 170.494 188.796 170.263 186.255 169.801C184.869 169.57 183.945 169.57 183.252 169.339C182.328 169.339 181.866 169.339 181.866 169.339C181.866 169.339 183.252 169.339 185.793 169.57C188.334 169.801 192.03 169.801 196.65 170.494C198.96 170.725 201.5 171.187 204.041 172.111C205.427 172.573 206.582 173.035 207.968 173.496C209.354 174.189 210.74 174.651 211.895 175.806C214.436 177.885 215.129 181.58 215.129 185.044C215.129 185.968 215.129 186.661 214.898 187.585C214.898 188.047 214.898 188.509 214.667 188.971C214.436 189.433 214.205 189.895 213.743 190.126C213.281 190.356 212.819 190.587 212.126 190.587C211.664 190.587 210.971 190.356 210.74 190.126C209.816 189.895 209.123 189.664 208.199 189.202C201.5 186.892 195.033 185.506 189.027 185.044C186.024 184.813 183.252 184.813 180.48 185.044C179.094 185.044 177.478 185.044 176.554 183.659C175.63 182.273 175.861 181.118 175.861 179.963C175.861 177.654 175.861 175.575 175.861 173.727C175.861 172.804 175.861 171.88 176.092 171.187C176.554 170.494 177.016 169.801 177.709 169.57C178.863 169.108 180.018 169.108 180.711 169.108C181.635 169.108 181.866 169.339 181.866 169.339Z" fill="#263238"/>
<path d="M91.7815 217.609L87.3927 221.767C87.1617 221.998 87.1617 222.69 87.3927 222.921C88.5477 223.845 90.6266 226.155 89.2406 228.233C87.6237 231.005 78.6151 246.248 97.5563 247.634C97.5563 247.634 99.4042 248.096 100.328 249.713C100.559 250.174 101.252 250.174 101.483 249.713C102.176 248.789 103.562 247.634 106.103 247.403C110.954 246.71 116.266 241.86 116.035 237.472C116.035 237.472 115.111 232.622 113.495 229.619C111.878 227.079 113.264 225.231 114.881 223.383C115.111 223.152 115.111 222.69 114.881 222.459L110.723 218.071C110.492 217.84 110.03 217.84 109.799 217.84C108.413 218.533 104.717 220.381 101.945 218.071C101.714 217.84 101.252 217.84 101.021 218.071C99.8662 218.995 96.4013 221.074 92.7055 217.84C92.7055 217.378 92.2435 217.147 91.7815 217.609Z" fill="#16A571"/>
<path d="M209.124 242.553H169.394V249.713H209.124V242.553Z" fill="#16A571"/>
<path d="M209.124 233.546H169.394V240.243H209.124V233.546Z" fill="#455A64"/>
<path d="M145.138 236.317C156.225 243.939 184.175 264.032 184.175 264.032L189.719 259.182L149.989 229.388C148.372 228.233 146.062 228.233 144.445 229.619C142.597 231.467 142.828 234.7 145.138 236.317Z" fill="#263238"/>
<path d="M157.841 305.604L165.695 266.572C166.619 261.26 170.315 256.872 175.628 255.948C176.089 255.948 176.551 255.717 176.782 255.717C181.633 255.486 206.349 252.484 206.349 252.484L217.668 261.26C219.516 262.877 220.209 265.418 218.823 267.727L225.059 286.204L220.44 290.823L223.442 303.988C223.442 303.988 219.285 307.914 216.975 307.452C214.665 306.759 214.665 306.759 214.665 306.759L210.969 304.219L204.27 318.538L193.183 328.007L157.841 305.604Z" fill="#FFBF9D"/>
<path d="M219.054 268.651C218.823 268.882 217.668 267.034 214.896 265.649C213.51 264.956 211.893 264.032 209.814 263.801C207.967 263.57 205.426 264.032 203.116 264.032C193.414 264.956 185.33 264.725 185.33 264.956C185.33 264.494 193.183 263.57 202.885 262.646C205.426 262.415 207.736 262.184 210.045 262.415C212.355 262.877 213.972 263.801 215.358 264.725C218.361 266.803 219.285 268.651 219.054 268.651Z" fill="#FF9A6C"/>
<path d="M221.593 286.435C221.362 286.435 220.9 284.356 218.821 281.816C216.743 279.275 212.816 276.735 207.965 275.58C203.114 274.656 198.494 275.118 195.261 275.811C192.027 276.273 189.948 276.735 189.948 276.504C189.948 276.273 191.796 275.58 195.03 274.656C198.263 273.963 203.114 273.039 208.427 274.194C213.74 275.349 217.667 278.351 219.745 281.123C221.593 284.125 221.824 286.435 221.593 286.435Z" fill="#FF9A6C"/>
<path d="M222.288 303.064C222.057 303.295 220.902 301.216 219.978 297.983C219.516 296.366 219.054 294.518 217.899 292.671C216.744 290.823 214.666 289.899 212.125 289.668C207.043 289.206 202.423 290.13 199.189 290.13C195.724 290.361 193.646 290.13 193.646 289.899C193.646 289.668 195.724 289.437 198.958 288.975C202.192 288.514 206.812 287.821 212.125 288.283C213.511 288.283 214.897 288.744 216.052 289.206C217.206 289.899 218.13 290.823 218.823 291.747C220.209 293.826 220.44 295.904 220.902 297.521C221.595 301.216 222.519 303.064 222.288 303.064Z" fill="#FF9A6C"/>
<path d="M227.836 258.72L142.601 385.978L147.452 389.211L221.138 367.27L304.756 252.715L303.832 248.096L227.836 258.72Z" fill="#263238"/>
<path d="M234.069 317.384C234.069 317.384 244.233 315.767 247.929 316.691C251.625 317.845 262.481 325.698 262.481 325.698C262.481 325.698 263.636 332.396 261.095 333.089C261.095 333.089 261.557 333.782 262.481 337.477C263.405 341.172 264.329 343.251 259.94 347.177C259.94 347.177 261.557 353.182 259.94 355.03C258.323 356.877 256.475 358.725 256.475 358.725C256.475 358.725 251.856 366.809 248.391 367.04C247.236 367.04 246.081 367.502 245.157 368.194C241.23 370.735 236.379 371.197 231.991 370.042C226.909 368.656 221.365 366.578 222.289 365.423C223.906 362.882 227.371 357.108 227.371 357.108C227.371 357.108 212.818 350.18 212.587 347.177C212.356 344.175 213.28 343.713 213.28 343.713C213.28 343.713 211.663 338.17 216.052 337.015C216.052 337.015 218.131 329.624 221.596 328.7C225.061 327.777 249.777 332.165 249.777 332.165L239.613 326.391C239.613 326.391 230.605 326.622 230.374 323.619C230.374 320.617 234.069 317.384 234.069 317.384Z" fill="#FFBF9D"/>
<path d="M238.921 352.489C238.69 352.951 233.146 350.873 225.986 348.794C218.825 346.715 213.05 345.56 213.05 345.329C213.05 344.868 219.056 345.56 226.217 347.408C233.608 349.487 239.152 352.027 238.921 352.489Z" fill="#FF9A6C"/>
<path d="M249.549 342.096C249.549 342.558 242.388 341.403 233.379 340.017C224.602 338.401 217.441 336.784 217.672 336.553C217.672 336.091 224.833 337.246 233.841 338.632C242.619 340.248 249.549 341.865 249.549 342.096Z" fill="#FF9A6C"/>
<path d="M304.29 252.484C304.29 252.484 303.828 252.715 302.904 252.715C301.98 252.946 300.594 253.177 298.977 253.408C295.282 254.101 290.2 254.794 283.963 255.949C271.028 258.027 252.78 261.03 231.528 264.494L231.99 264.263C225.292 274.194 218.131 285.049 210.739 296.366C193.415 322.003 177.939 345.329 166.389 362.189C160.615 370.504 155.995 377.202 152.761 382.052C151.144 384.361 149.989 385.978 149.065 387.364C148.141 388.519 147.679 389.212 147.679 389.212C147.679 389.212 148.141 388.519 148.834 387.133C149.758 385.747 150.913 383.9 152.299 381.59C155.533 376.74 159.922 369.811 165.465 361.497C176.784 344.406 192.26 321.079 209.353 295.442C216.976 284.125 224.137 273.27 230.835 263.57L231.066 263.339H231.297C252.549 260.106 270.797 257.334 283.732 255.487C290.2 254.563 295.282 253.87 298.746 253.408C300.363 253.177 301.749 252.946 302.673 252.946C303.828 252.484 304.29 252.484 304.29 252.484Z" fill="#455A64"/>
<path d="M158.535 301.447L83.2322 331.934L69.1419 252.946L5.15771 264.032C11.6254 298.676 18.7861 375.585 38.4202 390.135C55.0515 402.376 92.2408 392.676 115.109 379.742C152.76 358.494 185.099 322.696 185.099 322.696L158.535 301.447Z" fill="#FFBF9D"/>
<path d="M4.23422 322.003C4.23422 322.003 -11.0111 193.59 41.6545 174.882C49.5082 172.11 65.9085 242.091 70.9902 249.251L83.4637 312.302C83.4637 312.302 29.6431 328.238 4.23422 322.003Z" fill="#E0E0E0"/>
<path d="M6.5445 229.85C13.2432 230.081 15.0911 229.619 22.0208 229.85C21.0969 240.474 22.0208 254.563 21.0968 265.187C15.0911 264.956 8.39242 265.418 2.61768 265.187C2.61768 265.187 3.54163 251.329 4.00361 243.477C4.2346 235.624 6.5445 229.85 6.5445 229.85Z" fill="#16A571"/>
<path d="M67.756 362.42C67.525 362.42 67.063 360.342 67.063 357.108C67.063 353.644 67.9869 349.025 70.5278 344.406C72.8377 339.786 76.0716 336.322 78.8435 334.243C81.6153 332.165 83.4633 331.241 83.4633 331.472C83.6942 331.934 76.3026 336.091 71.9138 345.329C67.525 354.106 68.4489 362.42 67.756 362.42Z" fill="#FF9A6C"/>
<path d="M162.927 321.541C162.696 321.772 159.693 315.074 159.231 307.452C158.538 299.138 160.386 292.671 160.848 292.902C161.31 292.902 160.155 299.369 160.848 307.452C161.541 315.074 163.389 321.31 162.927 321.541Z" fill="#FF9A6C"/>
<path d="M39.1143 171.649C46.9679 167.26 55.2835 164.258 63.8302 162.179C65.6781 161.717 67.526 161.486 69.3739 161.717C73.5317 162.41 76.0726 166.106 78.1515 169.801C78.8445 170.956 78.1515 172.572 76.7656 172.803C67.295 175.344 56.4385 179.963 49.2778 185.968C48.1229 187.123 46.5059 188.278 44.889 187.585C43.965 187.354 43.5031 186.43 42.8101 185.737C40.9622 183.197 38.8833 180.656 37.0354 177.885C36.3424 177.192 35.8804 176.268 35.6494 175.344C35.6494 173.958 37.4973 172.572 39.1143 171.649Z" fill="#E0E0E0"/>
<path d="M39.1146 171.649C39.1146 171.649 38.8836 171.88 38.1907 172.341C37.7287 172.803 36.8047 173.265 36.3427 174.42C36.1118 174.882 36.1118 175.575 36.3427 176.268C36.5737 176.961 37.2667 177.654 37.7287 178.346C38.8836 179.963 40.2696 181.58 41.6555 183.427C42.3485 184.351 43.0414 185.275 43.9654 186.43C44.6584 187.354 45.8133 187.816 46.9683 187.123C48.1232 186.661 49.0472 185.506 50.2021 184.582C51.3571 183.658 52.743 182.735 53.898 181.811C59.2107 178.346 65.6784 175.575 72.6081 173.265C73.5321 173.034 74.456 172.803 75.149 172.572L76.5349 172.111C76.7659 172.111 77.2279 171.88 77.2279 171.649C77.6899 171.187 77.6899 170.494 77.4589 169.801C76.9969 169.108 76.7659 168.415 76.304 167.491C74.687 164.72 72.1461 162.41 69.1433 161.948C66.1404 161.486 63.3685 162.641 60.5967 163.103C57.8248 163.796 55.5149 164.489 53.205 165.413C48.8162 167.029 45.3513 168.415 42.8105 169.57C40.5006 171.187 39.1146 171.649 39.1146 171.649C39.1146 171.649 39.3456 171.418 40.0386 170.956C40.7315 170.494 41.4245 170.032 42.8105 169.339C45.1204 168.184 48.5852 166.337 53.205 164.72C55.5149 163.796 57.8248 163.103 60.5967 162.41C61.9826 161.948 63.3685 161.717 64.7545 161.255C66.1404 161.025 67.7573 160.794 69.3743 161.024C72.8391 161.486 75.611 164.258 77.2279 167.029C77.6899 167.722 78.1519 168.415 78.6139 169.339C79.0758 170.263 79.0758 171.649 78.3829 172.341C77.9209 172.803 77.4589 173.034 76.9969 173.265L75.611 173.727C74.687 173.958 73.9941 174.189 73.0701 174.42C66.1404 176.499 59.9037 179.27 54.5909 182.735C53.205 183.658 52.05 184.351 50.8951 185.275C49.7401 186.199 48.8162 187.123 47.1993 187.816C46.5063 188.047 45.5823 188.278 44.8894 188.047C44.1964 187.816 43.5034 187.354 43.0414 186.661C42.1175 185.506 41.4245 184.582 40.7315 183.658C39.3456 181.811 38.1907 179.963 37.0357 178.577C36.5737 177.884 35.8808 177.192 35.6498 176.268C35.4188 175.344 35.4188 174.651 35.8808 173.958C36.5737 172.803 37.4977 172.111 38.1907 171.88C38.6526 171.88 39.1146 171.649 39.1146 171.649Z" fill="#263238"/>
<g opacity="0.3">
<path d="M219.519 452.725C214.668 448.106 206.353 448.106 198.961 448.568C169.625 450.416 140.059 452.956 110.723 452.032C81.3873 450.878 51.5897 446.258 25.2568 434.479L29.1837 455.035C30.8006 454.111 33.1105 455.728 33.3415 457.344C33.5725 458.961 32.8795 460.809 32.6485 462.425C32.1865 466.352 34.2654 470.047 37.4993 472.819C40.5022 475.59 44.429 477.438 48.3558 479.285C55.9785 482.981 63.8321 486.445 72.3787 487.369C80.9253 488.293 90.6269 485.752 95.2467 479.516C97.0946 476.976 98.2496 473.973 101.021 472.126C104.717 469.816 109.799 470.509 114.419 471.202C138.673 474.435 163.389 468.892 187.181 463.349C183.485 468.892 187.874 476.745 194.803 479.054C201.733 481.133 209.818 478.824 215.13 474.435C222.291 469.123 225.987 458.73 219.519 452.725Z" fill="black"/>
</g>
<path d="M42.1189 388.519C42.5809 385.516 40.733 382.745 37.4991 381.59C31.0314 379.511 20.8679 376.971 18.789 379.28C15.5551 382.745 -5.69595 463.349 1.46473 468.892C8.62541 474.204 17.634 473.281 23.1778 470.74C30.8004 467.276 38.8851 407.457 42.1189 388.519Z" fill="#263238"/>
<path d="M27.1055 443.718C27.7984 444.642 46.0466 455.035 46.0466 455.035L55.2862 413.924C55.2862 413.924 39.3479 407.226 37.038 403.069C34.7281 399.143 27.1055 443.718 27.1055 443.718Z" fill="#263238"/>
<path d="M61.9843 405.841C57.5955 404.686 52.7447 405.61 49.2798 408.15C48.5869 408.843 47.8939 409.536 47.4319 410.229C45.584 413.693 38.6543 465.197 38.6543 465.197L78.6155 477.9L87.3931 472.357L97.7877 424.548C97.7877 424.548 100.791 416.465 93.8608 413.924C91.7819 413.231 71.6858 408.15 61.9843 405.841Z" fill="#263238"/>
<path d="M61.9829 405.84C61.9829 405.84 62.2138 405.84 62.9068 406.071C63.5998 406.302 64.2928 406.302 65.2167 406.533C67.5266 406.995 70.5295 407.919 74.4563 408.843C78.3831 409.767 83.2339 410.922 88.7777 412.307C90.1636 412.769 91.5495 413 93.1665 413.462C94.5524 413.693 96.1693 414.617 97.3243 415.772C99.6342 418.312 99.4032 421.777 98.4792 425.01C95.4764 438.637 92.0115 455.035 88.0847 472.818V473.049L87.8537 473.28C85.0818 475.128 82.079 476.976 79.3071 478.823L79.0761 479.054L78.6141 478.823C77.2282 478.361 75.8422 477.9 74.4563 477.438C61.7519 473.511 49.7404 469.585 38.6529 466.121L38.1909 465.89V465.428C40.9628 445.103 43.5037 427.782 46.0446 415.541C46.2756 413.924 46.7375 412.538 47.1995 411.153C47.6615 409.767 48.8164 408.612 49.9714 407.919C52.2813 406.302 54.5912 405.84 56.6701 405.61C58.518 405.379 60.1349 405.61 61.0589 405.84C61.5209 405.61 61.9829 405.84 61.9829 405.84C61.9829 406.071 59.9039 405.148 56.2081 405.61C54.3602 405.84 52.0503 406.533 49.9714 408.15C49.0474 408.843 47.8925 409.767 47.6615 411.153C47.1995 412.538 46.9685 413.924 46.7375 415.541C44.6586 427.782 42.1177 445.103 39.5769 465.428L39.1149 464.735C50.2024 468.199 62.2138 472.126 74.9183 476.052C76.3042 476.514 77.9211 476.976 79.0761 477.438H78.3831C81.386 475.59 84.3889 473.742 87.1607 471.895L86.9297 472.357C90.8566 454.573 94.5524 438.175 97.5553 424.779C98.4792 422.008 98.4792 418.774 96.6313 416.465C95.7074 415.541 94.5524 414.848 92.9355 414.386C91.5495 413.924 89.9326 413.693 88.7777 413.231C83.2339 411.845 78.6141 410.46 74.4563 409.536C70.7605 408.381 67.5266 407.688 65.4477 406.995C64.5237 406.764 63.8308 406.533 63.1378 406.302C62.4448 405.84 61.9829 405.84 61.9829 405.84Z" fill="#455A64"/>
<path d="M97.095 417.158C97.095 417.389 95.709 417.62 93.8611 419.005C92.0132 420.391 89.4723 422.932 88.3174 426.858C86.7004 430.553 86.4694 435.403 84.6215 440.715C83.6976 443.256 82.3116 446.028 80.0017 448.337C77.6918 450.647 74.9199 452.494 71.4551 453.88C64.7564 456.421 57.3647 456.652 51.59 454.111C48.8181 452.725 46.7392 450.647 45.3533 448.337C43.9673 446.258 43.2744 443.949 43.0434 441.87C42.5814 437.713 43.0434 434.48 43.2744 432.17C43.7363 429.86 43.9673 428.706 43.9673 428.706C43.9673 428.706 43.9673 429.86 43.7363 432.17C43.5054 434.48 43.2744 437.713 43.9673 441.639C44.4293 443.487 45.1223 445.797 46.2772 447.644C47.4322 449.723 49.5111 451.571 52.052 452.725C57.1337 455.035 64.2944 454.804 70.5311 452.494C73.534 451.34 76.3059 449.492 78.3848 447.413C80.4637 445.335 81.8496 442.794 82.7736 440.254C84.6215 435.172 85.0835 430.322 86.7004 426.396C88.3174 422.47 90.8582 419.698 92.9371 418.543C94.0921 417.851 95.016 417.389 95.709 417.389C96.633 417.158 97.095 417.158 97.095 417.158Z" fill="#455A64"/>
<path d="M78.6152 456.652C78.6152 456.652 89.4717 460.347 103.1 462.426C119.038 464.735 135.439 463.349 135.439 463.349L138.442 437.251C138.442 437.251 108.875 438.637 93.1676 430.091L78.6152 456.652Z" fill="#263238"/>
<path d="M167.776 435.403L164.312 461.271C164.312 461.271 185.101 460.116 200.808 454.342L205.659 426.627C205.428 426.627 190.182 435.403 167.776 435.403Z" fill="#263238"/>
<path d="M173.783 431.708L159.231 431.939L156.459 438.406L148.143 438.637L143.985 432.863L128.278 433.325L126.661 464.042C135.67 466.583 144.216 464.042 144.216 464.042L146.988 458.73L155.766 458.961L158.538 464.273L172.859 463.811L175.169 436.327L173.783 431.708Z" fill="#263238"/>
<path d="M173.783 431.708C173.783 431.708 174.014 431.939 174.245 432.863C174.476 433.787 174.938 434.941 175.4 436.096C175.169 441.408 174.476 450.878 173.321 463.58V464.042H172.859C168.47 464.273 163.62 464.504 158.538 464.504H158.076L157.845 464.042C156.921 462.425 155.997 460.578 155.073 458.73L155.766 459.192C152.994 459.192 149.991 459.192 146.988 459.192L147.681 458.73C146.757 460.347 145.833 462.195 144.909 464.042L144.678 464.273H144.447C138.904 465.659 132.898 465.89 127.123 464.504L126.43 464.273L125.737 464.042V463.58C126.43 452.725 127.123 442.332 127.585 432.863V432.17H128.278C133.822 431.939 139.135 431.939 143.985 431.708H144.447L144.678 431.939C146.064 434.018 147.45 435.865 148.605 437.713L148.143 437.482C151.146 437.482 153.918 437.251 156.459 437.251L155.997 437.482C157.152 435.172 158.076 432.863 159 431.015V430.784H159.231C163.851 430.784 167.315 430.784 170.087 430.784C172.628 431.708 173.783 431.708 173.783 431.708C173.783 431.708 172.397 431.939 169.856 431.939C167.315 431.939 163.62 432.17 159.231 432.17L159.693 431.939C158.769 434.018 157.845 436.096 156.921 438.637L156.69 438.868H156.228C153.687 438.868 150.915 439.099 147.912 439.33H147.681L147.45 439.099C146.064 437.251 144.678 435.403 143.293 433.325L143.755 433.556C138.904 433.787 133.591 433.787 128.047 434.018L128.74 433.325C128.278 442.794 127.585 453.187 127.123 464.042L126.661 463.349L127.354 463.58C132.898 464.966 138.673 464.735 143.755 463.349L143.293 463.811C144.216 461.964 145.371 460.116 146.064 458.499L146.295 458.037H146.757C149.76 458.037 152.763 458.037 155.535 458.268H155.997L156.228 458.73C157.152 460.578 158.076 462.425 159 464.042L158.307 463.58C163.389 463.349 168.239 463.349 172.628 463.118L171.935 463.58C173.09 451.109 174.014 441.408 174.707 436.096C174.476 434.71 174.014 433.787 173.783 432.863C173.783 432.17 173.783 431.708 173.783 431.708Z" fill="#455A64"/>
<path d="M221.138 460.116C221.138 460.116 232.687 457.113 234.304 451.801C235.921 446.489 236.845 394.986 234.304 391.752C231.763 388.75 217.673 389.674 216.98 390.366C216.056 391.059 209.588 399.374 209.588 399.374L221.138 460.116Z" fill="#263238"/>
<path d="M204.736 415.31L190.646 470.74C190.646 470.74 200.578 476.745 205.66 476.514C210.742 476.052 222.984 468.892 222.984 468.892C222.984 468.892 237.305 412.539 235.92 411.153C234.765 409.767 228.99 405.379 225.756 405.148C223.446 405.148 213.975 408.843 208.894 410.691C206.584 411.846 205.198 413.462 204.736 415.31Z" fill="#263238"/>
<path d="M204.735 415.31C204.735 415.31 204.735 414.617 205.428 413.462C205.89 412.308 207.506 410.922 210.047 409.998C212.357 409.074 215.36 407.919 218.594 406.534C220.211 405.841 222.059 405.379 224.138 404.686C225.062 404.455 226.448 404.455 227.603 404.917C228.758 405.379 229.681 405.841 230.605 406.303C232.684 407.457 234.532 408.612 236.149 410.691C236.38 411.846 236.149 412.077 236.149 412.77C236.149 413.231 235.918 413.924 235.918 414.386C235.687 415.541 235.456 416.696 235.225 417.851C234.301 422.47 233.146 427.551 231.991 432.863C229.45 443.487 226.679 455.035 223.676 467.045C223.445 467.507 223.445 467.969 223.214 468.662V468.893L222.983 469.123C220.211 470.74 217.67 472.126 214.898 473.512C212.126 474.897 209.354 476.052 206.352 476.745C204.735 476.976 203.118 476.745 201.501 476.283C200.115 475.821 198.729 475.359 197.343 474.666C194.802 473.512 192.261 472.126 189.951 470.74L189.489 470.509V470.047C193.647 453.88 197.343 440.023 199.884 430.091C201.27 425.241 202.194 421.546 203.118 418.774C203.58 417.62 203.811 416.465 204.042 415.772C204.504 415.541 204.735 415.31 204.735 415.31C204.735 415.31 204.735 415.772 204.504 416.465C204.273 417.389 204.042 418.313 203.811 419.467C203.118 422.239 202.194 426.165 201.039 431.015C198.498 440.947 195.033 454.804 191.106 470.971L190.875 470.278C193.185 471.664 195.495 472.819 198.036 473.974C200.577 474.897 203.349 476.052 205.89 475.821C208.661 475.359 211.433 473.974 213.974 472.819C216.746 471.433 219.287 470.047 222.059 468.662L221.828 469.123C222.059 468.662 222.059 468.2 222.29 467.507C225.293 455.266 228.065 443.718 230.605 433.325C231.76 428.013 232.915 422.932 234.07 418.313C234.301 417.158 234.532 416.003 234.763 414.848C234.763 414.386 234.994 413.693 234.994 413.231V412.308C234.994 412.077 234.994 411.615 234.994 411.846C233.608 410.229 231.529 408.843 229.681 407.688C227.834 406.534 225.755 405.61 223.907 406.072C221.828 406.534 219.98 406.996 218.363 407.688C214.898 408.843 212.126 409.998 209.585 410.922C207.044 411.615 205.659 412.77 204.966 413.924C204.966 414.617 204.735 415.31 204.735 415.31Z" fill="#455A64"/>
<path d="M225.293 410.46C236.611 385.978 247.699 361.496 259.017 336.784C259.479 335.629 257.4 335.167 256.938 336.322C245.62 360.804 234.532 385.285 223.214 409.998C222.752 410.922 224.831 411.614 225.293 410.46Z" fill="#455A64"/>
<path d="M204.504 439.561C203.118 439.33 202.194 438.175 202.425 436.789L204.504 428.013C204.735 426.858 206.121 425.934 207.507 426.165C208.893 426.396 209.817 427.551 209.586 428.937L207.507 437.713C207.507 439.099 206.121 439.792 204.504 439.561Z" fill="#455A64"/>
<path d="M202.195 447.875C200.809 447.644 199.885 446.489 200.116 445.104C200.347 443.949 201.733 443.025 203.119 443.256C204.505 443.487 205.429 444.642 205.198 446.027C205.198 447.182 203.812 448.106 202.195 447.875Z" fill="#455A64"/>
<path d="M235.688 411.384C235.919 411.615 234.303 412.769 231.762 414.155C229.221 415.772 225.525 417.85 220.905 419.467C219.75 419.929 218.364 420.16 217.209 419.929C216.054 419.929 214.899 419.467 213.975 419.005C212.128 418.081 210.511 417.158 209.356 416.003C207.046 414.155 205.891 412.538 206.122 412.538C206.353 412.307 207.739 413.693 210.049 415.31C211.204 416.234 212.82 417.158 214.437 417.85C215.361 418.081 216.285 418.543 217.209 418.543C218.133 418.543 219.288 418.312 220.212 418.081C224.601 416.696 228.297 414.617 230.838 413.462C234.072 412.076 235.688 411.153 235.688 411.384Z" fill="#455A64"/>
<path d="M217.44 419.236C217.902 419.236 215.131 432.17 211.435 448.106C207.739 463.811 204.274 476.745 203.812 476.514C203.35 476.514 206.122 463.58 209.818 447.644C213.514 431.939 216.979 419.236 217.44 419.236Z" fill="#455A64"/>
<path d="M233.148 424.086C233.379 424.548 230.607 425.703 226.911 426.858C223.216 428.013 220.213 428.706 220.213 428.475C219.982 428.013 222.754 426.858 226.449 425.703C229.914 424.317 232.917 423.625 233.148 424.086Z" fill="#455A64"/>
<path d="M232.915 426.858C233.146 427.32 230.143 428.475 226.448 429.86C222.752 431.246 219.518 431.939 219.287 431.477C219.056 431.015 222.059 429.86 225.755 428.475C229.681 427.32 232.684 426.627 232.915 426.858Z" fill="#455A64"/>
<path d="M232.223 429.86C232.454 430.322 229.451 431.477 225.755 432.863C222.059 434.248 218.826 434.941 218.595 434.479C218.364 434.018 221.366 432.863 225.062 431.477C228.989 430.322 231.992 429.629 232.223 429.86Z" fill="#455A64"/>
<path d="M231.3 432.863C231.531 433.325 228.528 434.479 224.832 435.865C221.136 437.02 217.902 437.944 217.902 437.482C217.671 437.02 220.674 435.865 224.37 434.479C228.066 433.325 231.069 432.632 231.3 432.863Z" fill="#455A64"/>
<path d="M231.3 435.634C231.531 436.096 228.297 437.251 224.37 438.637C220.443 440.022 216.978 440.715 216.978 440.484C216.747 440.022 219.981 438.868 223.908 437.482C227.835 436.096 231.3 435.403 231.3 435.634Z" fill="#455A64"/>
<path d="M220.674 412.076C220.905 412.076 220.905 412.076 220.674 412.076C220.443 411.845 220.443 411.845 220.443 411.845C220.674 411.845 220.674 411.845 220.674 412.076C220.443 411.845 220.443 411.845 220.443 411.614C220.674 411.845 220.674 411.845 220.674 412.076C220.443 411.845 220.674 411.614 220.674 411.614C220.674 411.614 220.674 411.845 220.443 411.845C220.443 411.845 220.674 411.845 220.674 411.614C220.674 411.614 220.443 411.615 220.443 411.845C220.443 411.845 220.674 411.845 220.674 412.076C220.674 412.076 220.674 412.076 220.443 411.845L220.674 412.076C220.674 412.076 220.674 411.845 220.443 411.845C221.136 411.845 220.905 411.845 220.674 412.076C220.905 412.076 220.905 412.076 220.674 412.076C220.905 411.845 221.136 411.845 221.136 411.614C221.136 411.384 221.136 411.384 221.136 411.153C221.136 410.922 220.905 410.691 220.905 410.46C220.674 410.229 220.443 410.229 220.212 410.229C219.981 410.229 219.519 410.229 219.519 410.46C219.519 410.691 219.288 410.691 219.288 410.922C219.288 411.153 219.057 411.384 219.057 411.384C219.057 411.615 219.057 411.615 219.057 411.845C219.057 412.076 219.057 412.076 219.057 412.307C219.057 412.538 219.288 412.538 219.288 412.769C219.288 413 219.519 413 219.519 413.231C219.75 413.231 219.75 413.462 219.981 413.462C220.212 413.462 220.212 413.462 220.443 413.693C220.674 413.693 220.674 413.693 220.905 413.693C221.367 413.693 221.598 413.693 222.06 413.462C222.291 413.462 222.29 413.231 222.521 413.231L222.752 413C222.752 413 222.983 412.769 222.983 412.538C222.983 412.307 222.983 412.307 222.983 412.076C222.983 412.076 222.983 412.076 222.983 411.845C222.983 411.615 222.983 411.384 222.752 411.153V410.922L222.521 410.691C222.29 410.46 222.291 410.46 222.06 410.46C221.829 410.46 221.598 410.229 221.598 410.229C221.598 410.229 221.598 410.229 221.367 410.229C221.136 410.229 221.136 410.229 220.905 410.229C220.674 410.229 220.674 410.229 220.443 410.229C220.443 410.229 220.443 410.229 220.212 410.229C219.981 410.229 219.981 410.229 219.75 410.46C219.519 410.46 219.519 410.691 219.519 410.691C219.288 410.922 219.288 411.153 219.519 411.384C219.519 411.615 219.75 411.845 219.981 412.076C220.212 412.076 220.443 412.076 220.674 412.076Z" fill="#455A64"/>
<path d="M215.824 414.155C216.055 414.155 216.055 413.924 215.824 414.155C216.055 414.155 215.824 413.924 215.824 414.155C215.824 413.924 215.824 413.924 215.824 414.155C215.593 413.924 215.593 413.924 215.593 413.924C215.824 413.924 215.824 413.924 215.824 414.155C215.593 413.924 215.593 413.924 215.593 413.693C215.824 413.693 215.824 413.693 215.824 414.155C215.593 413.924 215.824 413.693 215.824 413.693C215.824 413.693 215.824 413.924 215.593 413.924C215.593 413.924 215.824 413.924 215.824 413.693C215.824 413.693 215.593 413.693 215.593 413.924C215.593 413.924 215.824 413.924 215.824 414.155C215.824 414.155 215.824 414.155 215.593 413.924L215.824 414.155C215.824 414.155 215.824 413.924 215.593 413.924C216.286 413.924 216.055 413.924 215.824 414.155C216.055 414.155 216.055 413.924 216.055 413.924C216.286 413.924 216.055 413.924 215.824 414.155C216.055 414.155 216.055 413.924 215.824 414.155C216.055 413.924 216.286 413.924 216.286 413.693C216.286 413.462 216.286 413.462 216.286 413.231C216.286 413 216.055 412.769 216.055 412.538C215.824 412.307 215.593 412.307 215.362 412.307C215.131 412.307 214.669 412.307 214.669 412.538C214.669 412.769 214.438 412.769 214.438 413C214.438 413.231 214.207 413.462 214.207 413.462C214.207 413.693 214.207 413.693 214.207 413.924C214.207 414.155 214.207 414.155 214.207 414.386C214.207 414.617 214.438 414.617 214.438 414.848C214.438 415.079 214.669 415.079 214.669 415.31C214.9 415.31 214.9 415.541 215.131 415.541C215.362 415.541 215.362 415.541 215.593 415.772C215.824 415.772 215.824 415.772 216.055 415.772C216.517 415.772 216.748 415.772 217.21 415.541C217.441 415.541 217.441 415.31 217.672 415.31L217.903 415.079C217.903 415.079 218.134 414.848 218.134 414.617C218.134 414.386 218.134 414.386 218.134 414.155C218.134 414.155 218.134 414.155 218.134 413.924C218.134 413.693 218.134 413.462 217.903 413.231V413L217.672 412.769C217.441 412.538 217.441 412.538 217.21 412.538C216.979 412.538 216.748 412.307 216.748 412.307C216.748 412.307 216.748 412.307 216.517 412.307C216.286 412.307 216.286 412.307 216.055 412.307C215.824 412.307 215.824 412.307 215.593 412.307C215.593 412.307 215.593 412.307 215.362 412.307C215.131 412.307 215.131 412.307 214.9 412.538C214.669 412.538 214.669 412.769 214.669 412.769C214.438 413 214.438 413.231 214.669 413.462C214.669 413.693 214.9 413.924 215.131 414.155C215.362 414.155 215.593 414.155 215.824 414.155Z" fill="#FF725E"/>
</svg>
