<svg width="32" height="34" viewBox="0 0 32 34" fill="none" xmlns="http://www.w3.org/2000/svg">
<path d="M9.06306 22.4014C9.28367 23.1999 10.1098 23.6684 10.9083 23.4478C11.7069 23.2272 12.1753 22.4011 11.9547 21.6026L9.06306 22.4014ZM6.93158 9.05323L8.37742 8.65379V8.65379L6.93158 9.05323ZM4.64913 6.80194L4.2481 8.24734L4.64913 6.80194ZM2.21841 4.57088C1.42013 4.3494 0.593462 4.81699 0.371983 5.61526C0.150504 6.41353 0.618087 7.2402 1.41636 7.46168L2.21841 4.57088ZM30.4507 23.3451C31.2525 23.1367 31.7335 22.3178 31.5252 21.516C31.3168 20.7142 30.4979 20.2332 29.6961 20.4415L30.4507 23.3451ZM13.5367 26.2146C14.0119 27.9347 12.9716 29.7637 11.1012 30.2498L11.8558 33.1533C15.2725 32.2654 17.3698 28.8235 16.4283 25.4157L13.5367 26.2146ZM11.1012 30.2498C9.21515 30.7399 7.33564 29.6426 6.85521 27.9036L3.96353 28.7025C4.89977 32.0914 8.45474 34.0372 11.8558 33.1533L11.1012 30.2498ZM6.85521 27.9036C6.37999 26.1835 7.42028 24.3545 9.29067 23.8684L8.53609 20.9649C5.11938 21.8528 3.02207 25.2947 3.96353 28.7025L6.85521 27.9036ZM9.29067 23.8684C11.1767 23.3783 13.0562 24.4756 13.5367 26.2146L16.4283 25.4157C15.4921 22.0268 11.9371 20.081 8.53609 20.9649L9.29067 23.8684ZM11.9547 21.6026L8.37742 8.65379L5.48575 9.45267L9.06306 22.4014L11.9547 21.6026ZM5.05015 5.35654L2.21841 4.57088L1.41636 7.46168L4.2481 8.24734L5.05015 5.35654ZM8.37742 8.65379C7.93223 7.04232 6.65713 5.80239 5.05015 5.35654L4.2481 8.24734C4.8725 8.42058 5.33026 8.88985 5.48575 9.45267L8.37742 8.65379ZM15.3598 27.2669L30.4507 23.3451L29.6961 20.4415L14.6052 24.3634L15.3598 27.2669Z" fill="black"/>
<path d="M21.6779 19.0995L21.3006 17.6477H21.3006L21.6779 19.0995ZM13.5857 14.5681L12.1398 14.9676L13.5857 14.5681ZM24.8689 18.2702L25.2462 19.7219L24.8689 18.2702ZM30.0659 15.948L28.777 15.1807L30.0659 15.948ZM20.5937 2.79533L20.2164 1.34355L20.5937 2.79533ZM27.24 7.72611C27.4606 8.52463 28.2868 8.99312 29.0853 8.77251C29.8838 8.55191 30.3523 7.72575 30.1317 6.92724L27.24 7.72611ZM17.4027 3.62462L17.78 5.0764H17.78L17.4027 3.62462ZM12.7306 11.4731L14.1765 11.0737L12.7306 11.4731ZM31.8025 13.3384C31.6673 12.5211 30.8951 11.9681 30.0778 12.1033C29.2605 12.2386 28.7075 13.0107 28.8428 13.8281L31.8025 13.3384ZM17.78 5.0764L20.971 4.2471L20.2164 1.34355L17.0254 2.17285L17.78 5.0764ZM24.4916 16.8184L21.3006 17.6477L22.0551 20.5512L25.2462 19.7219L24.4916 16.8184ZM15.0315 14.1687L14.1765 11.0737L11.2848 11.8726L12.1398 14.9676L15.0315 14.1687ZM21.3006 17.6477C19.7565 18.049 18.7395 18.3102 17.9591 18.4077C17.2188 18.5002 16.9136 18.4123 16.7128 18.2999L15.2471 20.9174C16.2314 21.4686 17.2708 21.5171 18.3311 21.3845C19.3513 21.257 20.5907 20.9318 22.0551 20.5512L21.3006 17.6477ZM12.1398 14.9676C12.5314 16.3848 12.8629 17.5974 13.2629 18.5268C13.6821 19.5008 14.2563 20.3626 15.2471 20.9174L16.7128 18.2999C16.5185 18.1911 16.2987 17.9917 16.0185 17.3408C15.7192 16.6452 15.4461 15.6694 15.0315 14.1687L12.1398 14.9676ZM25.2462 19.7219C26.7103 19.3415 27.9518 19.0219 28.902 18.6373C29.8877 18.2382 30.776 17.6876 31.3548 16.7152L28.777 15.1807C28.6716 15.3578 28.4657 15.5774 27.7761 15.8565C27.0509 16.1501 26.0361 16.417 24.4916 16.8184L25.2462 19.7219ZM20.971 4.2471C22.5151 3.84583 23.5321 3.58463 24.3125 3.4871C25.0527 3.39458 25.3579 3.48246 25.5587 3.5949L27.0245 0.97735C26.0402 0.426195 25.0007 0.37774 23.9404 0.510256C22.9203 0.637753 21.6809 0.962958 20.2164 1.34355L20.971 4.2471ZM30.1317 6.92724C29.7402 5.50997 29.4086 4.29736 29.0086 3.36802C28.5895 2.39404 28.0152 1.53215 27.0245 0.97735L25.5587 3.5949C25.753 3.70371 25.9729 3.90311 26.253 4.55401C26.5524 5.24955 26.8254 6.22542 27.24 7.72611L30.1317 6.92724ZM17.0254 2.17285C15.5613 2.55333 14.3197 2.87285 13.3696 3.25752C12.3838 3.65663 11.4955 4.2072 10.9167 5.17955L13.4946 6.71407C13.5999 6.53703 13.8059 6.31744 14.4954 6.03826C15.2206 5.74466 16.2355 5.47778 17.78 5.0764L17.0254 2.17285ZM14.1765 11.0737C13.7618 9.57257 13.4954 8.59561 13.3962 7.84921C13.3032 7.14924 13.3933 6.88422 13.4946 6.71407L10.9167 5.17955C10.3338 6.15879 10.2833 7.19796 10.4223 8.24432C10.5552 9.24424 10.8934 10.4558 11.2848 11.8726L14.1765 11.0737ZM28.8428 13.8281C28.9862 14.6949 28.8873 14.9954 28.777 15.1807L31.3548 16.7152C31.9962 15.6379 31.9929 14.4888 31.8025 13.3384L28.8428 13.8281Z" fill="black"/>
</svg>
