<svg width="200" height="200" viewBox="0 0 200 200" fill="none" xmlns="http://www.w3.org/2000/svg">
<path d="M104.24 121.744L107.776 118.208C105.823 116.256 102.657 116.256 100.705 118.208L104.24 121.744ZM130.496 147.999L134.031 144.464L130.496 147.999ZM121.744 104.24L118.208 100.705C116.256 102.657 116.256 105.823 118.208 107.776L121.744 104.24ZM129.762 96.2227L126.226 92.6872H126.226L129.762 96.2227ZM123.797 69.0686L122.069 73.7604L123.797 69.0686ZM55.6845 87.4697L60.3763 85.7412L55.6845 87.4697ZM69.0685 123.798L64.3768 125.526V125.526L69.0685 123.798ZM96.2226 129.762L92.687 126.226V126.226L96.2226 129.762ZM141.105 79.4993L145.989 78.4267V78.4267L141.105 79.4993ZM152.705 142.405L157.324 144.319L152.705 142.405ZM152.705 136.09L148.086 138.003V138.003L152.705 136.09ZM79.4991 141.105L78.4265 145.989H78.4265L79.4991 141.105ZM136.09 152.705L138.003 148.086H138.003L136.09 152.705ZM142.405 152.705L144.318 157.325L142.405 152.705ZM78.2959 57.6472C80.892 58.5883 83.7595 57.2466 84.7005 54.6505C85.6416 52.0543 84.2999 49.1869 81.7038 48.2458L78.2959 57.6472ZM108.395 58.0655C105.804 57.1109 102.929 58.4375 101.975 61.0287C101.02 63.6199 102.347 66.4943 104.938 67.449L108.395 58.0655ZM100.705 125.28L126.96 151.535L134.031 144.464L107.776 118.208L100.705 125.28ZM151.535 126.96L125.279 100.705L118.208 107.776L144.464 134.031L151.535 126.96ZM125.279 107.776L133.297 99.7583L126.226 92.6872L118.208 100.705L125.279 107.776ZM50.9928 89.1983L64.3768 125.526L73.7602 122.069L60.3763 85.7412L50.9928 89.1983ZM99.7581 133.297L107.776 125.28L100.705 118.208L92.687 126.226L99.7581 133.297ZM60.3763 85.7412C56.3148 74.7173 53.4773 66.9783 52.2693 61.2862C51.0412 55.4992 51.9184 53.7046 52.8114 52.8116L45.7403 45.7405C41.0337 50.4471 41.1125 56.8847 42.4872 63.3623C43.882 69.9348 47.0487 78.4928 50.9928 89.1983L60.3763 85.7412ZM133.297 99.7583C137.284 95.7717 140.686 92.3878 142.891 89.4157C145.146 86.3746 146.935 82.7348 145.989 78.4267L136.221 80.5719C136.244 80.6749 136.465 81.2927 134.859 83.4585C133.201 85.6933 130.448 88.4655 126.226 92.6872L133.297 99.7583ZM122.069 73.7604C127.671 75.8244 131.333 77.1875 133.774 78.522C136.141 79.8153 136.199 80.4689 136.221 80.5719L145.989 78.4267C145.042 74.1185 141.893 71.5633 138.571 69.7473C135.324 67.9725 130.816 66.3259 125.526 64.3769L122.069 73.7604ZM151.535 151.535C152.846 150.224 154.008 149.066 154.904 148.038C155.83 146.977 156.716 145.788 157.324 144.319L148.086 140.492C148.066 140.539 147.958 140.788 147.368 141.465C146.748 142.176 145.871 143.056 144.464 144.464L151.535 151.535ZM144.464 134.031C145.871 135.439 146.748 136.32 147.368 137.03C147.958 137.707 148.066 137.956 148.086 138.003L157.324 134.176C156.716 132.708 155.83 131.518 154.904 130.457C154.008 129.429 152.846 128.271 151.535 126.96L144.464 134.031ZM157.324 144.319C158.669 141.072 158.669 137.423 157.324 134.176L148.086 138.003C148.416 138.8 148.416 139.695 148.086 140.492L157.324 144.319ZM64.3768 125.526C66.3258 130.816 67.9724 135.324 69.7471 138.571C71.5631 141.893 74.1184 145.042 78.4265 145.989L80.5717 136.222C80.4688 136.199 79.8152 136.141 78.5219 133.775C77.1874 131.333 75.8242 127.671 73.7602 122.069L64.3768 125.526ZM92.687 126.226C88.4653 130.448 85.6932 133.201 83.4583 134.859C81.2925 136.465 80.6747 136.244 80.5717 136.222L78.4265 145.989C82.7347 146.935 86.3745 145.146 89.4155 142.891C92.3876 140.686 95.7716 137.284 99.7581 133.297L92.687 126.226ZM126.96 151.535C128.271 152.846 129.429 154.008 130.457 154.904C131.518 155.83 132.707 156.716 134.176 157.325L138.003 148.086C137.956 148.066 137.707 147.959 137.03 147.368C136.319 146.748 135.439 145.871 134.031 144.464L126.96 151.535ZM144.464 144.464C143.056 145.871 142.175 146.748 141.465 147.368C140.788 147.959 140.539 148.066 140.492 148.086L144.318 157.325C145.787 156.716 146.976 155.83 148.038 154.904C149.065 154.008 150.224 152.846 151.535 151.535L144.464 144.464ZM134.176 157.325C137.423 158.67 141.072 158.67 144.318 157.325L140.492 148.086C139.695 148.416 138.8 148.416 138.003 148.086L134.176 157.325ZM81.7038 48.2458C73.3678 45.2242 66.4608 42.8955 60.9372 42.0387C55.3546 41.1728 49.87 41.6108 45.7403 45.7405L52.8114 52.8116C53.5991 52.0239 55.0618 51.247 59.4045 51.9206C63.8063 52.6033 69.8025 54.5685 78.2959 57.6472L81.7038 48.2458ZM125.526 64.3769L108.395 58.0655L104.938 67.449L122.069 73.7604L125.526 64.3769Z" fill="#16A571"/>
</svg>
