<svg width="200" height="200" viewBox="0 0 200 200" fill="none" xmlns="http://www.w3.org/2000/svg">
<path d="M123.333 80L124.477 81.1438C133.366 90.0327 137.811 94.4772 137.811 100C137.811 105.523 133.366 109.967 124.477 118.856L123.333 120" stroke="#16A571" stroke-width="10" stroke-linecap="round"/>
<path d="M108.627 67.8025L100 100L91.3728 132.198" stroke="#16A571" stroke-width="10" stroke-linecap="round"/>
<path d="M76.6666 80L75.5228 81.1438C66.6339 90.0327 62.1895 94.4772 62.1895 100C62.1895 105.523 66.6339 109.967 75.5228 118.856L76.6666 120" stroke="#16A571" stroke-width="10" stroke-linecap="round"/>
<path d="M66.6668 42.2522C76.4726 36.5798 87.8573 33.3333 100 33.3333C136.819 33.3333 166.667 63.181 166.667 100C166.667 136.819 136.819 166.667 100 166.667C63.1812 166.667 33.3335 136.819 33.3335 100C33.3335 87.8571 36.58 76.4725 42.2523 66.6667" stroke="#16A571" stroke-width="10" stroke-linecap="round"/>
</svg>
