<svg width="200" height="190" viewBox="0 0 210 200" fill="none" xmlns="http://www.w3.org/2000/svg">
<path d="M70 140L70 120" stroke="#16A571" stroke-width="10" stroke-linecap="round"/>
<path d="M105 140V100" stroke="#16A571" stroke-width="10" stroke-linecap="round"/>
<path d="M140 140V80" stroke="#16A571" stroke-width="10" stroke-linecap="round"/>
<path d="M175 100C175 131.427 175 147.14 164.749 156.904C154.497 166.667 137.998 166.667 105 166.667C72.0017 166.667 55.5025 166.667 45.2513 156.904C35 147.14 35 131.427 35 100C35 68.573 35 52.8596 45.2513 43.0965C55.5025 33.3333 72.0017 33.3333 105 33.3333C137.998 33.3333 154.497 33.3333 164.749 43.0965C171.565 49.5881 173.849 58.7104 174.614 73.3333" stroke="#16A571" stroke-width="10" stroke-linecap="round"/>
</svg>
