<svg width="37" height="37" viewBox="0 0 37 37" fill="none" xmlns="http://www.w3.org/2000/svg">
<path d="M22.1007 34.5474H15.4522C9.18398 34.5474 6.04986 34.5474 4.10257 32.6002C2.15527 30.6529 2.15527 27.5187 2.15527 21.2505V17.9263C2.15527 11.658 2.15527 8.52391 4.10257 6.57662C6.04986 4.62933 9.18398 4.62933 15.4522 4.62933H22.1007C28.3689 4.62933 31.503 4.62933 33.4503 6.57662C35.3976 8.52391 35.3976 11.658 35.3976 17.9263V21.2505C35.3976 27.5187 35.3976 30.6529 33.4503 32.6002C32.3647 33.6858 30.9101 34.1662 28.7492 34.3788" stroke="black" stroke-width="3" stroke-linecap="round"/>
<path d="M10.4658 4.62935V2.13617" stroke="black" stroke-width="3" stroke-linecap="round"/>
<path d="M27.0869 4.62935V2.13617" stroke="black" stroke-width="3" stroke-linecap="round"/>
<path d="M34.5664 12.9399H26.4636H16.6986M2.15511 12.9399H8.59582" stroke="black" stroke-width="3" stroke-linecap="round"/>
<path d="M28.749 26.2369C28.749 27.1548 28.0049 27.899 27.0869 27.899C26.169 27.899 25.4248 27.1548 25.4248 26.2369C25.4248 25.3189 26.169 24.5747 27.0869 24.5747C28.0049 24.5747 28.749 25.3189 28.749 26.2369Z" fill="black"/>
<path d="M28.749 19.5884C28.749 20.5064 28.0049 21.2505 27.0869 21.2505C26.169 21.2505 25.4248 20.5064 25.4248 19.5884C25.4248 18.6704 26.169 17.9263 27.0869 17.9263C28.0049 17.9263 28.749 18.6704 28.749 19.5884Z" fill="black"/>
<path d="M20.4385 26.2369C20.4385 27.1548 19.6943 27.899 18.7764 27.899C17.8584 27.899 17.1143 27.1548 17.1143 26.2369C17.1143 25.3189 17.8584 24.5747 18.7764 24.5747C19.6943 24.5747 20.4385 25.3189 20.4385 26.2369Z" fill="black"/>
<path d="M20.4385 19.5884C20.4385 20.5064 19.6943 21.2505 18.7764 21.2505C17.8584 21.2505 17.1143 20.5064 17.1143 19.5884C17.1143 18.6704 17.8584 17.9263 18.7764 17.9263C19.6943 17.9263 20.4385 18.6704 20.4385 19.5884Z" fill="black"/>
<path d="M12.1279 26.2369C12.1279 27.1548 11.3838 27.899 10.4658 27.899C9.54787 27.899 8.80371 27.1548 8.80371 26.2369C8.80371 25.3189 9.54787 24.5747 10.4658 24.5747C11.3838 24.5747 12.1279 25.3189 12.1279 26.2369Z" fill="black"/>
<path d="M12.1279 19.5884C12.1279 20.5064 11.3838 21.2505 10.4658 21.2505C9.54787 21.2505 8.80371 20.5064 8.80371 19.5884C8.80371 18.6704 9.54787 17.9263 10.4658 17.9263C11.3838 17.9263 12.1279 18.6704 12.1279 19.5884Z" fill="black"/>
</svg>
