<svg width="33" height="38" viewBox="0 0 33 38" fill="none" xmlns="http://www.w3.org/2000/svg">
<path d="M12.702 13.4847L11.8026 14.6851L12.702 13.4847ZM15.7774 3.75419L14.7473 4.84457C15.3254 5.39074 16.2293 5.39074 16.8075 4.84457L15.7774 3.75419ZM18.8527 13.4847L19.7521 14.6851L18.8527 13.4847ZM15.7774 14.9773L15.7774 16.4773H15.7774L15.7774 14.9773ZM13.6014 12.2842C12.4619 11.4304 11.2544 10.3979 10.3459 9.31553C9.40462 8.19411 8.9668 7.23494 8.9668 6.50216H5.9668C5.9668 8.30635 6.96332 9.95191 8.04804 11.2442C9.16557 12.5756 10.5757 13.7658 11.8026 14.6851L13.6014 12.2842ZM8.9668 6.50216C8.9668 4.74926 9.79832 3.82127 10.71 3.50593C11.6678 3.17465 13.1784 3.36241 14.7473 4.84457L16.8075 2.66382C14.6367 0.613092 11.992 -0.111857 9.72941 0.670728C7.42075 1.46924 5.9668 3.68169 5.9668 6.50216H8.9668ZM19.7521 14.6851C20.9791 13.7659 22.3892 12.5757 23.5067 11.2443C24.5915 9.95192 25.588 8.30635 25.588 6.50214H22.588C22.588 7.23495 22.1501 8.19414 21.2089 9.31556C20.3004 10.3979 19.0929 11.4305 17.9534 12.2842L19.7521 14.6851ZM25.588 6.50214C25.588 3.68167 24.134 1.46924 21.8254 0.670724C19.5628 -0.111856 16.918 0.613091 14.7473 2.66382L16.8075 4.84457C18.3764 3.36241 19.8869 3.17465 20.8447 3.50593C21.7564 3.82127 22.588 4.74925 22.588 6.50214H25.588ZM11.8026 14.6851C13.038 15.6107 14.1071 16.4773 15.7774 16.4773L15.7774 13.4773C15.2816 13.4773 15.0225 13.3489 13.6014 12.2842L11.8026 14.6851ZM17.9534 12.2842C16.5323 13.3489 16.2732 13.4773 15.7774 13.4773L15.7774 16.4773C17.4477 16.4773 18.5168 15.6107 19.7521 14.6851L17.9534 12.2842Z" fill="black"/>
<path d="M2.48047 33.4855C1.65204 33.4855 0.980469 34.1571 0.980469 34.9855C0.980469 35.8139 1.65204 36.4855 2.48047 36.4855V33.4855ZM26.0902 25.6837L25.1703 24.4989V24.4989L26.0902 25.6837ZM23.0865 28.0158L22.1666 26.831V26.831L23.0865 28.0158ZM18.7344 25.3978L17.9505 26.6766L17.9505 26.6766L18.7344 25.3978ZM19.4815 26.0251L18.3477 27.0072L18.3477 27.0072L19.4815 26.0251ZM19.1358 29.9999L18.8932 28.5197V28.5197L19.1358 29.9999ZM18.3816 30.1012L18.2242 28.6094L18.2242 28.6094L18.3816 30.1012ZM15.5097 28.6141C14.6852 28.5341 13.9519 29.1376 13.8718 29.9622C13.7918 30.7867 14.3954 31.52 15.2199 31.6001L15.5097 28.6141ZM26.7436 31.0933C26.1435 31.6644 26.1201 32.6139 26.6913 33.2139C27.2625 33.814 28.212 33.8374 28.812 33.2662L26.7436 31.0933ZM30.4222 28.6347L29.1399 27.8564V27.8564L30.4222 28.6347ZM19.2724 29.6712L20.2741 30.7878L20.2741 30.7878L19.2724 29.6712ZM1.59694 26.6917C0.927474 27.1797 0.78033 28.1179 1.26829 28.7874C1.75625 29.4569 2.69453 29.604 3.36399 29.1161L1.59694 26.6917ZM29.78 25.6833L30.6996 24.4983V24.4983L29.78 25.6833ZM20.3566 37.1918C21.1738 37.0559 21.7261 36.2832 21.5901 35.466C21.4542 34.6488 20.6815 34.0966 19.8643 34.2325L20.3566 37.1918ZM11.2503 35.5117L11.5611 34.0442H11.5611L11.2503 35.5117ZM2.48047 36.4855H6.23674V33.4855H2.48047V36.4855ZM25.1703 24.4989L22.1666 26.831L24.0063 29.2006L27.0101 26.8685L25.1703 24.4989ZM17.9505 26.6766C18.1126 26.776 18.2429 26.8862 18.3477 27.0072L20.6153 25.043C20.2897 24.6671 19.9163 24.3629 19.5184 24.1189L17.9505 26.6766ZM18.8932 28.5197C18.7326 28.546 18.5635 28.5701 18.3863 28.5912L18.7411 31.5702C18.9622 31.5439 19.1749 31.5136 19.3785 31.4802L18.8932 28.5197ZM18.3863 28.5912C18.333 28.5976 18.279 28.6037 18.2242 28.6094L18.539 31.5929C18.6071 31.5857 18.6745 31.5781 18.7411 31.5702L18.3863 28.5912ZM18.2242 28.6094C17.4484 28.6913 16.5322 28.7133 15.5097 28.6141L15.2199 31.6001C16.4559 31.72 17.5751 31.6946 18.539 31.5929L18.2242 28.6094ZM28.812 33.2662C29.9198 32.2117 30.9974 30.5779 31.7045 29.4131L29.1399 27.8564C28.441 29.0078 27.5378 30.3372 26.7436 31.0933L28.812 33.2662ZM18.2708 28.5547C18.2425 28.58 18.2184 28.5997 18.1987 28.6145C18.1789 28.6295 18.1656 28.6379 18.1591 28.6417C18.1526 28.6456 18.1555 28.6433 18.168 28.6381C18.1806 28.6328 18.2052 28.6237 18.2411 28.6158L18.8864 31.5456C19.4906 31.4125 19.9612 31.0685 20.2741 30.7878L18.2708 28.5547ZM18.2411 28.6158C18.2774 28.6078 18.325 28.6012 18.3816 28.6012V31.6012C18.5596 31.6012 18.7287 31.5803 18.8864 31.5456L18.2411 28.6158ZM18.3477 27.0072C18.7587 27.4817 18.7093 28.1613 18.2708 28.5547L20.2741 30.7878C21.9738 29.2631 22.0596 26.7103 20.6153 25.043L18.3477 27.0072ZM19.5184 24.1189C16.7524 22.4234 13.3514 22.2908 10.2099 22.9163C7.05046 23.5454 3.94941 24.977 1.59694 26.6917L3.36399 29.1161C5.38193 27.6452 8.0831 26.3987 10.7957 25.8586C13.5262 25.3149 16.0669 25.522 17.9505 26.6766L19.5184 24.1189ZM22.1666 26.831C21.0423 27.7038 20.0196 28.335 18.8932 28.5197L19.3785 31.4802C21.2817 31.1682 22.8023 30.1354 24.0063 29.2006L22.1666 26.831ZM30.6996 24.4983C29.0992 23.2563 26.7704 23.2565 25.1703 24.4989L27.0101 26.8685C27.5278 26.4665 28.3424 26.4664 28.8603 26.8683L30.6996 24.4983ZM28.8603 26.8683C29.2931 27.2042 29.296 27.5993 29.1399 27.8564L31.7045 29.4131C32.754 27.684 32.1738 25.6423 30.6996 24.4983L28.8603 26.8683ZM10.9396 36.9791C14.013 37.6299 17.2474 37.7091 20.3566 37.1918L19.8643 34.2325C17.1292 34.6875 14.2726 34.6184 11.5611 34.0442L10.9396 36.9791ZM6.23674 36.4855C7.81153 36.4855 9.40565 36.6543 10.9396 36.9791L11.5611 34.0442C9.82467 33.6765 8.0223 33.4855 6.23674 33.4855V36.4855Z" fill="black"/>
</svg>
