<svg width="43" height="37" viewBox="0 0 43 37" fill="none" xmlns="http://www.w3.org/2000/svg">
<path d="M3.72168 16.861V21.8474C3.72168 28.1156 3.72168 31.2497 6.15702 33.197C8.59236 35.1443 12.512 35.1443 20.3512 35.1443H22.4299C30.2692 35.1443 34.1888 35.1443 36.6241 33.197M39.0595 16.861V21.8474C39.0595 23.7917 39.0595 25.4344 38.9868 26.8337" stroke="black" stroke-width="3" stroke-linecap="round"/>
<path d="M16.1946 1.90198H26.5881M16.1946 1.90198L14.8399 12.7346C14.4523 15.8339 17.496 18.5232 21.3914 18.5232C25.2867 18.5232 28.3305 15.8339 27.9429 12.7346L26.5881 1.90198M16.1946 1.90198H11.8662C9.97865 1.90198 9.03489 1.90198 8.22547 2.0794C6.51992 2.45326 5.09309 3.38856 4.30013 4.65251M16.1946 1.90198L14.6886 13.9445C14.3635 16.5437 11.6281 18.5232 8.36114 18.5232C4.34833 18.5232 1.33867 15.5877 2.12565 12.4414L2.26739 11.8747M26.5881 1.90198H30.9166C32.8041 1.90198 33.7479 1.90198 34.5573 2.0794C36.2628 2.45326 37.6897 3.38856 38.4826 4.65251C38.8589 5.25236 39.044 5.99233 39.4142 7.47227L40.6571 12.4414C41.4441 15.5877 38.4344 18.5232 34.4216 18.5232C31.1547 18.5232 28.4192 16.5437 28.0942 13.9445L26.5881 1.90198Z" stroke="black" stroke-width="3" stroke-linecap="round"/>
<path d="M16.1934 32.6512V27.6648C16.1934 26.1114 16.1934 25.3346 16.6111 24.7561C16.8848 24.3771 17.2784 24.0624 17.7524 23.8435C18.4759 23.5095 19.4473 23.5095 21.3901 23.5095C23.3329 23.5095 24.3043 23.5095 25.0278 23.8435C25.5018 24.0624 25.8954 24.3771 26.1691 24.7561C26.5868 25.3346 26.5868 26.1114 26.5868 27.6648V32.6512" stroke="black" stroke-width="3" stroke-linecap="round"/>
</svg>
