<svg width="37" height="37" viewBox="0 0 37 37" fill="none" xmlns="http://www.w3.org/2000/svg">
<path d="M10.4658 28.8433L10.4658 23.8569" stroke="black" stroke-width="3" stroke-linecap="round"/>
<path d="M18.7764 28.8433V18.8706" stroke="black" stroke-width="3" stroke-linecap="round"/>
<path d="M27.0869 28.8433V13.8842" stroke="black" stroke-width="3" stroke-linecap="round"/>
<path d="M35.3976 18.8706C35.3976 26.7059 35.3976 30.6235 32.9635 33.0576C30.5294 35.4917 26.6117 35.4917 18.7764 35.4917C10.9412 35.4917 7.0235 35.4917 4.58939 33.0576C2.15527 30.6235 2.15527 26.7059 2.15527 18.8706C2.15527 11.0353 2.15527 7.11762 4.58939 4.6835C7.0235 2.24939 10.9412 2.24939 18.7764 2.24939C26.6117 2.24939 30.5294 2.24939 32.9635 4.6835C34.582 6.30197 35.1243 8.57633 35.306 12.2221" stroke="black" stroke-width="3" stroke-linecap="round"/>
</svg>
