<svg width="38" height="38" viewBox="0 0 38 38" fill="none" xmlns="http://www.w3.org/2000/svg">
<path d="M20.9392 35.1198L22.23 35.8838L20.9392 35.1198ZM21.8653 33.5552L20.5744 32.7912L21.8653 33.5552ZM16.3004 33.5552L15.0096 34.3192L16.3004 33.5552ZM17.2265 35.1198L18.5173 34.3557H18.5173L17.2265 35.1198ZM21.6453 3.5C22.4737 3.5 23.1453 2.82843 23.1453 2C23.1453 1.17157 22.4737 0.5 21.6453 0.5V3.5ZM37.6658 16.5204C37.6658 15.692 36.9942 15.0204 36.1658 15.0204C35.3373 15.0204 34.6658 15.692 34.6658 16.5204H37.6658ZM0.5 16.5204C0.5 17.3489 1.17157 18.0204 2 18.0204C2.82843 18.0204 3.5 17.3489 3.5 16.5204H0.5ZM4.036 25.1941C3.71897 24.4287 2.84152 24.0653 2.07615 24.3823C1.31079 24.6993 0.947334 25.5768 1.26436 26.3421L4.036 25.1941ZM11.8903 31.0263L11.8644 32.5261H11.8644L11.8903 31.0263ZM7.27277 30.3907L6.69874 31.7765H6.69875L7.27277 30.3907ZM35.5156 25.7681L36.9014 26.3421V26.3421L35.5156 25.7681ZM26.2754 31.0263L26.2496 29.5265L26.2754 31.0263ZM30.893 30.3907L31.467 31.7765H31.467L30.893 30.3907ZM6.07855 3.25867L5.2948 1.9797V1.9797L6.07855 3.25867ZM3.25867 6.07855L1.9797 5.2948H1.9797L3.25867 6.07855ZM14.6461 31.3994L15.4002 30.1027L15.4002 30.1027L14.6461 31.3994ZM22.23 35.8838L23.1561 34.3192L20.5744 32.7912L19.6484 34.3557L22.23 35.8838ZM15.0096 34.3192L15.9357 35.8838L18.5173 34.3557L17.5913 32.7912L15.0096 34.3192ZM19.6484 34.3557C19.4038 34.7689 18.7619 34.7689 18.5173 34.3557L15.9357 35.8838C17.3419 38.2595 20.8238 38.2595 22.23 35.8838L19.6484 34.3557ZM16.5204 3.5H21.6453V0.5H16.5204V3.5ZM34.6658 16.5204V18.2287H37.6658V16.5204H34.6658ZM11.9161 29.5265C9.77143 29.4896 8.68545 29.3523 7.84679 29.0049L6.69875 31.7765C8.11607 32.3636 9.72006 32.4891 11.8644 32.5261L11.9161 29.5265ZM1.26436 26.3421C2.2835 28.8026 4.23831 30.7574 6.69874 31.7765L7.8468 29.0049C6.12145 28.2902 4.75066 26.9194 4.036 25.1941L1.26436 26.3421ZM34.6658 18.2287C34.6658 20.2392 34.6649 21.6719 34.588 22.8001C34.5119 23.9149 34.3665 24.6225 34.1298 25.1941L36.9014 26.3421C37.3148 25.3441 37.4945 24.2719 37.581 23.0043C37.6666 21.7503 37.6658 20.1981 37.6658 18.2287H34.6658ZM26.3013 32.5261C28.4456 32.4891 30.0497 32.3636 31.467 31.7765L30.319 29.0049C29.4803 29.3523 28.3943 29.4896 26.2496 29.5265L26.3013 32.5261ZM34.1298 25.1941C33.4151 26.9194 32.0443 28.2902 30.319 29.0049L31.467 31.7765C33.9274 30.7574 35.8822 28.8026 36.9014 26.3421L34.1298 25.1941ZM16.5204 0.5C13.7535 0.5 11.573 0.498417 9.83076 0.664068C8.06623 0.831841 6.59707 1.18167 5.2948 1.9797L6.8623 4.53763C7.61398 4.07699 8.56979 3.79749 10.1147 3.6506C11.682 3.50158 13.6954 3.5 16.5204 3.5V0.5ZM3.5 16.5204C3.5 13.6954 3.50158 11.682 3.6506 10.1147C3.79749 8.56979 4.07699 7.61398 4.53763 6.8623L1.9797 5.2948C1.18167 6.59707 0.831841 8.06623 0.664068 9.83076C0.498417 11.573 0.5 13.7535 0.5 16.5204H3.5ZM5.2948 1.9797C3.94367 2.80768 2.80768 3.94367 1.9797 5.2948L4.53763 6.8623C5.11823 5.91483 5.91483 5.11823 6.8623 4.53763L5.2948 1.9797ZM17.5913 32.7912C17.2465 32.2087 16.9361 31.6811 16.6324 31.2645C16.3104 30.8226 15.9316 30.4118 15.4002 30.1027L13.8919 32.696C13.9375 32.7225 14.0267 32.7828 14.208 33.0315C14.4078 33.3056 14.636 33.6881 15.0096 34.3192L17.5913 32.7912ZM11.8644 32.5261C12.6186 32.5391 13.0818 32.5486 13.4315 32.5873C13.7534 32.6229 13.8513 32.6724 13.892 32.696L15.4002 30.1027C14.864 29.7908 14.3103 29.6663 13.7617 29.6055C13.2408 29.5478 12.6146 29.5385 11.9161 29.5265L11.8644 32.5261ZM23.1561 34.3192C23.5296 33.6881 23.7579 33.3056 23.9577 33.0315C24.1389 32.7828 24.2282 32.7225 24.2737 32.696L22.7654 30.1027C22.2341 30.4117 21.8553 30.8226 21.5332 31.2645C21.2296 31.6811 20.9192 32.2087 20.5744 32.7912L23.1561 34.3192ZM26.2496 29.5265C25.5511 29.5385 24.9248 29.5478 24.404 29.6055C23.8554 29.6663 23.3017 29.7908 22.7654 30.1027L24.2737 32.696C24.3143 32.6724 24.4123 32.6229 24.7342 32.5873C25.0839 32.5486 25.5471 32.5391 26.3013 32.5261L26.2496 29.5265Z" fill="black"/>
<circle cx="31.0409" cy="7.12486" r="5.12486" stroke="black" stroke-width="3"/>
</svg>
