<svg width="33" height="35" viewBox="0 0 33 35" fill="none" xmlns="http://www.w3.org/2000/svg">
<path d="M24.7765 13.9854C25.7501 13.0118 25.7501 11.4447 25.7501 8.31061C25.7501 5.17649 25.7501 3.60943 24.7765 2.63579M24.7765 13.9854C23.8028 14.9591 22.2357 14.9591 19.1016 14.9591H12.4532C9.31904 14.9591 7.75198 14.9591 6.77833 13.9854M24.7765 13.9854C24.7765 13.9854 24.7765 13.9854 24.7765 13.9854ZM24.7765 2.63579C23.8028 1.66214 22.2357 1.66214 19.1016 1.66214L12.4532 1.66214C9.31904 1.66214 7.75198 1.66214 6.77833 2.63579M24.7765 2.63579C24.7765 2.63579 24.7765 2.63579 24.7765 2.63579ZM6.77833 2.63579C5.80469 3.60943 5.80469 5.17649 5.80469 8.31061C5.80469 11.4447 5.80469 13.0118 6.77833 13.9854M6.77833 2.63579C6.77833 2.63579 6.77833 2.63579 6.77833 2.63579ZM6.77833 13.9854C6.77833 13.9854 6.77833 13.9854 6.77833 13.9854Z" stroke="black" stroke-width="1.5"/>
<path d="M17.4385 8.31056C17.4385 9.22852 16.6943 9.97267 15.7764 9.97267C14.8584 9.97267 14.1143 9.22852 14.1143 8.31056C14.1143 7.39259 14.8584 6.64844 15.7764 6.64844C16.6943 6.64844 17.4385 7.39259 17.4385 8.31056Z" stroke="black" stroke-width="1.5"/>
<path d="M25.749 7.39849C26.1633 7.39849 26.499 7.06271 26.499 6.64849C26.499 6.23428 26.1633 5.89849 25.749 5.89849V7.39849ZM21.5127 1.66214C21.5127 1.24793 21.1769 0.91214 20.7627 0.91214C20.3485 0.91214 20.0127 1.24793 20.0127 1.66214H21.5127ZM25.749 5.89849C23.4094 5.89849 21.5127 4.00181 21.5127 1.66214H20.0127C20.0127 4.83024 22.5809 7.39849 25.749 7.39849V5.89849Z" fill="black"/>
<path d="M25.749 10.7227C26.1633 10.7227 26.499 10.3869 26.499 9.97272C26.499 9.5585 26.1633 9.22272 25.749 9.22272V10.7227ZM20.0127 14.9591C20.0127 15.3733 20.3485 15.7091 20.7627 15.7091C21.1769 15.7091 21.5127 15.3733 21.5127 14.9591H20.0127ZM25.749 9.22272C22.5809 9.22272 20.0127 11.791 20.0127 14.9591H21.5127C21.5127 12.6194 23.4094 10.7227 25.749 10.7227V9.22272Z" fill="black"/>
<path d="M5.80469 5.89849C5.39047 5.89849 5.05469 6.23428 5.05469 6.64849C5.05469 7.06271 5.39047 7.39849 5.80469 7.39849V5.89849ZM11.541 1.66214C11.541 1.24793 11.2053 0.91214 10.791 0.91214C10.3768 0.91214 10.041 1.24793 10.041 1.66214H11.541ZM5.80469 7.39849C8.97279 7.39849 11.541 4.83024 11.541 1.66214H10.041C10.041 4.00181 8.14436 5.89849 5.80469 5.89849V7.39849Z" fill="black"/>
<path d="M5.80469 9.22272C5.39047 9.22272 5.05469 9.5585 5.05469 9.97272C5.05469 10.3869 5.39047 10.7227 5.80469 10.7227V9.22272ZM10.041 14.9591C10.041 15.3733 10.3768 15.7091 10.791 15.7091C11.2053 15.7091 11.541 15.3733 11.541 14.9591H10.041ZM5.80469 10.7227C8.14436 10.7227 10.041 12.6194 10.041 14.9591H11.541C11.541 11.791 8.97279 9.22272 5.80469 9.22272V10.7227Z" fill="black"/>
<path d="M2.48047 30.7258C1.65204 30.7258 0.980469 31.3974 0.980469 32.2258C0.980469 33.0542 1.65204 33.7258 2.48047 33.7258V30.7258ZM26.0902 23.1754L25.1861 21.9785V21.9785L26.0902 23.1754ZM23.0865 25.4444L22.1823 24.2475V24.2475L23.0865 25.4444ZM18.7344 22.8972L17.966 24.1854L17.9661 24.1854L18.7344 22.8972ZM19.4815 23.5076L18.3612 24.505V24.505L19.4815 23.5076ZM19.1358 27.3749L18.8996 25.8937L19.1358 27.3749ZM18.3816 27.4734L18.2284 25.9813L18.2284 25.9813L18.3816 27.4734ZM15.5058 25.9858C14.6811 25.908 13.9493 26.5134 13.8715 27.3382C13.7936 28.1629 14.399 28.8947 15.2238 28.9726L15.5058 25.9858ZM26.7585 28.3953C26.1507 28.9582 26.1144 29.9073 26.6773 30.5151C27.2402 31.1229 28.1893 31.1592 28.7971 30.5963L26.7585 28.3953ZM30.4222 26.0466L29.1496 25.2527V25.2527L30.4222 26.0466ZM19.2724 27.0551L20.2588 28.1852L20.2588 28.1852L19.2724 27.0551ZM1.61276 24.112C0.937009 24.5912 0.777694 25.5275 1.25692 26.2032C1.73614 26.879 2.67243 27.0383 3.34818 26.5591L1.61276 24.112ZM29.78 23.175L30.6838 21.9779V21.9779L29.78 23.175ZM20.3502 34.4135C21.1679 34.2811 21.7236 33.5109 21.5912 32.6931C21.4588 31.8753 20.6886 31.3197 19.8708 31.4521L20.3502 34.4135ZM11.2503 32.7377L11.553 31.2686L11.2503 32.7377ZM2.48047 33.7258H6.23674V30.7258H2.48047V33.7258ZM25.1861 21.9785L22.1823 24.2475L23.9906 26.6413L26.9944 24.3722L25.1861 21.9785ZM17.9661 24.1854C18.129 24.2826 18.2583 24.3894 18.3612 24.505L20.6019 22.5101C20.2743 22.1422 19.8999 21.8458 19.5028 21.6089L17.9661 24.1854ZM18.8996 25.8937C18.7384 25.9194 18.5688 25.9429 18.3911 25.9635L18.7363 28.9436C18.9569 28.918 19.169 28.8886 19.3721 28.8562L18.8996 25.8937ZM18.3911 25.9635C18.3376 25.9697 18.2834 25.9756 18.2284 25.9813L18.5348 28.9656C18.6028 28.9586 18.6699 28.9513 18.7363 28.9436L18.3911 25.9635ZM18.2284 25.9813C17.4501 26.0612 16.5311 26.0827 15.5058 25.9858L15.2238 28.9726C16.457 29.089 17.5734 29.0643 18.5348 28.9656L18.2284 25.9813ZM28.7971 30.5963C29.9074 29.5679 30.9871 27.975 31.6948 26.8406L29.1496 25.2527C28.4513 26.3718 27.5502 27.662 26.7585 28.3953L28.7971 30.5963ZM18.2861 25.925C18.2581 25.9495 18.2341 25.9685 18.2145 25.9829C18.1947 25.9973 18.1814 26.0056 18.1746 26.0095C18.1677 26.0135 18.17 26.0116 18.1814 26.007C18.1929 26.0023 18.2158 25.994 18.2494 25.9868L18.878 28.9202C19.4749 28.7923 19.9435 28.4604 20.2588 28.1852L18.2861 25.925ZM18.2494 25.9868C18.2835 25.9795 18.3282 25.9734 18.3816 25.9734V28.9734C18.5564 28.9734 18.7227 28.9535 18.878 28.9202L18.2494 25.9868ZM18.3612 24.505C18.751 24.9428 18.7077 25.5571 18.2861 25.925L20.2588 28.1852C21.9753 26.687 22.0673 24.1561 20.6019 22.5101L18.3612 24.505ZM19.5028 21.6089C16.743 19.9629 13.3523 19.8342 10.2175 20.4415C7.0637 21.0525 3.96527 22.4436 1.61276 24.112L3.34818 26.5591C5.36607 25.1281 8.06986 23.9134 10.7881 23.3868C13.5253 22.8565 16.0763 23.0583 17.966 24.1854L19.5028 21.6089ZM22.1823 24.2475C21.0602 25.0952 20.0344 25.7127 18.8996 25.8937L19.3721 28.8562C21.2669 28.554 22.7844 27.5525 23.9906 26.6413L22.1823 24.2475ZM30.6838 21.9779C29.0897 20.7742 26.7799 20.7744 25.1861 21.9785L26.9944 24.3722C27.5184 23.9764 28.3519 23.9763 28.8761 24.3721L30.6838 21.9779ZM28.8761 24.3721C29.0956 24.5378 29.1918 24.7196 29.2229 24.8549C29.2518 24.9804 29.2379 25.1111 29.1496 25.2527L31.6948 26.8406C32.7692 25.1186 32.1619 23.0939 30.6838 21.9779L28.8761 24.3721ZM10.9477 34.2069C14.0165 34.8391 17.2458 34.916 20.3502 34.4135L19.8708 31.4521C17.1308 31.8956 14.2691 31.8281 11.553 31.2686L10.9477 34.2069ZM6.23674 33.7258C7.81442 33.7258 9.41127 33.8903 10.9477 34.2069L11.553 31.2686C9.81906 30.9113 8.01941 30.7258 6.23674 30.7258V33.7258Z" fill="black"/>
</svg>
