<svg id="Capa_1" data-name="Capa 1" xmlns="http://www.w3.org/2000/svg" viewBox="0 0 261.19 261.19"><path d="M791.55,244.64A15.31,15.31,0,1,0,806.86,260,15.31,15.31,0,0,0,791.55,244.64Z" transform="translate(-591.81 -198)"/><path d="M723.48,264.27A64.33,64.33,0,1,0,787.8,328.6,64.41,64.41,0,0,0,723.48,264.27Zm0,105.53a41.21,41.21,0,1,1,41.2-41.2A41.25,41.25,0,0,1,723.48,369.8Z" transform="translate(-591.81 -198)"/><path d="M774.54,459.19H670.26a78.54,78.54,0,0,1-78.45-78.45V276.45A78.54,78.54,0,0,1,670.26,198H774.54A78.54,78.54,0,0,1,853,276.45V380.74A78.54,78.54,0,0,1,774.54,459.19ZM670.26,222.57a53.94,53.94,0,0,0-53.88,53.88V380.74a53.94,53.94,0,0,0,53.88,53.88H774.54a54,54,0,0,0,53.89-53.88V276.45a54,54,0,0,0-53.89-53.88Z" transform="translate(-591.81 -198)"/></svg>