<svg id="Capa_1" data-name="Capa 1" xmlns="http://www.w3.org/2000/svg" viewBox="0 0 347.81 282.66"><defs><style>.cls-1{fill:#a7fd2a;}</style></defs><path class="cls-1" d="M509.6,302.53c-.47-32.36,25-59.82,55-59.35,6,0,12.27,1.63,19.17,4.79s12.73,8.53,17.76,15.77,7.82,16.94,8.53,28.86v14l-82.5.24a52.22,52.22,0,0,0,11.92,27.22c6.43,7.48,14.37,11.34,24.07,11.45q12.79-.52,21.73-8.06a58.73,58.73,0,0,0,13.91-16.82l14.49,8.52c-10.17,16.83-29.1,32.6-49.08,32.6C534.61,362.24,509.13,334.67,509.6,302.53Zm83.31-12.15c-3.51-22.55-15-31.9-28.39-31.9a34.19,34.19,0,0,0-23.26,8.65c-6.65,5.73-11,13.55-13.2,23.25Z" transform="translate(-509.59 -243.17)"/><path class="cls-1" d="M710.84,358.15H627.18V341.33l58.42-81.44H645.29v16.36H628.93V243.53h76.65v16.71L647,341.79H694.6V325.43h16.24Z" transform="translate(-509.59 -243.17)"/><path class="cls-1" d="M629.06,466.58c-.35-32.36,23.6-59.82,52-59.35,9.7,0,18.7,3.74,26.76,11.33v-9.11h16v31H709.33q-8.94-17.88-28.4-17.88c-19.62-.35-36.1,20.57-35.87,44.05,0,11.8,3.51,22,10.64,30.62s15.65,13.08,25.82,13.32c16.24-.47,27.34-9.7,33.88-21.85l12,7.24c-9.82,16.48-27.58,29.91-46.39,29.91C652.66,526.29,628.71,498.72,629.06,466.58Z" transform="translate(-509.59 -243.17)"/><path class="cls-1" d="M740.91,464.83c-.35-32.95,26.52-61.22,58.3-60.76,31.67-.46,58.66,27.81,58.19,60.76.47,33.18-26.52,61.23-58.19,60.76C767.43,526.06,740.56,498,740.91,464.83Zm100.13,0c.35-24.18-19.16-44.63-41.83-44.4-22.78-.23-42.06,20.22-41.83,44.4-.23,24.19,19,44.63,41.83,44.4C821.88,509.46,841.39,489,841,464.83Z" transform="translate(-509.59 -243.17)"/><path class="cls-1" d="M748.37,280.09c-.14-5.95,4.82-10.63,10.9-10.77s11.25,4.31,11.39,10.26c.13,5.7-4.7,10.62-10.91,10.77S748.5,285.79,748.37,280.09Zm6.06,59.73-.18-7.6,6.31-12.06h-.12c-6.08.14-11.25-4.31-11.39-10.26-.13-5.7,4.83-10.63,10.9-10.77s11.26,4.56,11.39,10.26l.08,3.54a28.66,28.66,0,0,1-1.57,8.78c-.83,2.43-3.66,6-8.37,11Z" transform="translate(-509.59 -243.17)"/><rect class="cls-1" y="166.28" width="4.57" height="116.38"/></svg>