<svg id="Capa_1" data-name="Capa 1" xmlns="http://www.w3.org/2000/svg" viewBox="0 0 306.82 252.53"><path d="M967.59,179.27c-9.74,4.41-20.51,7.08-31,8.85,5-.84,12.32-9.88,15.26-13.53a57,57,0,0,0,10.3-18.78c.27-.54.47-1.21-.07-1.61a1.77,1.77,0,0,0-1.64.13,158.23,158.23,0,0,1-36.8,14.08,2.45,2.45,0,0,1-2.53-.67,29.6,29.6,0,0,0-3.22-3.29A65.14,65.14,0,0,0,900,153.53a62.12,62.12,0,0,0-27.33-4.4,65.37,65.37,0,0,0-25.93,7.32,66.9,66.9,0,0,0-20.92,17.09,64.33,64.33,0,0,0-12.49,25c-2.15,8.81-2,17.52-.66,26.42.19,1.48.06,1.67-1.27,1.48C760.91,218.94,719,200.86,685,162.11c-1.48-1.68-2.28-1.68-3.49.13-14.88,22.3-7.66,58.13,10.93,75.74,2.48,2.35,5,4.69,7.77,6.83-1,.21-13.37-1.13-24.4-6.83-1.47-.94-2.21-.4-2.34,1.28a38.21,38.21,0,0,0,.4,7.23c2.85,22.61,18.51,43.52,40,51.68a38.13,38.13,0,0,0,8.1,2.48c-4.88,1.07-9.91,1.83-23.92.74-1.74-.34-2.41.54-1.74,2.21,10.52,28.69,33.24,37.23,50.26,42.09,2.28.4,4.56.4,6.85.93-.14.21-.28.21-.41.41-5.64,8.6-25.21,15-34.33,18.19a122.91,122.91,0,0,1-52.13,6.68c-2.81-.42-3.4-.38-4.16,0s-.1,1.14.81,1.86c3.55,2.35,7.17,4.44,10.86,6.44a171.77,171.77,0,0,0,34.85,13.95c62.63,17.29,133.17,4.58,180.2-42.14C926,315.32,939,264.71,939,214.05c0-2,2.34-3.08,3.73-4.12,9.61-7.22,17.36-15.86,24.53-25.51a7.8,7.8,0,0,0,1.62-4.89v-.26C968.85,178.46,968.83,178.7,967.59,179.27Z" transform="translate(-662.04 -149)"/></svg>